%TF.GenerationSoftware,KiCad,Pcbnew,9.0.6*%
%TF.CreationDate,2026-03-10T21:41:48+01:00*%
%TF.ProjectId,Slim Keyboard,536c696d-204b-4657-9962-6f6172642e6b,rev?*%
%TF.SameCoordinates,Original*%
%TF.FileFunction,Legend,Top*%
%TF.FilePolarity,Positive*%
%FSLAX46Y46*%
G04 Gerber Fmt 4.6, Leading zero omitted, Abs format (unit mm)*
G04 Created by KiCad (PCBNEW 9.0.6) date 2026-03-10 21:41:48*
%MOMM*%
%LPD*%
G01*
G04 APERTURE LIST*
%ADD10C,0.300000*%
%ADD11C,0.152400*%
%ADD12C,0.120000*%
G04 APERTURE END LIST*
D10*
X87150000Y-61250000D02*
G75*
G02*
X86850000Y-61250000I-150000J0D01*
G01*
X86850000Y-61250000D02*
G75*
G02*
X87150000Y-61250000I150000J0D01*
G01*
D11*
%TO.C,U1*%
X86005508Y-69382200D02*
X86632200Y-69382200D01*
X85249932Y-69255200D02*
X85249932Y-69509200D01*
X85005508Y-69382200D02*
X85494492Y-69382200D01*
X80994493Y-62117800D02*
X79367800Y-62117800D01*
X84005508Y-69382200D02*
X84494492Y-69382200D01*
X84994493Y-62117800D02*
X84505507Y-62117800D01*
X80249942Y-62244800D02*
X80249942Y-61990800D01*
X86505200Y-63500068D02*
X86759200Y-63500068D01*
X79367800Y-68755508D02*
X79367800Y-69382200D01*
X86632200Y-64244493D02*
X86632200Y-62117800D01*
X79367800Y-62117800D02*
X79367800Y-62744492D01*
X79367800Y-69382200D02*
X79994492Y-69382200D01*
X86632200Y-69382200D02*
X86632200Y-68755507D01*
X86632200Y-62117800D02*
X86005507Y-62117800D01*
D12*
%TO.C,C11*%
X89892164Y-68640000D02*
X90107836Y-68640000D01*
X89892164Y-69360000D02*
X90107836Y-69360000D01*
%TO.C,C12*%
X90107836Y-72640000D02*
X89892164Y-72640000D01*
X90107836Y-73360000D02*
X89892164Y-73360000D01*
%TO.C,C21*%
X78390580Y-55990000D02*
X78109420Y-55990000D01*
X78390580Y-57010000D02*
X78109420Y-57010000D01*
%TO.C,R4*%
X91163641Y-52120000D02*
X90856359Y-52120000D01*
X91163641Y-52880000D02*
X90856359Y-52880000D01*
%TO.C,C18*%
X77642164Y-65640000D02*
X77857836Y-65640000D01*
X77642164Y-66360000D02*
X77857836Y-66360000D01*
%TO.C,C2*%
X84640000Y-59132836D02*
X84640000Y-58917164D01*
X85360000Y-59132836D02*
X85360000Y-58917164D01*
%TO.C,D2*%
X88565000Y-46040000D02*
X88565000Y-47960000D01*
X88565000Y-47960000D02*
X91250000Y-47960000D01*
X91250000Y-46040000D02*
X88565000Y-46040000D01*
%TO.C,U2*%
X85140000Y-50790000D02*
X85615000Y-50790000D01*
X85140000Y-51265000D02*
X85140000Y-50790000D01*
X85140000Y-54010000D02*
X85140000Y-53535000D01*
X85615000Y-54010000D02*
X85140000Y-54010000D01*
X87885000Y-50790000D02*
X88360000Y-50790000D01*
X88360000Y-50790000D02*
X88360000Y-51265000D01*
X88360000Y-53535000D02*
X88360000Y-54010000D01*
X88360000Y-54010000D02*
X87885000Y-54010000D01*
X86240000Y-54870000D02*
X85760000Y-54870000D01*
X86000000Y-54540000D01*
X86240000Y-54870000D01*
G36*
X86240000Y-54870000D02*
G01*
X85760000Y-54870000D01*
X86000000Y-54540000D01*
X86240000Y-54870000D01*
G37*
%TO.C,C4*%
X80640000Y-59607836D02*
X80640000Y-59392164D01*
X81360000Y-59607836D02*
X81360000Y-59392164D01*
%TO.C,C20*%
X78390580Y-57490000D02*
X78109420Y-57490000D01*
X78390580Y-58510000D02*
X78109420Y-58510000D01*
%TO.C,C19*%
X76890580Y-61990000D02*
X76609420Y-61990000D01*
X76890580Y-63010000D02*
X76609420Y-63010000D01*
%TO.C,C25*%
X79740000Y-53390580D02*
X79740000Y-53109420D01*
X80760000Y-53390580D02*
X80760000Y-53109420D01*
%TO.C,C3*%
X82662164Y-55890000D02*
X82877836Y-55890000D01*
X82662164Y-56610000D02*
X82877836Y-56610000D01*
%TO.C,C9*%
X88140000Y-63857836D02*
X88140000Y-63642164D01*
X88860000Y-63857836D02*
X88860000Y-63642164D01*
%TO.C,J3*%
X78700000Y-72000000D02*
G75*
G02*
X76800000Y-72000000I-950000J0D01*
G01*
X76800000Y-72000000D02*
G75*
G02*
X78700000Y-72000000I950000J0D01*
G01*
%TO.C,R1*%
X86082379Y-75370000D02*
X86417621Y-75370000D01*
X86082379Y-76130000D02*
X86417621Y-76130000D01*
%TO.C,L1*%
X89337221Y-60990000D02*
X89662779Y-60990000D01*
X89337221Y-62010000D02*
X89662779Y-62010000D01*
%TO.C,D3*%
X74750000Y-45710000D02*
X77435000Y-45710000D01*
X77435000Y-43790000D02*
X74750000Y-43790000D01*
X77435000Y-45710000D02*
X77435000Y-43790000D01*
%TO.C,C13*%
X86890000Y-71857836D02*
X86890000Y-71642164D01*
X87610000Y-71857836D02*
X87610000Y-71642164D01*
%TO.C,R12*%
X76366359Y-42870000D02*
X76673641Y-42870000D01*
X76366359Y-43630000D02*
X76673641Y-43630000D01*
%TO.C,C26*%
X78359420Y-49240000D02*
X78640580Y-49240000D01*
X78359420Y-50260000D02*
X78640580Y-50260000D01*
%TO.C,J2*%
X76200000Y-72000000D02*
G75*
G02*
X74300000Y-72000000I-950000J0D01*
G01*
X74300000Y-72000000D02*
G75*
G02*
X76200000Y-72000000I950000J0D01*
G01*
%TO.C,R10*%
X83153641Y-50220000D02*
X82846359Y-50220000D01*
X83153641Y-50980000D02*
X82846359Y-50980000D01*
%TO.C,C22*%
X83392164Y-51440000D02*
X83607836Y-51440000D01*
X83392164Y-52160000D02*
X83607836Y-52160000D01*
%TO.C,C15*%
X84622836Y-70390000D02*
X84407164Y-70390000D01*
X84622836Y-71110000D02*
X84407164Y-71110000D01*
%TO.C,C5*%
X76890580Y-60490000D02*
X76609420Y-60490000D01*
X76890580Y-61510000D02*
X76609420Y-61510000D01*
%TO.C,C24*%
X88084420Y-54754411D02*
X88365580Y-54754411D01*
X88084420Y-55774411D02*
X88365580Y-55774411D01*
%TO.C,C7*%
X85740000Y-58634420D02*
X85740000Y-58915580D01*
X86760000Y-58634420D02*
X86760000Y-58915580D01*
%TO.C,R5*%
X91143641Y-50870000D02*
X90836359Y-50870000D01*
X91143641Y-51630000D02*
X90836359Y-51630000D01*
%TO.C,J1*%
X78330000Y-42975000D02*
X78330000Y-44675000D01*
X87670000Y-42975000D02*
X87670000Y-44675000D01*
%TO.C,R2*%
X82903641Y-52420000D02*
X82596359Y-52420000D01*
X82903641Y-53180000D02*
X82596359Y-53180000D01*
%TO.C,R8*%
X81120000Y-48596359D02*
X81120000Y-48903641D01*
X81880000Y-48596359D02*
X81880000Y-48903641D01*
%TO.C,Y2*%
X88790000Y-72410000D02*
X91210000Y-72410000D01*
X91210000Y-72410000D02*
X91210000Y-69590000D01*
%TO.C,C10*%
X89852200Y-66848385D02*
X90067872Y-66848385D01*
X89852200Y-67568385D02*
X90067872Y-67568385D01*
%TO.C,C27*%
X76412164Y-41640000D02*
X76627836Y-41640000D01*
X76412164Y-42360000D02*
X76627836Y-42360000D01*
%TO.C,R3*%
X84903641Y-54620000D02*
X84596359Y-54620000D01*
X84903641Y-55380000D02*
X84596359Y-55380000D01*
%TO.C,C16*%
X84607836Y-73390000D02*
X84392164Y-73390000D01*
X84607836Y-74110000D02*
X84392164Y-74110000D01*
%TO.C,R11*%
X83653641Y-53420000D02*
X83346359Y-53420000D01*
X83653641Y-54180000D02*
X83346359Y-54180000D01*
%TO.C,R7*%
X84596359Y-48370000D02*
X84903641Y-48370000D01*
X84596359Y-49130000D02*
X84903641Y-49130000D01*
%TO.C,C1*%
X77857836Y-68640000D02*
X77642164Y-68640000D01*
X77857836Y-69360000D02*
X77642164Y-69360000D01*
%TO.C,R6*%
X76120000Y-49903641D02*
X76120000Y-49596359D01*
X76880000Y-49903641D02*
X76880000Y-49596359D01*
%TO.C,C14*%
X85642164Y-71640000D02*
X85857836Y-71640000D01*
X85642164Y-72360000D02*
X85857836Y-72360000D01*
%TO.C,C17*%
X80640000Y-72142164D02*
X80640000Y-72357836D01*
X81360000Y-72142164D02*
X81360000Y-72357836D01*
%TO.C,R9*%
X75737258Y-45977500D02*
X75262742Y-45977500D01*
X75737258Y-47022500D02*
X75262742Y-47022500D01*
%TO.C,C6*%
X87390000Y-68857836D02*
X87390000Y-68642164D01*
X88110000Y-68857836D02*
X88110000Y-68642164D01*
%TO.C,Y1*%
X81875000Y-58075000D02*
X81875000Y-59425000D01*
X83625000Y-58075000D02*
X83625000Y-59425000D01*
%TO.C,U3*%
X76190000Y-51840000D02*
X76240000Y-51840000D01*
X76190000Y-53660000D02*
X76190000Y-51840000D01*
X76240000Y-53660000D02*
X76190000Y-53660000D01*
X78140000Y-53660000D02*
X77360000Y-53660000D01*
X79260000Y-51840000D02*
X79310000Y-51840000D01*
X79310000Y-51840000D02*
X79310000Y-53660000D01*
X79310000Y-53660000D02*
X79260000Y-53660000D01*
X79590000Y-51540000D02*
X79260000Y-51300000D01*
X79590000Y-51060000D01*
X79590000Y-51540000D01*
G36*
X79590000Y-51540000D02*
G01*
X79260000Y-51300000D01*
X79590000Y-51060000D01*
X79590000Y-51540000D01*
G37*
%TO.C,L5*%
X78412779Y-58990000D02*
X78087221Y-58990000D01*
X78412779Y-60010000D02*
X78087221Y-60010000D01*
%TO.C,D1*%
X88565000Y-43790000D02*
X88565000Y-45710000D01*
X88565000Y-45710000D02*
X91250000Y-45710000D01*
X91250000Y-43790000D02*
X88565000Y-43790000D01*
%TO.C,C8*%
X89240000Y-63890580D02*
X89240000Y-63609420D01*
X90260000Y-63890580D02*
X90260000Y-63609420D01*
%TO.C,C23*%
X87390580Y-48490000D02*
X87109420Y-48490000D01*
X87390580Y-49510000D02*
X87109420Y-49510000D01*
%TD*%
M02*
