%TF.GenerationSoftware,KiCad,Pcbnew,9.0.6*%
%TF.CreationDate,2026-03-10T21:41:48+01:00*%
%TF.ProjectId,Slim Keyboard,536c696d-204b-4657-9962-6f6172642e6b,rev?*%
%TF.SameCoordinates,Original*%
%TF.FileFunction,Paste,Top*%
%TF.FilePolarity,Positive*%
%FSLAX46Y46*%
G04 Gerber Fmt 4.6, Leading zero omitted, Abs format (unit mm)*
G04 Created by KiCad (PCBNEW 9.0.6) date 2026-03-10 21:41:48*
%MOMM*%
%LPD*%
G01*
G04 APERTURE LIST*
G04 Aperture macros list*
%AMRoundRect*
0 Rectangle with rounded corners*
0 $1 Rounding radius*
0 $2 $3 $4 $5 $6 $7 $8 $9 X,Y pos of 4 corners*
0 Add a 4 corners polygon primitive as box body*
4,1,4,$2,$3,$4,$5,$6,$7,$8,$9,$2,$3,0*
0 Add four circle primitives for the rounded corners*
1,1,$1+$1,$2,$3*
1,1,$1+$1,$4,$5*
1,1,$1+$1,$6,$7*
1,1,$1+$1,$8,$9*
0 Add four rect primitives between the rounded corners*
20,1,$1+$1,$2,$3,$4,$5,0*
20,1,$1+$1,$4,$5,$6,$7,0*
20,1,$1+$1,$6,$7,$8,$9,0*
20,1,$1+$1,$8,$9,$2,$3,0*%
G04 Aperture macros list end*
%ADD10C,0.000000*%
%ADD11C,0.254000*%
%ADD12RoundRect,0.140000X-0.140000X-0.170000X0.140000X-0.170000X0.140000X0.170000X-0.140000X0.170000X0*%
%ADD13RoundRect,0.140000X0.140000X0.170000X-0.140000X0.170000X-0.140000X-0.170000X0.140000X-0.170000X0*%
%ADD14RoundRect,0.225000X0.225000X0.250000X-0.225000X0.250000X-0.225000X-0.250000X0.225000X-0.250000X0*%
%ADD15RoundRect,0.135000X0.135000X0.185000X-0.135000X0.185000X-0.135000X-0.185000X0.135000X-0.185000X0*%
%ADD16RoundRect,0.140000X0.170000X-0.140000X0.170000X0.140000X-0.170000X0.140000X-0.170000X-0.140000X0*%
%ADD17RoundRect,0.147500X-0.172500X0.147500X-0.172500X-0.147500X0.172500X-0.147500X0.172500X0.147500X0*%
%ADD18RoundRect,0.243750X-0.243750X-0.456250X0.243750X-0.456250X0.243750X0.456250X-0.243750X0.456250X0*%
%ADD19RoundRect,0.160000X0.160000X-0.160000X0.160000X0.160000X-0.160000X0.160000X-0.160000X-0.160000X0*%
%ADD20RoundRect,0.062500X0.062500X-0.375000X0.062500X0.375000X-0.062500X0.375000X-0.062500X-0.375000X0*%
%ADD21RoundRect,0.062500X0.375000X-0.062500X0.375000X0.062500X-0.375000X0.062500X-0.375000X-0.062500X0*%
%ADD22RoundRect,0.225000X0.250000X-0.225000X0.250000X0.225000X-0.250000X0.225000X-0.250000X-0.225000X0*%
%ADD23RoundRect,0.160000X-0.197500X-0.160000X0.197500X-0.160000X0.197500X0.160000X-0.197500X0.160000X0*%
%ADD24RoundRect,0.218750X-0.218750X-0.256250X0.218750X-0.256250X0.218750X0.256250X-0.218750X0.256250X0*%
%ADD25RoundRect,0.243750X0.243750X0.456250X-0.243750X0.456250X-0.243750X-0.456250X0.243750X-0.456250X0*%
%ADD26RoundRect,0.135000X-0.135000X-0.185000X0.135000X-0.185000X0.135000X0.185000X-0.135000X0.185000X0*%
%ADD27RoundRect,0.225000X-0.225000X-0.250000X0.225000X-0.250000X0.225000X0.250000X-0.225000X0.250000X0*%
%ADD28RoundRect,0.225000X-0.250000X0.225000X-0.250000X-0.225000X0.250000X-0.225000X0.250000X0.225000X0*%
%ADD29RoundRect,0.150000X0.150000X0.425000X-0.150000X0.425000X-0.150000X-0.425000X0.150000X-0.425000X0*%
%ADD30RoundRect,0.075000X0.075000X0.500000X-0.075000X0.500000X-0.075000X-0.500000X0.075000X-0.500000X0*%
%ADD31O,1.000000X2.100000*%
%ADD32O,1.000000X1.800000*%
%ADD33RoundRect,0.135000X-0.185000X0.135000X-0.185000X-0.135000X0.185000X-0.135000X0.185000X0.135000X0*%
%ADD34RoundRect,0.200000X0.200000X-0.250000X0.200000X0.250000X-0.200000X0.250000X-0.200000X-0.250000X0*%
%ADD35RoundRect,0.135000X0.185000X-0.135000X0.185000X0.135000X-0.185000X0.135000X-0.185000X-0.135000X0*%
%ADD36RoundRect,0.140000X-0.170000X0.140000X-0.170000X-0.140000X0.170000X-0.140000X0.170000X0.140000X0*%
%ADD37RoundRect,0.200000X0.200000X0.275000X-0.200000X0.275000X-0.200000X-0.275000X0.200000X-0.275000X0*%
%ADD38R,1.800000X1.000000*%
%ADD39RoundRect,0.150000X-0.150000X0.512500X-0.150000X-0.512500X0.150000X-0.512500X0.150000X0.512500X0*%
%ADD40RoundRect,0.218750X0.218750X0.256250X-0.218750X0.256250X-0.218750X-0.256250X0.218750X-0.256250X0*%
G04 APERTURE END LIST*
D10*
%TO.C,U1*%
G36*
X85376500Y-64824500D02*
G01*
X83925500Y-64824500D01*
X83925500Y-63373500D01*
X85376500Y-63373500D01*
X85376500Y-64824500D01*
G37*
G36*
X83725500Y-64824500D02*
G01*
X82274500Y-64824500D01*
X82274500Y-63373500D01*
X83725500Y-63373500D01*
X83725500Y-64824500D01*
G37*
G36*
X82074500Y-64824500D02*
G01*
X80623500Y-64824500D01*
X80623500Y-63373500D01*
X82074500Y-63373500D01*
X82074500Y-64824500D01*
G37*
G36*
X85376500Y-66475500D02*
G01*
X83925500Y-66475500D01*
X83925500Y-65024500D01*
X85376500Y-65024500D01*
X85376500Y-66475500D01*
G37*
G36*
X83725500Y-66475500D02*
G01*
X82274500Y-66475500D01*
X82274500Y-65024500D01*
X83725500Y-65024500D01*
X83725500Y-66475500D01*
G37*
G36*
X82074500Y-66475500D02*
G01*
X80623500Y-66475500D01*
X80623500Y-65024500D01*
X82074500Y-65024500D01*
X82074500Y-66475500D01*
G37*
G36*
X85376500Y-68126500D02*
G01*
X83925500Y-68126500D01*
X83925500Y-66675500D01*
X85376500Y-66675500D01*
X85376500Y-68126500D01*
G37*
G36*
X83725500Y-68126500D02*
G01*
X82274500Y-68126500D01*
X82274500Y-66675500D01*
X83725500Y-66675500D01*
X83725500Y-68126500D01*
G37*
G36*
X82074500Y-68126500D02*
G01*
X80623500Y-68126500D01*
X80623500Y-66675500D01*
X82074500Y-66675500D01*
X82074500Y-68126500D01*
G37*
%TD*%
D11*
%TO.C,U1*%
X86250000Y-64500000D03*
X86250000Y-65000000D03*
X86250000Y-65500000D03*
X86250000Y-66000000D03*
X86250000Y-66500000D03*
X86250000Y-67000000D03*
X86250000Y-67500000D03*
X86250000Y-68000000D03*
X86250000Y-68500000D03*
X85750000Y-62500000D03*
X85750000Y-63250000D03*
X85750000Y-63750000D03*
X85750000Y-64250000D03*
X85750000Y-64750000D03*
X85750000Y-65250000D03*
X85750000Y-65750000D03*
X85750000Y-66250000D03*
X85750000Y-66750000D03*
X85750000Y-67250000D03*
X85750000Y-69000000D03*
X85250000Y-62500000D03*
X85000000Y-63000000D03*
X85000000Y-68500000D03*
X84750000Y-69000000D03*
X84500000Y-63000000D03*
X84500000Y-68500000D03*
X84250000Y-62500000D03*
X84000000Y-63000000D03*
X84000000Y-68500000D03*
X83750000Y-62500000D03*
X83750000Y-69000000D03*
X83500000Y-63000000D03*
X83250000Y-62500000D03*
X83250000Y-69000000D03*
X83000000Y-63000000D03*
X82750000Y-62500000D03*
X82750000Y-69000000D03*
X82500000Y-63000000D03*
X82500000Y-68500000D03*
X82250000Y-62500000D03*
X82250000Y-69000000D03*
X82000000Y-63000000D03*
X82000000Y-68500000D03*
X81750000Y-62500000D03*
X81750000Y-69000000D03*
X81500000Y-68500000D03*
X81250000Y-62500000D03*
X81250000Y-69000000D03*
X81000000Y-63000000D03*
X81000000Y-68500000D03*
X80750000Y-69000000D03*
X80500000Y-63000000D03*
X80250000Y-63750000D03*
X80250000Y-64750000D03*
X80250000Y-65250000D03*
X80250000Y-65750000D03*
X80250000Y-66250000D03*
X80250000Y-66750000D03*
X80250000Y-67250000D03*
X80250000Y-67750000D03*
X80250000Y-69000000D03*
X79750000Y-63000000D03*
X79750000Y-63500000D03*
X79750000Y-64000000D03*
X79750000Y-64500000D03*
X79750000Y-65000000D03*
X79750000Y-65500000D03*
X79750000Y-66000000D03*
X79750000Y-66500000D03*
X79750000Y-67000000D03*
X79750000Y-67500000D03*
X79750000Y-68000000D03*
X79750000Y-68500000D03*
%TD*%
D12*
%TO.C,C11*%
X89520000Y-69000000D03*
X90480000Y-69000000D03*
%TD*%
D13*
%TO.C,C12*%
X90480000Y-73000000D03*
X89520000Y-73000000D03*
%TD*%
D14*
%TO.C,C21*%
X79025000Y-56500000D03*
X77475000Y-56500000D03*
%TD*%
D15*
%TO.C,R4*%
X91520000Y-52500000D03*
X90500000Y-52500000D03*
%TD*%
D12*
%TO.C,C18*%
X77270000Y-66000000D03*
X78230000Y-66000000D03*
%TD*%
D16*
%TO.C,C2*%
X85000000Y-59505000D03*
X85000000Y-58545000D03*
%TD*%
D17*
%TO.C,L3*%
X84000000Y-71765000D03*
X84000000Y-72735000D03*
%TD*%
D18*
%TO.C,D2*%
X89312500Y-47000000D03*
X91187500Y-47000000D03*
%TD*%
D19*
%TO.C,U2*%
X86350000Y-52800000D03*
X87150000Y-52800000D03*
X86350000Y-52000000D03*
X87150000Y-52000000D03*
D20*
X86000000Y-53837500D03*
X86500000Y-53837500D03*
X87000000Y-53837500D03*
X87500000Y-53837500D03*
D21*
X88187500Y-53150000D03*
X88187500Y-52650000D03*
X88187500Y-52150000D03*
X88187500Y-51650000D03*
D20*
X87500000Y-50962500D03*
X87000000Y-50962500D03*
X86500000Y-50962500D03*
X86000000Y-50962500D03*
D21*
X85312500Y-51650000D03*
X85312500Y-52150000D03*
X85312500Y-52650000D03*
X85312500Y-53150000D03*
%TD*%
D16*
%TO.C,C4*%
X81000000Y-59980000D03*
X81000000Y-59020000D03*
%TD*%
D14*
%TO.C,C20*%
X79025000Y-58000000D03*
X77475000Y-58000000D03*
%TD*%
%TO.C,C19*%
X77525000Y-62500000D03*
X75975000Y-62500000D03*
%TD*%
D22*
%TO.C,C25*%
X80250000Y-54025000D03*
X80250000Y-52475000D03*
%TD*%
D17*
%TO.C,L4*%
X84000000Y-74765000D03*
X84000000Y-75735000D03*
%TD*%
D12*
%TO.C,C3*%
X82290000Y-56250000D03*
X83250000Y-56250000D03*
%TD*%
D16*
%TO.C,C9*%
X88500000Y-64230000D03*
X88500000Y-63270000D03*
%TD*%
D23*
%TO.C,R1*%
X85652500Y-75750000D03*
X86847500Y-75750000D03*
%TD*%
D24*
%TO.C,L1*%
X88712500Y-61500000D03*
X90287500Y-61500000D03*
%TD*%
D25*
%TO.C,D3*%
X76687500Y-44750000D03*
X74812500Y-44750000D03*
%TD*%
D16*
%TO.C,C13*%
X87250000Y-72230000D03*
X87250000Y-71270000D03*
%TD*%
D26*
%TO.C,R12*%
X76010000Y-43250000D03*
X77030000Y-43250000D03*
%TD*%
D27*
%TO.C,C26*%
X77725000Y-49750000D03*
X79275000Y-49750000D03*
%TD*%
D15*
%TO.C,R10*%
X83510000Y-50600000D03*
X82490000Y-50600000D03*
%TD*%
D12*
%TO.C,C22*%
X83020000Y-51800000D03*
X83980000Y-51800000D03*
%TD*%
D17*
%TO.C,L2*%
X91537500Y-61265000D03*
X91537500Y-62235000D03*
%TD*%
D13*
%TO.C,C15*%
X84995000Y-70750000D03*
X84035000Y-70750000D03*
%TD*%
D14*
%TO.C,C5*%
X77525000Y-61000000D03*
X75975000Y-61000000D03*
%TD*%
D27*
%TO.C,C24*%
X87450000Y-55264411D03*
X89000000Y-55264411D03*
%TD*%
D28*
%TO.C,C7*%
X86250000Y-58000000D03*
X86250000Y-59550000D03*
%TD*%
D15*
%TO.C,R5*%
X91500000Y-51250000D03*
X90480000Y-51250000D03*
%TD*%
D29*
%TO.C,J1*%
X86200000Y-46555000D03*
X85400000Y-46555000D03*
D30*
X84250000Y-46555000D03*
X83250000Y-46555000D03*
X82750000Y-46555000D03*
X81750000Y-46555000D03*
D29*
X80600000Y-46555000D03*
X79800000Y-46555000D03*
X79800000Y-46555000D03*
X80600000Y-46555000D03*
D30*
X81250000Y-46555000D03*
X82250000Y-46555000D03*
X83750000Y-46555000D03*
X84750000Y-46555000D03*
D29*
X85400000Y-46555000D03*
X86200000Y-46555000D03*
D31*
X87320000Y-45980000D03*
D32*
X87320000Y-41800000D03*
D31*
X78680000Y-45980000D03*
D32*
X78680000Y-41800000D03*
%TD*%
D15*
%TO.C,R2*%
X83260000Y-52800000D03*
X82240000Y-52800000D03*
%TD*%
D33*
%TO.C,R8*%
X81500000Y-48240000D03*
X81500000Y-49260000D03*
%TD*%
D34*
%TO.C,Y2*%
X90550000Y-71700000D03*
X90550000Y-70300000D03*
X89450000Y-70300000D03*
X89450000Y-71700000D03*
%TD*%
D12*
%TO.C,C10*%
X89480036Y-67208385D03*
X90440036Y-67208385D03*
%TD*%
%TO.C,C27*%
X76040000Y-42000000D03*
X77000000Y-42000000D03*
%TD*%
D15*
%TO.C,R3*%
X85260000Y-55000000D03*
X84240000Y-55000000D03*
%TD*%
D13*
%TO.C,C16*%
X84980000Y-73750000D03*
X84020000Y-73750000D03*
%TD*%
D15*
%TO.C,R11*%
X84010000Y-53800000D03*
X82990000Y-53800000D03*
%TD*%
D26*
%TO.C,R7*%
X84240000Y-48750000D03*
X85260000Y-48750000D03*
%TD*%
D13*
%TO.C,C1*%
X78230000Y-69000000D03*
X77270000Y-69000000D03*
%TD*%
D35*
%TO.C,R6*%
X76500000Y-50260000D03*
X76500000Y-49240000D03*
%TD*%
D12*
%TO.C,C14*%
X85270000Y-72000000D03*
X86230000Y-72000000D03*
%TD*%
D36*
%TO.C,C17*%
X81000000Y-71770000D03*
X81000000Y-72730000D03*
%TD*%
D37*
%TO.C,R9*%
X76325000Y-46500000D03*
X74675000Y-46500000D03*
%TD*%
D16*
%TO.C,C6*%
X87750000Y-69230000D03*
X87750000Y-68270000D03*
%TD*%
D38*
%TO.C,Y1*%
X82750000Y-60000000D03*
X82750000Y-57500000D03*
%TD*%
D39*
%TO.C,U3*%
X78700000Y-51612500D03*
X77750000Y-51612500D03*
X76800000Y-51612500D03*
X76800000Y-53887500D03*
X78700000Y-53887500D03*
%TD*%
D40*
%TO.C,L5*%
X79037500Y-59500000D03*
X77462500Y-59500000D03*
%TD*%
D18*
%TO.C,D1*%
X89312500Y-44750000D03*
X91187500Y-44750000D03*
%TD*%
D22*
%TO.C,C8*%
X89750000Y-64525000D03*
X89750000Y-62975000D03*
%TD*%
D14*
%TO.C,C23*%
X88025000Y-49000000D03*
X86475000Y-49000000D03*
%TD*%
M02*
