%TF.GenerationSoftware,KiCad,Pcbnew,9.0.6*%
%TF.CreationDate,2026-03-10T21:41:48+01:00*%
%TF.ProjectId,Slim Keyboard,536c696d-204b-4657-9962-6f6172642e6b,rev?*%
%TF.SameCoordinates,Original*%
%TF.FileFunction,Copper,L1,Top*%
%TF.FilePolarity,Positive*%
%FSLAX46Y46*%
G04 Gerber Fmt 4.6, Leading zero omitted, Abs format (unit mm)*
G04 Created by KiCad (PCBNEW 9.0.6) date 2026-03-10 21:41:48*
%MOMM*%
%LPD*%
G01*
G04 APERTURE LIST*
G04 Aperture macros list*
%AMRoundRect*
0 Rectangle with rounded corners*
0 $1 Rounding radius*
0 $2 $3 $4 $5 $6 $7 $8 $9 X,Y pos of 4 corners*
0 Add a 4 corners polygon primitive as box body*
4,1,4,$2,$3,$4,$5,$6,$7,$8,$9,$2,$3,0*
0 Add four circle primitives for the rounded corners*
1,1,$1+$1,$2,$3*
1,1,$1+$1,$4,$5*
1,1,$1+$1,$6,$7*
1,1,$1+$1,$8,$9*
0 Add four rect primitives between the rounded corners*
20,1,$1+$1,$2,$3,$4,$5,0*
20,1,$1+$1,$4,$5,$6,$7,0*
20,1,$1+$1,$6,$7,$8,$9,0*
20,1,$1+$1,$8,$9,$2,$3,0*%
G04 Aperture macros list end*
%TA.AperFunction,SMDPad,CuDef*%
%ADD10R,0.900000X4.900000*%
%TD*%
%TA.AperFunction,SMDPad,CuDef*%
%ADD11R,5.000000X0.500000*%
%TD*%
%TA.AperFunction,SMDPad,CuDef*%
%ADD12R,0.500000X4.900000*%
%TD*%
%TA.AperFunction,SMDPad,CuDef*%
%ADD13R,0.500000X2.640000*%
%TD*%
%TA.AperFunction,SMDPad,CuDef*%
%ADD14R,2.000000X0.500000*%
%TD*%
%TA.AperFunction,SMDPad,CuDef*%
%ADD15R,2.700000X0.500000*%
%TD*%
%TA.AperFunction,SMDPad,CuDef*%
%ADD16R,0.500000X3.940000*%
%TD*%
%TA.AperFunction,ComponentPad*%
%ADD17R,0.900000X0.500000*%
%TD*%
%TA.AperFunction,SMDPad,CuDef*%
%ADD18C,0.254000*%
%TD*%
%TA.AperFunction,SMDPad,CuDef*%
%ADD19R,4.953000X4.953000*%
%TD*%
%TA.AperFunction,SMDPad,CuDef*%
%ADD20RoundRect,0.140000X-0.140000X-0.170000X0.140000X-0.170000X0.140000X0.170000X-0.140000X0.170000X0*%
%TD*%
%TA.AperFunction,SMDPad,CuDef*%
%ADD21RoundRect,0.140000X0.140000X0.170000X-0.140000X0.170000X-0.140000X-0.170000X0.140000X-0.170000X0*%
%TD*%
%TA.AperFunction,SMDPad,CuDef*%
%ADD22RoundRect,0.225000X0.225000X0.250000X-0.225000X0.250000X-0.225000X-0.250000X0.225000X-0.250000X0*%
%TD*%
%TA.AperFunction,SMDPad,CuDef*%
%ADD23RoundRect,0.135000X0.135000X0.185000X-0.135000X0.185000X-0.135000X-0.185000X0.135000X-0.185000X0*%
%TD*%
%TA.AperFunction,SMDPad,CuDef*%
%ADD24RoundRect,0.140000X0.170000X-0.140000X0.170000X0.140000X-0.170000X0.140000X-0.170000X-0.140000X0*%
%TD*%
%TA.AperFunction,SMDPad,CuDef*%
%ADD25RoundRect,0.147500X-0.172500X0.147500X-0.172500X-0.147500X0.172500X-0.147500X0.172500X0.147500X0*%
%TD*%
%TA.AperFunction,SMDPad,CuDef*%
%ADD26RoundRect,0.243750X-0.243750X-0.456250X0.243750X-0.456250X0.243750X0.456250X-0.243750X0.456250X0*%
%TD*%
%TA.AperFunction,SMDPad,CuDef*%
%ADD27RoundRect,0.062500X0.062500X-0.375000X0.062500X0.375000X-0.062500X0.375000X-0.062500X-0.375000X0*%
%TD*%
%TA.AperFunction,SMDPad,CuDef*%
%ADD28RoundRect,0.062500X0.375000X-0.062500X0.375000X0.062500X-0.375000X0.062500X-0.375000X-0.062500X0*%
%TD*%
%TA.AperFunction,HeatsinkPad*%
%ADD29R,1.600000X1.600000*%
%TD*%
%TA.AperFunction,SMDPad,CuDef*%
%ADD30RoundRect,0.225000X0.250000X-0.225000X0.250000X0.225000X-0.250000X0.225000X-0.250000X-0.225000X0*%
%TD*%
%TA.AperFunction,SMDPad,CuDef*%
%ADD31C,1.500000*%
%TD*%
%TA.AperFunction,SMDPad,CuDef*%
%ADD32RoundRect,0.160000X-0.197500X-0.160000X0.197500X-0.160000X0.197500X0.160000X-0.197500X0.160000X0*%
%TD*%
%TA.AperFunction,SMDPad,CuDef*%
%ADD33RoundRect,0.218750X-0.218750X-0.256250X0.218750X-0.256250X0.218750X0.256250X-0.218750X0.256250X0*%
%TD*%
%TA.AperFunction,ComponentPad*%
%ADD34R,1.700000X1.700000*%
%TD*%
%TA.AperFunction,ComponentPad*%
%ADD35C,1.700000*%
%TD*%
%TA.AperFunction,SMDPad,CuDef*%
%ADD36RoundRect,0.243750X0.243750X0.456250X-0.243750X0.456250X-0.243750X-0.456250X0.243750X-0.456250X0*%
%TD*%
%TA.AperFunction,SMDPad,CuDef*%
%ADD37RoundRect,0.135000X-0.135000X-0.185000X0.135000X-0.185000X0.135000X0.185000X-0.135000X0.185000X0*%
%TD*%
%TA.AperFunction,SMDPad,CuDef*%
%ADD38RoundRect,0.225000X-0.225000X-0.250000X0.225000X-0.250000X0.225000X0.250000X-0.225000X0.250000X0*%
%TD*%
%TA.AperFunction,SMDPad,CuDef*%
%ADD39RoundRect,0.225000X-0.250000X0.225000X-0.250000X-0.225000X0.250000X-0.225000X0.250000X0.225000X0*%
%TD*%
%TA.AperFunction,SMDPad,CuDef*%
%ADD40RoundRect,0.150000X0.150000X0.425000X-0.150000X0.425000X-0.150000X-0.425000X0.150000X-0.425000X0*%
%TD*%
%TA.AperFunction,SMDPad,CuDef*%
%ADD41RoundRect,0.075000X0.075000X0.500000X-0.075000X0.500000X-0.075000X-0.500000X0.075000X-0.500000X0*%
%TD*%
%TA.AperFunction,HeatsinkPad*%
%ADD42O,1.000000X2.100000*%
%TD*%
%TA.AperFunction,HeatsinkPad*%
%ADD43O,1.000000X1.800000*%
%TD*%
%TA.AperFunction,SMDPad,CuDef*%
%ADD44RoundRect,0.135000X-0.185000X0.135000X-0.185000X-0.135000X0.185000X-0.135000X0.185000X0.135000X0*%
%TD*%
%TA.AperFunction,SMDPad,CuDef*%
%ADD45RoundRect,0.200000X0.200000X-0.250000X0.200000X0.250000X-0.200000X0.250000X-0.200000X-0.250000X0*%
%TD*%
%TA.AperFunction,SMDPad,CuDef*%
%ADD46RoundRect,0.135000X0.185000X-0.135000X0.185000X0.135000X-0.185000X0.135000X-0.185000X-0.135000X0*%
%TD*%
%TA.AperFunction,SMDPad,CuDef*%
%ADD47RoundRect,0.140000X-0.170000X0.140000X-0.170000X-0.140000X0.170000X-0.140000X0.170000X0.140000X0*%
%TD*%
%TA.AperFunction,SMDPad,CuDef*%
%ADD48RoundRect,0.200000X0.200000X0.275000X-0.200000X0.275000X-0.200000X-0.275000X0.200000X-0.275000X0*%
%TD*%
%TA.AperFunction,SMDPad,CuDef*%
%ADD49R,1.800000X1.000000*%
%TD*%
%TA.AperFunction,SMDPad,CuDef*%
%ADD50RoundRect,0.150000X-0.150000X0.512500X-0.150000X-0.512500X0.150000X-0.512500X0.150000X0.512500X0*%
%TD*%
%TA.AperFunction,SMDPad,CuDef*%
%ADD51RoundRect,0.218750X0.218750X0.256250X-0.218750X0.256250X-0.218750X-0.256250X0.218750X-0.256250X0*%
%TD*%
%TA.AperFunction,ViaPad*%
%ADD52C,0.600000*%
%TD*%
%TA.AperFunction,Conductor*%
%ADD53C,0.650000*%
%TD*%
%TA.AperFunction,Conductor*%
%ADD54C,0.400000*%
%TD*%
%TA.AperFunction,Conductor*%
%ADD55C,0.150000*%
%TD*%
%TA.AperFunction,Conductor*%
%ADD56C,0.300000*%
%TD*%
%TA.AperFunction,Conductor*%
%ADD57C,0.200000*%
%TD*%
%TA.AperFunction,Conductor*%
%ADD58C,0.250000*%
%TD*%
%TA.AperFunction,Conductor*%
%ADD59C,0.100000*%
%TD*%
G04 APERTURE END LIST*
D10*
%TO.P,AE1,1,A*%
%TO.N,Net-(AE1-A)*%
X90500000Y-78950000D03*
D11*
X88450000Y-81650000D03*
D12*
X88400000Y-78950000D03*
D13*
X86200000Y-80080000D03*
D14*
X84950000Y-79010000D03*
D13*
X83700000Y-80080000D03*
D15*
X82600000Y-81650000D03*
D13*
X81500000Y-80080000D03*
D14*
X80250000Y-79010000D03*
D13*
X79000000Y-80080000D03*
D15*
X77900000Y-81650000D03*
D16*
X76300000Y-79930000D03*
D17*
%TO.P,AE1,2,Shield*%
%TO.N,GND*%
X90500000Y-76750000D03*
%TD*%
D18*
%TO.P,U1,A8,P0.31/AIN7*%
%TO.N,PL14*%
X86250000Y-64500000D03*
%TO.P,U1,A10,P0.29/AIN5*%
%TO.N,PL13*%
X86250000Y-65000000D03*
%TO.P,U1,A12,P0.02/AIN0*%
%TO.N,PL12*%
X86250000Y-65500000D03*
%TO.P,U1,A14,P1.15*%
%TO.N,PL11*%
X86250000Y-66000000D03*
%TO.P,U1,A16,P1.13*%
%TO.N,PL10*%
X86250000Y-66500000D03*
%TO.P,U1,A18,DEC2*%
%TO.N,Net-(U1-DEC2)*%
X86250000Y-67000000D03*
%TO.P,U1,A20,P1.10*%
%TO.N,PH9*%
X86250000Y-67500000D03*
%TO.P,U1,A22,VDD*%
%TO.N,VDD_NRF*%
X86250000Y-68000000D03*
%TO.P,U1,A23,XC2*%
%TO.N,Net-(U1-XC2)*%
X86250000Y-68500000D03*
%TO.P,U1,B1,VDD*%
%TO.N,VDD_NRF*%
X85750000Y-62500000D03*
%TO.P,U1,B3,DCC*%
%TO.N,Net-(U1-DCC)*%
X85750000Y-63250000D03*
%TO.P,U1,B5,DEC4*%
%TO.N,Net-(U1-DEC4)*%
X85750000Y-63750000D03*
%TO.P,U1,B7,VSS*%
%TO.N,GND*%
X85750000Y-64250000D03*
%TO.P,U1,B9,P0.30/AIN6*%
%TO.N,unconnected-(U1-P0.30{slash}AIN6-PadB9)*%
X85750000Y-64750000D03*
%TO.P,U1,B11,P0.28/AIN4*%
%TO.N,unconnected-(U1-P0.28{slash}AIN4-PadB11)*%
X85750000Y-65250000D03*
%TO.P,U1,B13,P0.03/AIN1*%
%TO.N,unconnected-(U1-P0.03{slash}AIN1-PadB13)*%
X85750000Y-65750000D03*
%TO.P,U1,B15,P1.14*%
%TO.N,unconnected-(U1-P1.14-PadB15)*%
X85750000Y-66250000D03*
%TO.P,U1,B17,P1.12*%
%TO.N,unconnected-(U1-P1.12-PadB17)*%
X85750000Y-66750000D03*
%TO.P,U1,B19,P1.11*%
%TO.N,unconnected-(U1-P1.11-PadB19)*%
X85750000Y-67250000D03*
%TO.P,U1,B24,XC1*%
%TO.N,Net-(U1-XC1)*%
X85750000Y-69000000D03*
%TO.P,U1,C1,DEC1*%
%TO.N,Net-(U1-DEC1)*%
X85250000Y-62500000D03*
%TO.P,U1,D2,P0.00/XL1*%
%TO.N,Net-(U1-P0.00{slash}XL1)*%
X85000000Y-63000000D03*
%TO.P,U1,D23,DEC3*%
%TO.N,Net-(U1-DEC3)*%
X85000000Y-68500000D03*
%TO.P,U1,E24,DEC6*%
%TO.N,Net-(U1-DEC4)*%
X84750000Y-69000000D03*
%TO.P,U1,F2,P0.01/XL2*%
%TO.N,Net-(U1-P0.01{slash}XL2)*%
X84500000Y-63000000D03*
%TO.P,U1,F23,VSS_PA*%
%TO.N,GND*%
X84500000Y-68500000D03*
%TO.P,U1,G1,P0.26*%
%TO.N,unconnected-(U1-P0.26-PadG1)*%
X84250000Y-62500000D03*
%TO.P,U1,H2,P0.27*%
%TO.N,unconnected-(U1-P0.27-PadH2)*%
X84000000Y-63000000D03*
%TO.P,U1,H23,ANT*%
%TO.N,Net-(U1-ANT)*%
X84000000Y-68500000D03*
%TO.P,U1,J1,P0.04/AIN2*%
%TO.N,PL15*%
X83750000Y-62500000D03*
%TO.P,U1,J24,P0.10/NFC2*%
%TO.N,unconnected-(U1-P0.10{slash}NFC2-PadJ24)*%
X83750000Y-69000000D03*
%TO.P,U1,K2,P0.05/AIN3*%
%TO.N,unconnected-(U1-P0.05{slash}AIN3-PadK2)*%
X83500000Y-63000000D03*
%TO.P,U1,L1,P0.06*%
%TO.N,unconnected-(U1-P0.06-PadL1)*%
X83250000Y-62500000D03*
%TO.P,U1,L24,P0.09/NFC1*%
%TO.N,unconnected-(U1-P0.09{slash}NFC1-PadL24)*%
X83250000Y-69000000D03*
%TO.P,U1,M2,P0.07*%
%TO.N,unconnected-(U1-P0.07-PadM2)*%
X83000000Y-63000000D03*
%TO.P,U1,N1,P0.08*%
%TO.N,PL16*%
X82750000Y-62500000D03*
%TO.P,U1,N24,DEC5*%
%TO.N,Net-(U1-DEC5)*%
X82750000Y-69000000D03*
%TO.P,U1,P2,P1.08*%
%TO.N,unconnected-(U1-P1.08-PadP2)*%
X82500000Y-63000000D03*
%TO.P,U1,P23,P1.07*%
%TO.N,unconnected-(U1-P1.07-PadP23)*%
X82500000Y-68500000D03*
%TO.P,U1,R1,P1.09*%
%TO.N,unconnected-(U1-P1.09-PadR1)*%
X82250000Y-62500000D03*
%TO.P,U1,R24,P1.06*%
%TO.N,PH8*%
X82250000Y-69000000D03*
%TO.P,U1,T2,P0.11*%
%TO.N,unconnected-(U1-P0.11-PadT2)*%
X82000000Y-63000000D03*
%TO.P,U1,T23,P1.05*%
%TO.N,unconnected-(U1-P1.05-PadT23)*%
X82000000Y-68500000D03*
%TO.P,U1,U1,P0.12*%
%TO.N,PL17*%
X81750000Y-62500000D03*
%TO.P,U1,U24,P1.04*%
%TO.N,PH7*%
X81750000Y-69000000D03*
%TO.P,U1,V23,P1.03*%
%TO.N,unconnected-(U1-P1.03-PadV23)*%
X81500000Y-68500000D03*
%TO.P,U1,W1,VDD*%
%TO.N,VDD_NRF*%
X81250000Y-62500000D03*
%TO.P,U1,W24,P1.02*%
%TO.N,PH6*%
X81250000Y-69000000D03*
%TO.P,U1,Y2,VDDH*%
%TO.N,VDDH*%
X81000000Y-63000000D03*
%TO.P,U1,Y23,P1.01*%
%TO.N,unconnected-(U1-P1.01-PadY23)*%
X81000000Y-68500000D03*
%TO.P,U1,AA24,SWDCLK*%
%TO.N,SWC*%
X80750000Y-69000000D03*
%TO.P,U1,AB2,DCCH*%
%TO.N,Net-(U1-DCCH)*%
X80500000Y-63000000D03*
%TO.P,U1,AC5,DECUSB*%
%TO.N,Net-(U1-DECUSB)*%
X80250000Y-63750000D03*
%TO.P,U1,AC9,P0.14*%
%TO.N,unconnected-(U1-P0.14-PadAC9)*%
X80250000Y-64750000D03*
%TO.P,U1,AC11,P0.16*%
%TO.N,unconnected-(U1-P0.16-PadAC11)*%
X80250000Y-65250000D03*
%TO.P,U1,AC13,P0.18/NRESET*%
%TO.N,unconnected-(U1-P0.18{slash}NRESET-PadAC13)*%
X80250000Y-65750000D03*
%TO.P,U1,AC15,P0.19*%
%TO.N,unconnected-(U1-P0.19-PadAC15)*%
X80250000Y-66250000D03*
%TO.P,U1,AC17,P0.21*%
%TO.N,unconnected-(U1-P0.21-PadAC17)*%
X80250000Y-66750000D03*
%TO.P,U1,AC19,P0.23*%
%TO.N,unconnected-(U1-P0.23-PadAC19)*%
X80250000Y-67250000D03*
%TO.P,U1,AC21,P0.25*%
%TO.N,PH5*%
X80250000Y-67750000D03*
%TO.P,U1,AC24,SWDIO*%
%TO.N,SWD*%
X80250000Y-69000000D03*
%TO.P,U1,AD2,VBUS*%
%TO.N,VBUS*%
X79750000Y-63000000D03*
%TO.P,U1,AD4,D-*%
%TO.N,D-*%
X79750000Y-63500000D03*
%TO.P,U1,AD6,D+*%
%TO.N,D+*%
X79750000Y-64000000D03*
%TO.P,U1,AD8,P0.13*%
%TO.N,POWER_PIN*%
X79750000Y-64500000D03*
%TO.P,U1,AD10,P0.15*%
%TO.N,BLED*%
X79750000Y-65000000D03*
%TO.P,U1,AD12,P0.17*%
%TO.N,PH0*%
X79750000Y-65500000D03*
%TO.P,U1,AD14,VDD*%
%TO.N,VDD_NRF*%
X79750000Y-66000000D03*
%TO.P,U1,AD16,P0.20*%
%TO.N,PH1*%
X79750000Y-66500000D03*
%TO.P,U1,AD18,P0.22*%
%TO.N,PH2*%
X79750000Y-67000000D03*
%TO.P,U1,AD20,P0.24*%
%TO.N,PH3*%
X79750000Y-67500000D03*
%TO.P,U1,AD22,P1.00*%
%TO.N,PH4*%
X79750000Y-68000000D03*
%TO.P,U1,AD23,VDD*%
%TO.N,VDD_NRF*%
X79750000Y-68500000D03*
D19*
%TO.P,U1,74,VSS*%
%TO.N,GND*%
X83000000Y-65750000D03*
%TD*%
D20*
%TO.P,C11,1*%
%TO.N,Net-(U1-XC2)*%
X89520000Y-69000000D03*
%TO.P,C11,2*%
%TO.N,GND*%
X90480000Y-69000000D03*
%TD*%
D21*
%TO.P,C12,1*%
%TO.N,Net-(U1-XC1)*%
X90480000Y-73000000D03*
%TO.P,C12,2*%
%TO.N,GND*%
X89520000Y-73000000D03*
%TD*%
D22*
%TO.P,C21,1*%
%TO.N,VDD_NRF*%
X79025000Y-56500000D03*
%TO.P,C21,2*%
%TO.N,GND*%
X77475000Y-56500000D03*
%TD*%
D23*
%TO.P,R4,1*%
%TO.N,Net-(D1-A)*%
X91520000Y-52500000D03*
%TO.P,R4,2*%
%TO.N,VDDH*%
X90500000Y-52500000D03*
%TD*%
D20*
%TO.P,C18,1*%
%TO.N,GND*%
X77270000Y-66000000D03*
%TO.P,C18,2*%
%TO.N,VDD_NRF*%
X78230000Y-66000000D03*
%TD*%
D24*
%TO.P,C2,1*%
%TO.N,Net-(U1-DEC1)*%
X85000000Y-59505000D03*
%TO.P,C2,2*%
%TO.N,GND*%
X85000000Y-58545000D03*
%TD*%
D25*
%TO.P,L3,1,1*%
%TO.N,Net-(U1-ANT)*%
X84000000Y-71765000D03*
%TO.P,L3,2,2*%
%TO.N,Net-(C16-Pad2)*%
X84000000Y-72735000D03*
%TD*%
D26*
%TO.P,D2,1,K*%
%TO.N,Net-(D2-K)*%
X89312500Y-47000000D03*
%TO.P,D2,2,A*%
%TO.N,Net-(D2-A)*%
X91187500Y-47000000D03*
%TD*%
D27*
%TO.P,U2,1,TS*%
%TO.N,Net-(U2-TS)*%
X86000000Y-53837500D03*
%TO.P,U2,2,BAT*%
%TO.N,VBAT*%
X86500000Y-53837500D03*
%TO.P,U2,3,BAT*%
X87000000Y-53837500D03*
%TO.P,U2,4,~{CE}*%
%TO.N,GND*%
X87500000Y-53837500D03*
D28*
%TO.P,U2,5,EN2*%
X88187500Y-53150000D03*
%TO.P,U2,6,EN1*%
%TO.N,VDDH*%
X88187500Y-52650000D03*
%TO.P,U2,7,~{PGOOD}*%
%TO.N,Net-(D2-K)*%
X88187500Y-52150000D03*
%TO.P,U2,8,VSS*%
%TO.N,GND*%
X88187500Y-51650000D03*
D27*
%TO.P,U2,9,~{CHG}*%
%TO.N,Net-(D1-K)*%
X87500000Y-50962500D03*
%TO.P,U2,10,OUT*%
%TO.N,VDDH*%
X87000000Y-50962500D03*
%TO.P,U2,11,OUT*%
X86500000Y-50962500D03*
%TO.P,U2,12,ILIM*%
%TO.N,Net-(U2-ILIM)*%
X86000000Y-50962500D03*
D28*
%TO.P,U2,13,IN*%
%TO.N,VBUS*%
X85312500Y-51650000D03*
%TO.P,U2,14,TMR*%
%TO.N,unconnected-(U2-TMR-Pad14)*%
X85312500Y-52150000D03*
%TO.P,U2,15,SYSOFF*%
%TO.N,SYSOFF_SWITCH*%
X85312500Y-52650000D03*
%TO.P,U2,16,ISET*%
%TO.N,Net-(U2-ISET)*%
X85312500Y-53150000D03*
D29*
%TO.P,U2,17,VSS*%
%TO.N,GND*%
X86750000Y-52400000D03*
%TD*%
D24*
%TO.P,C4,1*%
%TO.N,Net-(U1-P0.01{slash}XL2)*%
X81000000Y-59980000D03*
%TO.P,C4,2*%
%TO.N,GND*%
X81000000Y-59020000D03*
%TD*%
D22*
%TO.P,C20,1*%
%TO.N,VDDH*%
X79025000Y-58000000D03*
%TO.P,C20,2*%
%TO.N,GND*%
X77475000Y-58000000D03*
%TD*%
%TO.P,C19,1*%
%TO.N,VBUS*%
X77525000Y-62500000D03*
%TO.P,C19,2*%
%TO.N,GND*%
X75975000Y-62500000D03*
%TD*%
D30*
%TO.P,C25,1*%
%TO.N,EXT_VCC*%
X80250000Y-54025000D03*
%TO.P,C25,2*%
%TO.N,GND*%
X80250000Y-52475000D03*
%TD*%
D25*
%TO.P,L4,1,1*%
%TO.N,Net-(C16-Pad2)*%
X84000000Y-74765000D03*
%TO.P,L4,2,2*%
%TO.N,Net-(L4-Pad2)*%
X84000000Y-75735000D03*
%TD*%
D20*
%TO.P,C3,1*%
%TO.N,Net-(U1-P0.00{slash}XL1)*%
X82290000Y-56250000D03*
%TO.P,C3,2*%
%TO.N,GND*%
X83250000Y-56250000D03*
%TD*%
D24*
%TO.P,C9,1*%
%TO.N,GND*%
X88500000Y-64230000D03*
%TO.P,C9,2*%
%TO.N,Net-(U1-DEC4)*%
X88500000Y-63270000D03*
%TD*%
D31*
%TO.P,J3,1,Pin_1*%
%TO.N,SWC*%
X77750000Y-72000000D03*
%TD*%
D32*
%TO.P,R1,1*%
%TO.N,Net-(L4-Pad2)*%
X85652500Y-75750000D03*
%TO.P,R1,2*%
%TO.N,Net-(AE1-A)*%
X86847500Y-75750000D03*
%TD*%
D33*
%TO.P,L1,1,1*%
%TO.N,Net-(U1-DCC)*%
X88712500Y-61500000D03*
%TO.P,L1,2,2*%
%TO.N,Net-(L1-Pad2)*%
X90287500Y-61500000D03*
%TD*%
D34*
%TO.P,J7,1,GND*%
%TO.N,GND*%
X71770000Y-41980000D03*
D35*
%TO.P,J7,2,EXT_3.3V*%
%TO.N,EXT_VCC*%
X71770000Y-44520000D03*
%TO.P,J7,3,RESET*%
%TO.N,RESET*%
X71770000Y-47060000D03*
%TO.P,J7,4,GND*%
%TO.N,GND*%
X71770000Y-49600000D03*
%TO.P,J7,5,PH0*%
%TO.N,PH0*%
X71770000Y-52140000D03*
%TO.P,J7,6,PH1*%
%TO.N,PH1*%
X71770000Y-54680000D03*
%TO.P,J7,7,PH2*%
%TO.N,PH2*%
X71770000Y-57220000D03*
%TO.P,J7,8,PH3*%
%TO.N,PH3*%
X71770000Y-59760000D03*
%TO.P,J7,9,PH4*%
%TO.N,PH4*%
X71770000Y-62300000D03*
%TO.P,J7,10,PH5*%
%TO.N,PH5*%
X71770000Y-64840000D03*
%TO.P,J7,11,PH6*%
%TO.N,PH6*%
X71770000Y-67380000D03*
%TO.P,J7,12,PH7*%
%TO.N,PH7*%
X71770000Y-69920000D03*
%TO.P,J7,13,PH8*%
%TO.N,PH8*%
X71770000Y-72460000D03*
%TO.P,J7,14,x*%
%TO.N,unconnected-(J7-x-Pad14)*%
X71770000Y-75000000D03*
%TO.P,J7,15,x*%
%TO.N,unconnected-(J7-x-Pad15)*%
X94230000Y-75000000D03*
%TO.P,J7,16,PL09*%
%TO.N,PH9*%
X94230000Y-72460000D03*
%TO.P,J7,17,PL10*%
%TO.N,PL10*%
X94230000Y-69920000D03*
%TO.P,J7,18,PL11*%
%TO.N,PL11*%
X94230000Y-67380000D03*
%TO.P,J7,19,PL12*%
%TO.N,PL12*%
X94230000Y-64840000D03*
%TO.P,J7,20,PL13*%
%TO.N,PL13*%
X94230000Y-62300000D03*
%TO.P,J7,21,PL14*%
%TO.N,PL14*%
X94230000Y-59760000D03*
%TO.P,J7,22,PL15*%
%TO.N,PL15*%
X94230000Y-57220000D03*
%TO.P,J7,23,PL16*%
%TO.N,PL16*%
X94230000Y-54680000D03*
%TO.P,J7,24,PL17*%
%TO.N,PL17*%
X94230000Y-52140000D03*
%TO.P,J7,25,GND*%
%TO.N,GND*%
X94230000Y-49600000D03*
%TO.P,J7,26,SYS_OFF*%
%TO.N,SYSOFF_SWITCH*%
X94230000Y-47060000D03*
%TO.P,J7,27,INT_VDDH*%
%TO.N,VDDH*%
X94230000Y-44520000D03*
%TO.P,J7,28,GND*%
%TO.N,GND*%
X94230000Y-41980000D03*
%TD*%
D36*
%TO.P,D3,1,K*%
%TO.N,Net-(D3-K)*%
X76687500Y-44750000D03*
%TO.P,D3,2,A*%
%TO.N,BLED*%
X74812500Y-44750000D03*
%TD*%
D24*
%TO.P,C13,1*%
%TO.N,GND*%
X87250000Y-72230000D03*
%TO.P,C13,2*%
%TO.N,Net-(U1-DEC3)*%
X87250000Y-71270000D03*
%TD*%
D37*
%TO.P,R12,1*%
%TO.N,GND*%
X76010000Y-43250000D03*
%TO.P,R12,2*%
%TO.N,Net-(J1-SHIELD)*%
X77030000Y-43250000D03*
%TD*%
D38*
%TO.P,C26,1*%
%TO.N,GND*%
X77725000Y-49750000D03*
%TO.P,C26,2*%
%TO.N,VDDH*%
X79275000Y-49750000D03*
%TD*%
D31*
%TO.P,J2,1,Pin_1*%
%TO.N,SWD*%
X75250000Y-72000000D03*
%TD*%
D23*
%TO.P,R10,1*%
%TO.N,Net-(U2-ILIM)*%
X83510000Y-50600000D03*
%TO.P,R10,2*%
%TO.N,GND*%
X82490000Y-50600000D03*
%TD*%
D20*
%TO.P,C22,1*%
%TO.N,GND*%
X83020000Y-51800000D03*
%TO.P,C22,2*%
%TO.N,VBUS*%
X83980000Y-51800000D03*
%TD*%
D25*
%TO.P,L2,1,1*%
%TO.N,Net-(L1-Pad2)*%
X91537500Y-61265000D03*
%TO.P,L2,2,2*%
%TO.N,Net-(U1-DEC4)*%
X91537500Y-62235000D03*
%TD*%
D21*
%TO.P,C15,1*%
%TO.N,GND*%
X84995000Y-70750000D03*
%TO.P,C15,2*%
%TO.N,Net-(U1-ANT)*%
X84035000Y-70750000D03*
%TD*%
D22*
%TO.P,C5,1*%
%TO.N,Net-(U1-DECUSB)*%
X77525000Y-61000000D03*
%TO.P,C5,2*%
%TO.N,GND*%
X75975000Y-61000000D03*
%TD*%
D38*
%TO.P,C24,1*%
%TO.N,VBAT*%
X87450000Y-55264411D03*
%TO.P,C24,2*%
%TO.N,GND*%
X89000000Y-55264411D03*
%TD*%
D39*
%TO.P,C7,1*%
%TO.N,GND*%
X86250000Y-58000000D03*
%TO.P,C7,2*%
%TO.N,VDD_NRF*%
X86250000Y-59550000D03*
%TD*%
D23*
%TO.P,R5,1*%
%TO.N,Net-(D2-A)*%
X91500000Y-51250000D03*
%TO.P,R5,2*%
%TO.N,VDDH*%
X90480000Y-51250000D03*
%TD*%
D40*
%TO.P,J1,A1,GND*%
%TO.N,GND*%
X86200000Y-46555000D03*
%TO.P,J1,A4,VBUS*%
%TO.N,VBUS*%
X85400000Y-46555000D03*
D41*
%TO.P,J1,A5,CC1*%
%TO.N,Net-(J1-CC1)*%
X84250000Y-46555000D03*
%TO.P,J1,A6,D+*%
%TO.N,D+*%
X83250000Y-46555000D03*
%TO.P,J1,A7,D-*%
%TO.N,D-*%
X82750000Y-46555000D03*
%TO.P,J1,A8,SBU1*%
%TO.N,unconnected-(J1-SBU1-PadA8)*%
X81750000Y-46555000D03*
D40*
%TO.P,J1,A9,VBUS*%
%TO.N,VBUS*%
X80600000Y-46555000D03*
%TO.P,J1,A12,GND*%
%TO.N,GND*%
X79800000Y-46555000D03*
%TO.P,J1,B1,GND*%
X79800000Y-46555000D03*
%TO.P,J1,B4,VBUS*%
%TO.N,VBUS*%
X80600000Y-46555000D03*
D41*
%TO.P,J1,B5,CC2*%
%TO.N,Net-(J1-CC2)*%
X81250000Y-46555000D03*
%TO.P,J1,B6,D+*%
%TO.N,D+*%
X82250000Y-46555000D03*
%TO.P,J1,B7,D-*%
%TO.N,D-*%
X83750000Y-46555000D03*
%TO.P,J1,B8,SBU2*%
%TO.N,unconnected-(J1-SBU2-PadB8)*%
X84750000Y-46555000D03*
D40*
%TO.P,J1,B9,VBUS*%
%TO.N,VBUS*%
X85400000Y-46555000D03*
%TO.P,J1,B12,GND*%
%TO.N,GND*%
X86200000Y-46555000D03*
D42*
%TO.P,J1,S1,SHIELD*%
%TO.N,Net-(J1-SHIELD)*%
X87320000Y-45980000D03*
D43*
X87320000Y-41800000D03*
D42*
X78680000Y-45980000D03*
D43*
X78680000Y-41800000D03*
%TD*%
D23*
%TO.P,R2,1*%
%TO.N,SYSOFF_SWITCH*%
X83260000Y-52800000D03*
%TO.P,R2,2*%
%TO.N,GND*%
X82240000Y-52800000D03*
%TD*%
D44*
%TO.P,R8,1*%
%TO.N,Net-(J1-CC2)*%
X81500000Y-48240000D03*
%TO.P,R8,2*%
%TO.N,GND*%
X81500000Y-49260000D03*
%TD*%
D45*
%TO.P,Y2,1,1*%
%TO.N,Net-(U1-XC1)*%
X90550000Y-71700000D03*
%TO.P,Y2,2,2*%
%TO.N,GND*%
X90550000Y-70300000D03*
%TO.P,Y2,3,3*%
%TO.N,Net-(U1-XC2)*%
X89450000Y-70300000D03*
%TO.P,Y2,4,4*%
%TO.N,GND*%
X89450000Y-71700000D03*
%TD*%
D20*
%TO.P,C10,1*%
%TO.N,Net-(U1-DEC2)*%
X89480036Y-67208385D03*
%TO.P,C10,2*%
%TO.N,GND*%
X90440036Y-67208385D03*
%TD*%
%TO.P,C27,1*%
%TO.N,GND*%
X76040000Y-42000000D03*
%TO.P,C27,2*%
%TO.N,Net-(J1-SHIELD)*%
X77000000Y-42000000D03*
%TD*%
D23*
%TO.P,R3,1*%
%TO.N,Net-(U2-TS)*%
X85260000Y-55000000D03*
%TO.P,R3,2*%
%TO.N,GND*%
X84240000Y-55000000D03*
%TD*%
D21*
%TO.P,C16,1*%
%TO.N,GND*%
X84980000Y-73750000D03*
%TO.P,C16,2*%
%TO.N,Net-(C16-Pad2)*%
X84020000Y-73750000D03*
%TD*%
D23*
%TO.P,R11,1*%
%TO.N,Net-(U2-ISET)*%
X84010000Y-53800000D03*
%TO.P,R11,2*%
%TO.N,GND*%
X82990000Y-53800000D03*
%TD*%
D37*
%TO.P,R7,1*%
%TO.N,Net-(J1-CC1)*%
X84240000Y-48750000D03*
%TO.P,R7,2*%
%TO.N,GND*%
X85260000Y-48750000D03*
%TD*%
D21*
%TO.P,C1,1*%
%TO.N,VDD_NRF*%
X78230000Y-69000000D03*
%TO.P,C1,2*%
%TO.N,GND*%
X77270000Y-69000000D03*
%TD*%
D46*
%TO.P,R6,1*%
%TO.N,POWER_PIN*%
X76500000Y-50260000D03*
%TO.P,R6,2*%
%TO.N,VDDH*%
X76500000Y-49240000D03*
%TD*%
D20*
%TO.P,C14,1*%
%TO.N,GND*%
X85270000Y-72000000D03*
%TO.P,C14,2*%
%TO.N,Net-(U1-DEC4)*%
X86230000Y-72000000D03*
%TD*%
D47*
%TO.P,C17,1*%
%TO.N,Net-(U1-DEC5)*%
X81000000Y-71770000D03*
%TO.P,C17,2*%
%TO.N,GND*%
X81000000Y-72730000D03*
%TD*%
D48*
%TO.P,R9,1*%
%TO.N,Net-(D3-K)*%
X76325000Y-46500000D03*
%TO.P,R9,2*%
%TO.N,GND*%
X74675000Y-46500000D03*
%TD*%
D24*
%TO.P,C6,1*%
%TO.N,GND*%
X87750000Y-69230000D03*
%TO.P,C6,2*%
%TO.N,VDD_NRF*%
X87750000Y-68270000D03*
%TD*%
D49*
%TO.P,Y1,1,1*%
%TO.N,Net-(U1-P0.01{slash}XL2)*%
X82750000Y-60000000D03*
%TO.P,Y1,2,2*%
%TO.N,Net-(U1-P0.00{slash}XL1)*%
X82750000Y-57500000D03*
%TD*%
D50*
%TO.P,U3,1,VIN*%
%TO.N,VDDH*%
X78700000Y-51612500D03*
%TO.P,U3,2,GND*%
%TO.N,GND*%
X77750000Y-51612500D03*
%TO.P,U3,3,CE*%
%TO.N,POWER_PIN*%
X76800000Y-51612500D03*
%TO.P,U3,4,NC*%
%TO.N,unconnected-(U3-NC-Pad4)*%
X76800000Y-53887500D03*
%TO.P,U3,5,VOUT*%
%TO.N,EXT_VCC*%
X78700000Y-53887500D03*
%TD*%
D51*
%TO.P,L5,1,1*%
%TO.N,Net-(U1-DCCH)*%
X79037500Y-59500000D03*
%TO.P,L5,2,2*%
%TO.N,VDD_NRF*%
X77462500Y-59500000D03*
%TD*%
D26*
%TO.P,D1,1,K*%
%TO.N,Net-(D1-K)*%
X89312500Y-44750000D03*
%TO.P,D1,2,A*%
%TO.N,Net-(D1-A)*%
X91187500Y-44750000D03*
%TD*%
D30*
%TO.P,C8,1*%
%TO.N,GND*%
X89750000Y-64525000D03*
%TO.P,C8,2*%
%TO.N,Net-(U1-DEC4)*%
X89750000Y-62975000D03*
%TD*%
D22*
%TO.P,C23,1*%
%TO.N,VDDH*%
X88025000Y-49000000D03*
%TO.P,C23,2*%
%TO.N,GND*%
X86475000Y-49000000D03*
%TD*%
D52*
%TO.N,GND*%
X82500000Y-72500000D03*
X82500000Y-74000000D03*
X82500000Y-75250000D03*
X82500000Y-70750000D03*
%TO.N,PL15*%
X83355815Y-61500000D03*
%TO.N,PL16*%
X82605815Y-61500000D03*
%TO.N,PL17*%
X81855815Y-61500000D03*
%TO.N,GND*%
X73436987Y-52274530D03*
X73500000Y-65500000D03*
X73250000Y-70750000D03*
X75500000Y-52500000D03*
X76500000Y-47750000D03*
X93250000Y-45750000D03*
X90249877Y-45881796D03*
%TO.N,VBAT*%
X81357742Y-43043096D03*
X85000000Y-45250000D03*
%TO.N,VDDH*%
X88000000Y-48000000D03*
%TO.N,VBAT*%
X86500000Y-55500000D03*
%TO.N,VBUS*%
X78339576Y-61906226D03*
%TO.N,GND*%
X78000000Y-74500000D03*
X80000000Y-40750000D03*
X84500000Y-40750000D03*
X91250000Y-40750000D03*
X92750000Y-52750000D03*
X92000000Y-57750000D03*
X89250000Y-60000000D03*
X75000000Y-42000000D03*
X75000000Y-43250000D03*
X79500000Y-48000000D03*
X77750000Y-54250000D03*
X80428900Y-56741540D03*
X82750000Y-58750000D03*
%TO.N,VDD_NRF*%
X87250000Y-59250000D03*
%TO.N,GND*%
X88622901Y-69236030D03*
X88250000Y-54000000D03*
X90000000Y-55250000D03*
X84250000Y-56000000D03*
X87250000Y-57000000D03*
X85000000Y-57500000D03*
X83250000Y-55000000D03*
X82185293Y-53750000D03*
X77048671Y-66894262D03*
%TO.N,VDD_NRF*%
X78082999Y-66894262D03*
%TO.N,GND*%
X70750000Y-76500000D03*
X74000000Y-76500000D03*
X76750000Y-76500000D03*
X79750000Y-76500000D03*
X82500000Y-76500000D03*
X84774167Y-76589380D03*
X86885658Y-76644654D03*
X95000000Y-76500000D03*
X91750000Y-76500000D03*
X89250000Y-76000000D03*
X87500000Y-74750000D03*
X85000000Y-74750000D03*
X87250000Y-73097909D03*
X88250000Y-71750000D03*
X89500000Y-73905977D03*
X91500000Y-70250000D03*
X91250000Y-68500000D03*
X91287589Y-67191722D03*
X90826551Y-64500000D03*
%TO.N,VDD_NRF*%
X88616863Y-68277949D03*
%TO.N,GND*%
X88693936Y-65000000D03*
%TO.N,VDD_NRF*%
X77807332Y-69815918D03*
%TO.N,GND*%
X73500000Y-47250000D03*
%TO.N,VDD_NRF*%
X78250000Y-55500000D03*
X76500000Y-59250000D03*
%TO.N,Net-(U1-DEC4)*%
X87500000Y-63270000D03*
%TO.N,GND*%
X76500000Y-66000000D03*
X85015000Y-72874640D03*
X77500000Y-50574273D03*
X89750000Y-49000000D03*
X76500000Y-56500000D03*
X85765000Y-73750000D03*
X76490000Y-69000000D03*
X76500000Y-58000000D03*
X75025000Y-61000000D03*
X88750000Y-51000000D03*
X81000000Y-73500000D03*
X82136809Y-51699009D03*
X80500000Y-51500000D03*
X86250000Y-48000000D03*
X75025000Y-62500000D03*
%TO.N,Net-(U1-DEC4)*%
X86265000Y-72500000D03*
%TO.N,VBUS*%
X84307625Y-51145593D03*
X85250000Y-47750000D03*
X80623263Y-48034289D03*
%TO.N,VDDH*%
X89000000Y-52652340D03*
%TO.N,EXT_VCC*%
X79471124Y-55000000D03*
%TO.N,D+*%
X82149000Y-47600000D03*
X83252192Y-47609934D03*
X78716278Y-64052472D03*
X82321222Y-49162803D03*
%TO.N,D-*%
X78716278Y-63158209D03*
X83226259Y-49173577D03*
%TO.N,SYSOFF_SWITCH*%
X84000000Y-52800000D03*
%TD*%
D53*
%TO.N,Net-(AE1-A)*%
X87831859Y-75750000D02*
X88400182Y-76318323D01*
X86847500Y-75750000D02*
X87831859Y-75750000D01*
%TO.N,Net-(L4-Pad2)*%
X84000000Y-75735000D02*
X85637500Y-75735000D01*
X85637500Y-75735000D02*
X85652500Y-75750000D01*
%TO.N,Net-(C16-Pad2)*%
X84000000Y-72735000D02*
X84000000Y-74765000D01*
D54*
%TO.N,Net-(U1-ANT)*%
X84035000Y-71730000D02*
X84000000Y-71765000D01*
X84035000Y-70750000D02*
X84035000Y-71730000D01*
D55*
%TO.N,PH9*%
X93000000Y-71230000D02*
X94230000Y-72460000D01*
X93000000Y-68500000D02*
X93000000Y-71230000D01*
X89010879Y-67500000D02*
X89278601Y-67767722D01*
X92267722Y-67767722D02*
X93000000Y-68500000D01*
X86250000Y-67500000D02*
X89010879Y-67500000D01*
X89278601Y-67767722D02*
X92267722Y-67767722D01*
D56*
%TO.N,VDD_NRF*%
X88487949Y-68277949D02*
X88480000Y-68270000D01*
X88616863Y-68277949D02*
X88487949Y-68277949D01*
X88480000Y-68270000D02*
X87750000Y-68270000D01*
D55*
%TO.N,PL10*%
X91490455Y-66580000D02*
X94230000Y-69319545D01*
X94230000Y-69319545D02*
X94230000Y-69920000D01*
X86330000Y-66580000D02*
X91490455Y-66580000D01*
X86250000Y-66500000D02*
X86330000Y-66580000D01*
%TO.N,PL11*%
X93179000Y-66329000D02*
X94230000Y-67380000D01*
X86579000Y-66329000D02*
X93179000Y-66329000D01*
X86250000Y-66000000D02*
X86579000Y-66329000D01*
%TO.N,PL12*%
X92992000Y-66078000D02*
X94230000Y-64840000D01*
X86250000Y-65500000D02*
X86828000Y-66078000D01*
X86828000Y-66078000D02*
X92992000Y-66078000D01*
%TO.N,PL13*%
X90703000Y-65827000D02*
X94230000Y-62300000D01*
X87500000Y-65000000D02*
X88327000Y-65827000D01*
X86250000Y-65000000D02*
X87500000Y-65000000D01*
X88327000Y-65827000D02*
X90703000Y-65827000D01*
%TO.N,PL14*%
X87379348Y-64500000D02*
X86250000Y-64500000D01*
X90565139Y-65576000D02*
X88455348Y-65576000D01*
X92250000Y-63891139D02*
X90565139Y-65576000D01*
X93490000Y-59760000D02*
X92250000Y-61000000D01*
X92250000Y-61000000D02*
X92250000Y-63891139D01*
X94230000Y-59760000D02*
X93490000Y-59760000D01*
X88455348Y-65576000D02*
X87379348Y-64500000D01*
D57*
%TO.N,PL15*%
X83750000Y-61894185D02*
X83355815Y-61500000D01*
X83750000Y-62500000D02*
X83750000Y-61894185D01*
%TO.N,PL16*%
X82750000Y-61644185D02*
X82605815Y-61500000D01*
X82750000Y-62500000D02*
X82750000Y-61644185D01*
%TO.N,PL17*%
X81750000Y-61605815D02*
X81855815Y-61500000D01*
X81750000Y-62500000D02*
X81750000Y-61605815D01*
%TO.N,PH8*%
X73162000Y-73852000D02*
X71770000Y-72460000D01*
X79852000Y-72499356D02*
X78499356Y-73852000D01*
X79852000Y-71398000D02*
X79852000Y-72499356D01*
X82250000Y-69000000D02*
X79852000Y-71398000D01*
X78499356Y-73852000D02*
X73162000Y-73852000D01*
%TO.N,PH7*%
X71770000Y-70695678D02*
X71770000Y-69920000D01*
X78374678Y-73551000D02*
X74625322Y-73551000D01*
X79551000Y-72374678D02*
X78374678Y-73551000D01*
X74625322Y-73551000D02*
X71770000Y-70695678D01*
X81750000Y-69000000D02*
X79551000Y-71199000D01*
X79551000Y-71199000D02*
X79551000Y-72374678D01*
%TO.N,PH6*%
X74000000Y-69610000D02*
X71770000Y-67380000D01*
X74000000Y-72500000D02*
X74000000Y-69610000D01*
X78250000Y-73250000D02*
X74750000Y-73250000D01*
X74750000Y-73250000D02*
X74000000Y-72500000D01*
X79250000Y-72250000D02*
X78250000Y-73250000D01*
X79250000Y-71000000D02*
X79250000Y-72250000D01*
X81250000Y-69000000D02*
X79250000Y-71000000D01*
%TO.N,SWC*%
X80750000Y-69000000D02*
X77750000Y-72000000D01*
%TO.N,SWD*%
X76532082Y-70717918D02*
X75250000Y-72000000D01*
X78532082Y-70717918D02*
X76532082Y-70717918D01*
X80250000Y-69000000D02*
X78532082Y-70717918D01*
%TO.N,PH5*%
X71770000Y-65129943D02*
X71770000Y-64840000D01*
X80250000Y-68524673D02*
X78357755Y-70416918D01*
X80250000Y-67750000D02*
X80250000Y-68524673D01*
X78357755Y-70416918D02*
X77056975Y-70416918D01*
X77056975Y-70416918D02*
X71770000Y-65129943D01*
%TO.N,PH4*%
X71770000Y-62445678D02*
X71770000Y-62300000D01*
X74597000Y-65272678D02*
X71770000Y-62445678D01*
X74597000Y-66569568D02*
X74597000Y-65272678D01*
X76425694Y-68398262D02*
X74597000Y-66569568D01*
X79327064Y-68398262D02*
X76425694Y-68398262D01*
X79725326Y-68000000D02*
X79327064Y-68398262D01*
X79750000Y-68000000D02*
X79725326Y-68000000D01*
%TO.N,PH3*%
X74898000Y-66250000D02*
X74898000Y-66444890D01*
X74750000Y-65000000D02*
X74898000Y-65148000D01*
X76550372Y-68097262D02*
X79152738Y-68097262D01*
X74898000Y-65148000D02*
X74898000Y-66250000D01*
X73097000Y-63347000D02*
X74750000Y-65000000D01*
X74898000Y-66444890D02*
X76550372Y-68097262D01*
X73097000Y-61087000D02*
X73097000Y-63347000D01*
%TO.N,PH2*%
X73398000Y-63161839D02*
X73398000Y-58848000D01*
X75199000Y-66320212D02*
X75199000Y-64962839D01*
X75199000Y-64962839D02*
X73398000Y-63161839D01*
X73398000Y-58848000D02*
X71770000Y-57220000D01*
X76675050Y-67796262D02*
X75199000Y-66320212D01*
X78953738Y-67796262D02*
X76675050Y-67796262D01*
X79750000Y-67000000D02*
X78953738Y-67796262D01*
%TO.N,PH1*%
X73699000Y-62949000D02*
X73699000Y-56609000D01*
X75500000Y-64750000D02*
X73699000Y-62949000D01*
X75500000Y-66195534D02*
X75500000Y-64750000D01*
X76799728Y-67495262D02*
X75500000Y-66195534D01*
%TO.N,PH3*%
X73097000Y-61087000D02*
X71770000Y-59760000D01*
X79750000Y-67500000D02*
X79152738Y-68097262D01*
%TO.N,PH1*%
X78754738Y-67495262D02*
X76799728Y-67495262D01*
X79750000Y-66500000D02*
X78754738Y-67495262D01*
X73699000Y-56609000D02*
X71770000Y-54680000D01*
%TO.N,PH0*%
X76622379Y-65373000D02*
X74000000Y-62750621D01*
X74000000Y-54370000D02*
X71770000Y-52140000D01*
X79750000Y-65500000D02*
X79623000Y-65373000D01*
X79623000Y-65373000D02*
X76622379Y-65373000D01*
X74000000Y-62750621D02*
X74000000Y-54370000D01*
D56*
%TO.N,VDD_NRF*%
X78000000Y-69623250D02*
X78000000Y-69230000D01*
X77807332Y-69815918D02*
X78000000Y-69623250D01*
X78000000Y-69230000D02*
X78230000Y-69000000D01*
%TO.N,VBAT*%
X86500000Y-55000000D02*
X86842795Y-54657205D01*
X86500000Y-55500000D02*
X86500000Y-55000000D01*
X86500000Y-54314411D02*
X86842795Y-54657205D01*
D57*
%TO.N,BLED*%
X74303358Y-47919284D02*
X75500000Y-46722642D01*
X74303358Y-62628301D02*
X74303358Y-47919284D01*
X75500000Y-46722642D02*
X75500000Y-45437500D01*
X76675057Y-65000000D02*
X74303358Y-62628301D01*
X75500000Y-45437500D02*
X74812500Y-44750000D01*
X79750000Y-65000000D02*
X76675057Y-65000000D01*
%TO.N,POWER_PIN*%
X75478000Y-53371943D02*
X76800000Y-52049943D01*
X76800000Y-52049943D02*
X76800000Y-51612500D01*
X75478000Y-59077943D02*
X75478000Y-53371943D01*
X76626000Y-62812137D02*
X76626000Y-60225943D01*
X78467335Y-64653472D02*
X76626000Y-62812137D01*
X79596528Y-64653472D02*
X78467335Y-64653472D01*
X76626000Y-60225943D02*
X75478000Y-59077943D01*
X79750000Y-64500000D02*
X79596528Y-64653472D01*
D56*
%TO.N,VDDH*%
X78700000Y-52050000D02*
X78700000Y-51612500D01*
X78204000Y-52546000D02*
X78700000Y-52050000D01*
X76329346Y-57250000D02*
X75849000Y-56769654D01*
X78275000Y-57250000D02*
X76329346Y-57250000D01*
X75849000Y-56769654D02*
X75849000Y-53576460D01*
X75849000Y-53576460D02*
X76879460Y-52546000D01*
X79025000Y-58000000D02*
X78275000Y-57250000D01*
X76879460Y-52546000D02*
X78204000Y-52546000D01*
%TO.N,VBAT*%
X82793096Y-43043096D02*
X81357742Y-43043096D01*
X85000000Y-45250000D02*
X82793096Y-43043096D01*
%TO.N,VDDH*%
X88025000Y-49000000D02*
X88025000Y-48025000D01*
X88025000Y-48025000D02*
X88000000Y-48000000D01*
%TO.N,VBUS*%
X78250000Y-62500000D02*
X77525000Y-62500000D01*
%TO.N,GND*%
X84980000Y-74730000D02*
X85000000Y-74750000D01*
X84980000Y-73750000D02*
X84980000Y-74730000D01*
X84980000Y-73750000D02*
X85765000Y-73750000D01*
X85015000Y-73715000D02*
X84980000Y-73750000D01*
X85015000Y-72874640D02*
X85015000Y-73715000D01*
X85270000Y-72619640D02*
X85015000Y-72874640D01*
X85270000Y-72000000D02*
X85270000Y-72619640D01*
%TO.N,VDD_NRF*%
X86950000Y-59550000D02*
X87250000Y-59250000D01*
X86250000Y-59550000D02*
X86950000Y-59550000D01*
X87500000Y-68020000D02*
X87750000Y-68270000D01*
X87500000Y-68000000D02*
X87500000Y-68020000D01*
X79025000Y-56500000D02*
X79025000Y-56275000D01*
X79025000Y-56275000D02*
X78250000Y-55500000D01*
X76750000Y-59500000D02*
X76500000Y-59250000D01*
X77462500Y-59500000D02*
X76750000Y-59500000D01*
%TO.N,GND*%
X86475000Y-48225000D02*
X86250000Y-48000000D01*
X86475000Y-49000000D02*
X86475000Y-48225000D01*
%TO.N,VDDH*%
X87025000Y-50000000D02*
X88025000Y-49000000D01*
X87000000Y-50000000D02*
X87025000Y-50000000D01*
%TO.N,VBAT*%
X86842795Y-54657205D02*
X87000000Y-54814411D01*
X86500000Y-53837500D02*
X86500000Y-54314411D01*
X87000000Y-54814411D02*
X87450000Y-55264411D01*
X87000000Y-53837500D02*
X87000000Y-54814411D01*
D57*
%TO.N,Net-(U2-TS)*%
X85260000Y-54577500D02*
X86000000Y-53837500D01*
X85260000Y-55000000D02*
X85260000Y-54577500D01*
%TO.N,Net-(U2-ISET)*%
X84662500Y-53800000D02*
X85312500Y-53150000D01*
X84010000Y-53800000D02*
X84662500Y-53800000D01*
%TO.N,SYSOFF_SWITCH*%
X83410000Y-52650000D02*
X83260000Y-52800000D01*
X85312500Y-52650000D02*
X83410000Y-52650000D01*
D56*
%TO.N,VBUS*%
X84307625Y-51145593D02*
X84307625Y-51592375D01*
X85312500Y-51650000D02*
X84250000Y-51650000D01*
X84307625Y-51592375D02*
X84250000Y-51650000D01*
X84130000Y-51650000D02*
X83980000Y-51800000D01*
X84250000Y-51650000D02*
X84130000Y-51650000D01*
D57*
%TO.N,D+*%
X83250000Y-46555000D02*
X83250000Y-47607742D01*
X83250000Y-47607742D02*
X83252192Y-47609934D01*
%TO.N,D-*%
X83801000Y-46606000D02*
X83750000Y-46555000D01*
X83801000Y-47828232D02*
X83801000Y-46606000D01*
X83719000Y-47910232D02*
X83801000Y-47828232D01*
X83307423Y-49173577D02*
X83719000Y-48762000D01*
X83226259Y-49173577D02*
X83307423Y-49173577D01*
X82699000Y-46606000D02*
X82750000Y-46555000D01*
X82699000Y-48680000D02*
X82699000Y-46606000D01*
X83192577Y-49173577D02*
X82699000Y-48680000D01*
X83226259Y-49173577D02*
X83192577Y-49173577D01*
X83719000Y-48762000D02*
X83719000Y-47910232D01*
%TO.N,D+*%
X82149000Y-48649000D02*
X82149000Y-47600000D01*
X82270000Y-48770000D02*
X82149000Y-48649000D01*
X82270000Y-49111581D02*
X82270000Y-48770000D01*
X82321222Y-49162803D02*
X82270000Y-49111581D01*
D56*
%TO.N,GND*%
X86225000Y-48750000D02*
X86475000Y-49000000D01*
X85260000Y-48750000D02*
X86225000Y-48750000D01*
%TO.N,VBUS*%
X85400000Y-47650000D02*
X85400000Y-46555000D01*
X85300000Y-47750000D02*
X85400000Y-47650000D01*
X85250000Y-47750000D02*
X85300000Y-47750000D01*
D57*
%TO.N,D+*%
X78768750Y-64000000D02*
X78716278Y-64052472D01*
X79750000Y-64000000D02*
X78768750Y-64000000D01*
%TO.N,D-*%
X79000000Y-63500000D02*
X79750000Y-63500000D01*
X78716278Y-63216278D02*
X79000000Y-63500000D01*
X78716278Y-63158209D02*
X78716278Y-63216278D01*
D58*
%TO.N,Net-(U1-DEC4)*%
X90797500Y-62975000D02*
X91537500Y-62235000D01*
X89750000Y-62975000D02*
X90797500Y-62975000D01*
X89455000Y-63270000D02*
X89750000Y-62975000D01*
X88500000Y-63270000D02*
X89455000Y-63270000D01*
X87500000Y-63270000D02*
X88500000Y-63270000D01*
X87144000Y-63626000D02*
X87500000Y-63270000D01*
X85874000Y-63626000D02*
X87144000Y-63626000D01*
X85750000Y-63750000D02*
X85874000Y-63626000D01*
D56*
%TO.N,Net-(L1-Pad2)*%
X90522500Y-61265000D02*
X90287500Y-61500000D01*
X91537500Y-61265000D02*
X90522500Y-61265000D01*
%TO.N,Net-(U1-DCC)*%
X87500000Y-61500000D02*
X88712500Y-61500000D01*
X85750000Y-63250000D02*
X87500000Y-61500000D01*
D57*
%TO.N,Net-(U1-P0.00{slash}XL1)*%
X84000000Y-60750000D02*
X84000000Y-58750000D01*
X84922000Y-61672000D02*
X84000000Y-60750000D01*
X84922000Y-62922000D02*
X84922000Y-61672000D01*
X85000000Y-63000000D02*
X84922000Y-62922000D01*
X84000000Y-58750000D02*
X82750000Y-57500000D01*
%TO.N,Net-(U1-P0.01{slash}XL2)*%
X84578000Y-61828000D02*
X82750000Y-60000000D01*
X84500000Y-63000000D02*
X84578000Y-62922000D01*
X84578000Y-62922000D02*
X84578000Y-61828000D01*
D58*
%TO.N,Net-(U1-DEC1)*%
X85250000Y-59755000D02*
X85000000Y-59505000D01*
X85250000Y-62500000D02*
X85250000Y-59755000D01*
D56*
%TO.N,GND*%
X89455000Y-64230000D02*
X89750000Y-64525000D01*
X88500000Y-64230000D02*
X89455000Y-64230000D01*
X88392000Y-64122000D02*
X88500000Y-64230000D01*
X85878000Y-64122000D02*
X88392000Y-64122000D01*
X85750000Y-64250000D02*
X85878000Y-64122000D01*
X87787415Y-51724000D02*
X87840149Y-51671266D01*
D59*
X84500000Y-68500000D02*
X84472000Y-68528000D01*
D56*
X77750000Y-51612500D02*
X77750000Y-50824273D01*
X77725000Y-49750000D02*
X77725000Y-50349273D01*
X84500000Y-64250000D02*
X83000000Y-65750000D01*
D57*
X84422000Y-68578000D02*
X84422000Y-70177000D01*
D58*
X77627619Y-51490119D02*
X77750000Y-51612500D01*
D56*
X77750000Y-50824273D02*
X77500000Y-50574273D01*
X85750000Y-64250000D02*
X84500000Y-64250000D01*
D57*
X84422000Y-70177000D02*
X84995000Y-70750000D01*
D56*
X88187500Y-53150000D02*
X87500000Y-53150000D01*
D57*
X84500000Y-68500000D02*
X84422000Y-68578000D01*
D56*
X77725000Y-50349273D02*
X77500000Y-50574273D01*
X86750000Y-52400000D02*
X87426000Y-51724000D01*
X87500000Y-53150000D02*
X86750000Y-52400000D01*
X87500000Y-53837500D02*
X87500000Y-53150000D01*
X87426000Y-51724000D02*
X87787415Y-51724000D01*
%TO.N,VDD_NRF*%
X79250000Y-69000000D02*
X78230000Y-69000000D01*
X85750000Y-62500000D02*
X86250000Y-62000000D01*
X86250000Y-62000000D02*
X86250000Y-59550000D01*
X79750000Y-68500000D02*
X79250000Y-69000000D01*
X79750000Y-66000000D02*
X78230000Y-66000000D01*
X80389000Y-57864000D02*
X79025000Y-56500000D01*
X81250000Y-61167550D02*
X80389000Y-60306550D01*
X80389000Y-60306550D02*
X80389000Y-57864000D01*
X81250000Y-62500000D02*
X81250000Y-61167550D01*
X86250000Y-68000000D02*
X87500000Y-68000000D01*
D57*
%TO.N,Net-(U1-P0.00{slash}XL1)*%
X82750000Y-57500000D02*
X83200000Y-57500000D01*
X82290000Y-57040000D02*
X82750000Y-57500000D01*
X82290000Y-56250000D02*
X82290000Y-57040000D01*
%TO.N,Net-(U1-P0.01{slash}XL2)*%
X82750000Y-60000000D02*
X81020000Y-60000000D01*
X81020000Y-60000000D02*
X81000000Y-59980000D01*
%TO.N,Net-(U1-DECUSB)*%
X80150000Y-62750000D02*
X78400000Y-61000000D01*
X80150000Y-63113863D02*
X80150000Y-62750000D01*
X77525000Y-61000000D02*
X78400000Y-61000000D01*
X80250000Y-63213863D02*
X80150000Y-63113863D01*
X80250000Y-63750000D02*
X80250000Y-63213863D01*
%TO.N,Net-(U1-DEC4)*%
X86230000Y-70480000D02*
X86230000Y-72000000D01*
X84750000Y-69000000D02*
X86230000Y-70480000D01*
%TO.N,Net-(U1-DEC2)*%
X86230000Y-67000000D02*
X89500000Y-67000000D01*
%TO.N,Net-(U1-XC2)*%
X89450000Y-69070000D02*
X89520000Y-69000000D01*
X86250000Y-68500000D02*
X86250000Y-68506128D01*
X88043872Y-70300000D02*
X89450000Y-70300000D01*
X86250000Y-68506128D02*
X88043872Y-70300000D01*
X89450000Y-70300000D02*
X89450000Y-69070000D01*
%TO.N,Net-(U1-XC1)*%
X90550000Y-71700000D02*
X90550000Y-72930000D01*
X85750000Y-69000000D02*
X85929605Y-69000000D01*
X90550000Y-72930000D02*
X90480000Y-73000000D01*
X85929605Y-69000000D02*
X87978605Y-71049000D01*
X87978605Y-71049000D02*
X89899000Y-71049000D01*
X89899000Y-71049000D02*
X90550000Y-71700000D01*
%TO.N,Net-(U1-DEC3)*%
X87250000Y-71000000D02*
X87250000Y-71270000D01*
X85000000Y-68500000D02*
X85000000Y-68750000D01*
X85000000Y-68750000D02*
X87250000Y-71000000D01*
%TO.N,Net-(U1-ANT)*%
X84078000Y-70707000D02*
X84035000Y-70750000D01*
D59*
X84000000Y-68500000D02*
X84035000Y-68535000D01*
D57*
X84078000Y-68578000D02*
X84078000Y-70707000D01*
X84000000Y-68500000D02*
X84078000Y-68578000D01*
%TO.N,Net-(C16-Pad2)*%
X84000000Y-73730000D02*
X84020000Y-73750000D01*
X84000000Y-73770000D02*
X84020000Y-73750000D01*
D56*
%TO.N,Net-(U1-DEC5)*%
X81000000Y-71770000D02*
X81000000Y-71250000D01*
X82750000Y-69500000D02*
X82750000Y-69000000D01*
X81000000Y-71250000D02*
X82750000Y-69500000D01*
%TO.N,VBUS*%
X84000000Y-51800000D02*
X83980000Y-51800000D01*
X80600000Y-46555000D02*
X80600000Y-48011026D01*
X80600000Y-48011026D02*
X80623263Y-48034289D01*
X79750000Y-63000000D02*
X79250000Y-62500000D01*
X79250000Y-62500000D02*
X78250000Y-62500000D01*
%TO.N,VDDH*%
X87000000Y-50962500D02*
X87000000Y-50000000D01*
X78700000Y-50325000D02*
X79275000Y-49750000D01*
X86500000Y-50962500D02*
X86500000Y-50000000D01*
X81000000Y-63000000D02*
X81000000Y-62954000D01*
X90500000Y-52500000D02*
X90500000Y-51270000D01*
X81000000Y-62954000D02*
X80822000Y-62776000D01*
X76766000Y-48974000D02*
X76500000Y-49240000D01*
X88187500Y-52650000D02*
X88997660Y-52650000D01*
X79275000Y-49750000D02*
X78499000Y-48974000D01*
X80822000Y-62776000D02*
X80822000Y-61407000D01*
X90500000Y-51270000D02*
X90480000Y-51250000D01*
X88997660Y-52650000D02*
X89000000Y-52652340D01*
X86500000Y-50000000D02*
X84950340Y-50000000D01*
X84950340Y-50000000D02*
X84781340Y-49831000D01*
X79900000Y-58875000D02*
X79025000Y-58000000D01*
X84781340Y-49831000D02*
X79606000Y-49831000D01*
X87000000Y-50000000D02*
X86500000Y-50000000D01*
X90347660Y-52652340D02*
X90500000Y-52500000D01*
X78700000Y-51612500D02*
X78700000Y-50325000D01*
X80822000Y-61407000D02*
X79900000Y-60485000D01*
X89000000Y-52652340D02*
X90347660Y-52652340D01*
X79900000Y-60485000D02*
X79900000Y-58875000D01*
X78499000Y-48974000D02*
X76766000Y-48974000D01*
X79606000Y-49831000D02*
X79525000Y-49750000D01*
D58*
%TO.N,EXT_VCC*%
X78700000Y-53887500D02*
X78700000Y-54209945D01*
D56*
X78700000Y-53887500D02*
X78700000Y-54228876D01*
X79471124Y-55000000D02*
X79471124Y-54803876D01*
X78700000Y-54228876D02*
X79471124Y-55000000D01*
X79471124Y-54803876D02*
X80250000Y-54025000D01*
D57*
%TO.N,Net-(J1-SHIELD)*%
X77030000Y-42030000D02*
X77000000Y-42000000D01*
X77200000Y-41800000D02*
X77000000Y-42000000D01*
X78680000Y-45980000D02*
X78680000Y-41800000D01*
X87320000Y-41800000D02*
X78680000Y-41800000D01*
X77030000Y-43250000D02*
X77030000Y-42030000D01*
X87320000Y-45980000D02*
X87320000Y-41800000D01*
X78680000Y-41800000D02*
X77200000Y-41800000D01*
%TO.N,Net-(D1-K)*%
X88179400Y-50000000D02*
X88750000Y-49429400D01*
X88750000Y-49429400D02*
X88750000Y-47843936D01*
X88574000Y-45488500D02*
X89312500Y-44750000D01*
X88574000Y-47667936D02*
X88574000Y-45488500D01*
X88750000Y-47843936D02*
X88574000Y-47667936D01*
X87500000Y-50500000D02*
X88000000Y-50000000D01*
X87500000Y-50962500D02*
X87500000Y-50500000D01*
X88000000Y-50000000D02*
X88179400Y-50000000D01*
%TO.N,Net-(D1-A)*%
X92250000Y-45812500D02*
X91187500Y-44750000D01*
X92250000Y-51770000D02*
X92250000Y-45812500D01*
X91520000Y-52500000D02*
X92250000Y-51770000D01*
%TO.N,Net-(D2-A)*%
X91500000Y-47312500D02*
X91187500Y-47000000D01*
X91500000Y-51250000D02*
X91500000Y-47312500D01*
%TO.N,Net-(D2-K)*%
X91149000Y-48836500D02*
X89312500Y-47000000D01*
X91149000Y-49601000D02*
X91149000Y-48836500D01*
X89250000Y-51524999D02*
X89250000Y-51500000D01*
D58*
X88187500Y-52150000D02*
X88624999Y-52150000D01*
D57*
X89250000Y-51500000D02*
X91149000Y-49601000D01*
D58*
X88624999Y-52150000D02*
X89250000Y-51524999D01*
D57*
%TO.N,Net-(D3-K)*%
X76325000Y-46500000D02*
X76325000Y-45112500D01*
X76325000Y-45112500D02*
X76687500Y-44750000D01*
%TO.N,D+*%
X82250000Y-47499000D02*
X82149000Y-47600000D01*
X82149000Y-47600000D02*
X82348000Y-47600000D01*
X82250000Y-46555000D02*
X82250000Y-47499000D01*
%TO.N,Net-(J1-CC2)*%
X81250000Y-46555000D02*
X81250000Y-47990000D01*
X81250000Y-47990000D02*
X81500000Y-48240000D01*
%TO.N,Net-(J1-CC1)*%
X84250000Y-48740000D02*
X84240000Y-48750000D01*
X84250000Y-46555000D02*
X84250000Y-48740000D01*
%TO.N,Net-(U1-DCCH)*%
X80451000Y-61631674D02*
X79037500Y-60218174D01*
X80451000Y-62951000D02*
X80451000Y-61631674D01*
X79037500Y-60218174D02*
X79037500Y-59500000D01*
X80500000Y-63000000D02*
X80451000Y-62951000D01*
%TO.N,POWER_PIN*%
X76800000Y-51612500D02*
X76800000Y-50560000D01*
X76800000Y-50560000D02*
X76500000Y-50260000D01*
D58*
X76750000Y-51562500D02*
X76800000Y-51612500D01*
D57*
%TO.N,Net-(U2-ILIM)*%
X85345740Y-50962500D02*
X86000000Y-50962500D01*
X84895798Y-50512558D02*
X83597442Y-50512558D01*
X83597442Y-50512558D02*
X83510000Y-50600000D01*
X85345740Y-50962500D02*
X84895798Y-50512558D01*
D56*
%TO.N,VBUS*%
X78339576Y-61906226D02*
X77745802Y-62500000D01*
X78247901Y-61997901D02*
X78247901Y-62497901D01*
X78247901Y-62497901D02*
X78250000Y-62500000D01*
X78339576Y-61906226D02*
X78247901Y-61997901D01*
X77745802Y-62500000D02*
X77525000Y-62500000D01*
%TO.N,VDD_NRF*%
X78082999Y-66147001D02*
X78230000Y-66000000D01*
X78082999Y-66894262D02*
X78082999Y-66147001D01*
%TD*%
%TA.AperFunction,Conductor*%
%TO.N,GND*%
G36*
X94504853Y-40300881D02*
G01*
X94677919Y-40314502D01*
X94697128Y-40317545D01*
X94861183Y-40356931D01*
X94879675Y-40362940D01*
X95005347Y-40414994D01*
X95035547Y-40427504D01*
X95052884Y-40436338D01*
X95196725Y-40524484D01*
X95212466Y-40535920D01*
X95340753Y-40645486D01*
X95354513Y-40659246D01*
X95464079Y-40787533D01*
X95475515Y-40803274D01*
X95563661Y-40947115D01*
X95572495Y-40964452D01*
X95637057Y-41120317D01*
X95643070Y-41138823D01*
X95682453Y-41302866D01*
X95685497Y-41322084D01*
X95699118Y-41495146D01*
X95699500Y-41504875D01*
X95699500Y-76876000D01*
X95679815Y-76943039D01*
X95627011Y-76988794D01*
X95575500Y-77000000D01*
X91274500Y-77000000D01*
X91207461Y-76980315D01*
X91161706Y-76927511D01*
X91150500Y-76876000D01*
X91150500Y-76480249D01*
X91150499Y-76480247D01*
X91138868Y-76421770D01*
X91138867Y-76421769D01*
X91094552Y-76355447D01*
X91028230Y-76311132D01*
X91028229Y-76311131D01*
X90969752Y-76299500D01*
X90969748Y-76299500D01*
X90030252Y-76299500D01*
X90030247Y-76299500D01*
X89971770Y-76311131D01*
X89971769Y-76311132D01*
X89905447Y-76355447D01*
X89861132Y-76421769D01*
X89861131Y-76421770D01*
X89849500Y-76480247D01*
X89849500Y-76876000D01*
X89829815Y-76943039D01*
X89777011Y-76988794D01*
X89725500Y-77000000D01*
X88974500Y-77000000D01*
X88907461Y-76980315D01*
X88861706Y-76927511D01*
X88850500Y-76876000D01*
X88850500Y-76622574D01*
X88867114Y-76560573D01*
X88889867Y-76521163D01*
X88889868Y-76521162D01*
X88889868Y-76521160D01*
X88889870Y-76521158D01*
X88925682Y-76387506D01*
X88925682Y-76249140D01*
X88889870Y-76115488D01*
X88889832Y-76115423D01*
X88820688Y-75995661D01*
X88820683Y-75995655D01*
X88259434Y-75434406D01*
X88259432Y-75434403D01*
X88154525Y-75329496D01*
X88154520Y-75329492D01*
X88034697Y-75260313D01*
X88034690Y-75260310D01*
X87989053Y-75248081D01*
X87989053Y-75248082D01*
X87957805Y-75239709D01*
X87901042Y-75224499D01*
X87762676Y-75224499D01*
X87755080Y-75224499D01*
X87755064Y-75224500D01*
X86778315Y-75224500D01*
X86775417Y-75225277D01*
X86743331Y-75229500D01*
X86615786Y-75229500D01*
X86566342Y-75236703D01*
X86545714Y-75239709D01*
X86545712Y-75239709D01*
X86545710Y-75239710D01*
X86545708Y-75239710D01*
X86437627Y-75292548D01*
X86437624Y-75292550D01*
X86352549Y-75377625D01*
X86350914Y-75379916D01*
X86347877Y-75382297D01*
X86345285Y-75384890D01*
X86344971Y-75384576D01*
X86295936Y-75423035D01*
X86226375Y-75429587D01*
X86164314Y-75397490D01*
X86149086Y-75379916D01*
X86147450Y-75377625D01*
X86062375Y-75292550D01*
X86062372Y-75292548D01*
X85954289Y-75239710D01*
X85954287Y-75239709D01*
X85954286Y-75239709D01*
X85884215Y-75229500D01*
X85884209Y-75229500D01*
X85797652Y-75229500D01*
X85787223Y-75229061D01*
X85776222Y-75228132D01*
X85706683Y-75209499D01*
X85568317Y-75209499D01*
X85568313Y-75209500D01*
X84613310Y-75209500D01*
X84546271Y-75189815D01*
X84500516Y-75137011D01*
X84490572Y-75067853D01*
X84501909Y-75031041D01*
X84510644Y-75013172D01*
X84510643Y-75013172D01*
X84510645Y-75013170D01*
X84520500Y-74945528D01*
X84520500Y-74896530D01*
X93179500Y-74896530D01*
X93179500Y-75103469D01*
X93219868Y-75306412D01*
X93219870Y-75306420D01*
X93299058Y-75497596D01*
X93414024Y-75669657D01*
X93560342Y-75815975D01*
X93560345Y-75815977D01*
X93732402Y-75930941D01*
X93923580Y-76010130D01*
X94126530Y-76050499D01*
X94126534Y-76050500D01*
X94126535Y-76050500D01*
X94333466Y-76050500D01*
X94333467Y-76050499D01*
X94536420Y-76010130D01*
X94727598Y-75930941D01*
X94899655Y-75815977D01*
X95045977Y-75669655D01*
X95160941Y-75497598D01*
X95240130Y-75306420D01*
X95280500Y-75103465D01*
X95280500Y-74896535D01*
X95240130Y-74693580D01*
X95160941Y-74502402D01*
X95045977Y-74330345D01*
X95045975Y-74330342D01*
X94899657Y-74184024D01*
X94762617Y-74092458D01*
X94727598Y-74069059D01*
X94662308Y-74042015D01*
X94536420Y-73989870D01*
X94536412Y-73989868D01*
X94333469Y-73949500D01*
X94333465Y-73949500D01*
X94126535Y-73949500D01*
X94126530Y-73949500D01*
X93923587Y-73989868D01*
X93923579Y-73989870D01*
X93732403Y-74069058D01*
X93560342Y-74184024D01*
X93414024Y-74330342D01*
X93299058Y-74502403D01*
X93219870Y-74693579D01*
X93219868Y-74693587D01*
X93179500Y-74896530D01*
X84520500Y-74896530D01*
X84520500Y-74869167D01*
X84524725Y-74837074D01*
X84525500Y-74834183D01*
X84525500Y-74399810D01*
X84545185Y-74332771D01*
X84597989Y-74287016D01*
X84667147Y-74277072D01*
X84705797Y-74289326D01*
X84717985Y-74295536D01*
X84717983Y-74295536D01*
X84809304Y-74309999D01*
X84854999Y-74309999D01*
X85105000Y-74309999D01*
X85150689Y-74309999D01*
X85242017Y-74295534D01*
X85352093Y-74239447D01*
X85352098Y-74239444D01*
X85439444Y-74152098D01*
X85439448Y-74152093D01*
X85495536Y-74042015D01*
X85510000Y-73950691D01*
X85510000Y-73875000D01*
X85105000Y-73875000D01*
X85105000Y-74309999D01*
X84854999Y-74309999D01*
X84855000Y-74309998D01*
X84855000Y-73625000D01*
X85105000Y-73625000D01*
X85509999Y-73625000D01*
X85509999Y-73549310D01*
X85495534Y-73457982D01*
X85439447Y-73347906D01*
X85439444Y-73347901D01*
X85352098Y-73260555D01*
X85352093Y-73260551D01*
X85242015Y-73204463D01*
X85218185Y-73200689D01*
X88990001Y-73200689D01*
X89004465Y-73292017D01*
X89060552Y-73402093D01*
X89060555Y-73402098D01*
X89147901Y-73489444D01*
X89147906Y-73489448D01*
X89257984Y-73545536D01*
X89257983Y-73545536D01*
X89349304Y-73559999D01*
X89394999Y-73559999D01*
X89395000Y-73559998D01*
X89395000Y-73125000D01*
X88990001Y-73125000D01*
X88990001Y-73200689D01*
X85218185Y-73200689D01*
X85150691Y-73190000D01*
X85105000Y-73190000D01*
X85105000Y-73625000D01*
X84855000Y-73625000D01*
X84855000Y-73190000D01*
X84809311Y-73190000D01*
X84717981Y-73204465D01*
X84705791Y-73210676D01*
X84637121Y-73223570D01*
X84572382Y-73197291D01*
X84532127Y-73140183D01*
X84525500Y-73100189D01*
X84525500Y-72665820D01*
X84524439Y-72657763D01*
X84525714Y-72657595D01*
X84527180Y-72596034D01*
X84566342Y-72538171D01*
X84630571Y-72510667D01*
X84645292Y-72509790D01*
X84908058Y-72509790D01*
X84964353Y-72523305D01*
X85007983Y-72545536D01*
X85099304Y-72559999D01*
X85145000Y-72559999D01*
X85158889Y-72546110D01*
X85185817Y-72531405D01*
X85211636Y-72514813D01*
X85217835Y-72513921D01*
X85220212Y-72512624D01*
X85246571Y-72509790D01*
X85293429Y-72509790D01*
X85360468Y-72529475D01*
X85381110Y-72546109D01*
X85395000Y-72559999D01*
X85440689Y-72559999D01*
X85532019Y-72545534D01*
X85575648Y-72523305D01*
X85588650Y-72520183D01*
X85597007Y-72514813D01*
X85631942Y-72509790D01*
X85654319Y-72509790D01*
X85721358Y-72529475D01*
X85767113Y-72582279D01*
X85774093Y-72601695D01*
X85782129Y-72631684D01*
X85798608Y-72693187D01*
X85811755Y-72715957D01*
X85864500Y-72807314D01*
X85957686Y-72900500D01*
X86056521Y-72957563D01*
X86071571Y-72966252D01*
X86071814Y-72966392D01*
X86199108Y-73000500D01*
X86199110Y-73000500D01*
X86330890Y-73000500D01*
X86330892Y-73000500D01*
X86458186Y-72966392D01*
X86458188Y-72966391D01*
X86458429Y-72966252D01*
X86458430Y-72966251D01*
X86458431Y-72966251D01*
X86571983Y-72900691D01*
X86572314Y-72900500D01*
X86665500Y-72807314D01*
X86700708Y-72746331D01*
X86751275Y-72698116D01*
X86819882Y-72684893D01*
X86864390Y-72697847D01*
X86957984Y-72745536D01*
X87049303Y-72759999D01*
X87375000Y-72759999D01*
X87450689Y-72759999D01*
X87542017Y-72745534D01*
X87652093Y-72689447D01*
X87652098Y-72689444D01*
X87739444Y-72602098D01*
X87739448Y-72602093D01*
X87795536Y-72492015D01*
X87810000Y-72400691D01*
X87810000Y-72355000D01*
X87375000Y-72355000D01*
X87375000Y-72759999D01*
X87049303Y-72759999D01*
X87124999Y-72759998D01*
X87125000Y-72759998D01*
X87125000Y-72354000D01*
X87127550Y-72345314D01*
X87126262Y-72336353D01*
X87137240Y-72312312D01*
X87144685Y-72286961D01*
X87151525Y-72281033D01*
X87155287Y-72272797D01*
X87177521Y-72258507D01*
X87197489Y-72241206D01*
X87208003Y-72238918D01*
X87214065Y-72235023D01*
X87249000Y-72230000D01*
X87250000Y-72230000D01*
X87250000Y-72229000D01*
X87269685Y-72161961D01*
X87322489Y-72116206D01*
X87374000Y-72105000D01*
X87809999Y-72105000D01*
X87809999Y-72059310D01*
X87801270Y-72004196D01*
X88800001Y-72004196D01*
X88802851Y-72034606D01*
X88847653Y-72162645D01*
X88928207Y-72271792D01*
X89037354Y-72352345D01*
X89050175Y-72356832D01*
X89106951Y-72397554D01*
X89132698Y-72462507D01*
X89119242Y-72531068D01*
X89096902Y-72561554D01*
X89060555Y-72597901D01*
X89060551Y-72597906D01*
X89004463Y-72707984D01*
X88990000Y-72799308D01*
X88990000Y-72875000D01*
X89395000Y-72875000D01*
X89395000Y-72530000D01*
X89361319Y-72496319D01*
X89327834Y-72434996D01*
X89325000Y-72408638D01*
X89325000Y-71825000D01*
X88800001Y-71825000D01*
X88800001Y-72004196D01*
X87801270Y-72004196D01*
X87795534Y-71967982D01*
X87739447Y-71857906D01*
X87739444Y-71857901D01*
X87684222Y-71802679D01*
X87650737Y-71741356D01*
X87655721Y-71671664D01*
X87684219Y-71627320D01*
X87703224Y-71608316D01*
X87753972Y-71499487D01*
X87760500Y-71449901D01*
X87760499Y-71449897D01*
X87760895Y-71446897D01*
X87789160Y-71383000D01*
X87847484Y-71344528D01*
X87915926Y-71343306D01*
X87939043Y-71349500D01*
X88676000Y-71349500D01*
X88743039Y-71369185D01*
X88788794Y-71421989D01*
X88800000Y-71473500D01*
X88800000Y-71575000D01*
X89326000Y-71575000D01*
X89334685Y-71577550D01*
X89343647Y-71576262D01*
X89367687Y-71587240D01*
X89393039Y-71594685D01*
X89398966Y-71601525D01*
X89407203Y-71605287D01*
X89421492Y-71627521D01*
X89438794Y-71647489D01*
X89441081Y-71658003D01*
X89444977Y-71664065D01*
X89450000Y-71699000D01*
X89450000Y-71700000D01*
X89451000Y-71700000D01*
X89518039Y-71719685D01*
X89563794Y-71772489D01*
X89575000Y-71824000D01*
X89575000Y-72310000D01*
X89608681Y-72343681D01*
X89642166Y-72405004D01*
X89645000Y-72431362D01*
X89645000Y-73559999D01*
X89690689Y-73559999D01*
X89782017Y-73545534D01*
X89892093Y-73489447D01*
X89892094Y-73489447D01*
X89947319Y-73434222D01*
X90008642Y-73400737D01*
X90078334Y-73405721D01*
X90122682Y-73434222D01*
X90141684Y-73453224D01*
X90250513Y-73503972D01*
X90300099Y-73510500D01*
X90659900Y-73510499D01*
X90709487Y-73503972D01*
X90818316Y-73453224D01*
X90903224Y-73368316D01*
X90953972Y-73259487D01*
X90960500Y-73209901D01*
X90960499Y-72790100D01*
X90953972Y-72740513D01*
X90903224Y-72631684D01*
X90886819Y-72615279D01*
X90872115Y-72588351D01*
X90855523Y-72562533D01*
X90854631Y-72556332D01*
X90853334Y-72553956D01*
X90850500Y-72527598D01*
X90850500Y-72424271D01*
X90870185Y-72357232D01*
X90918203Y-72313787D01*
X90988342Y-72278050D01*
X91078050Y-72188342D01*
X91135646Y-72075304D01*
X91135646Y-72075302D01*
X91135647Y-72075301D01*
X91150499Y-71981524D01*
X91150500Y-71981519D01*
X91150499Y-71418482D01*
X91135646Y-71324696D01*
X91078050Y-71211658D01*
X91078046Y-71211654D01*
X91078045Y-71211652D01*
X90981734Y-71115341D01*
X90948249Y-71054018D01*
X90953233Y-70984326D01*
X90995105Y-70928393D01*
X90995782Y-70927889D01*
X91071792Y-70871791D01*
X91152346Y-70762645D01*
X91197149Y-70634604D01*
X91197149Y-70634600D01*
X91200000Y-70604206D01*
X91200000Y-70425000D01*
X90674000Y-70425000D01*
X90665314Y-70422449D01*
X90656353Y-70423738D01*
X90632312Y-70412759D01*
X90606961Y-70405315D01*
X90601033Y-70398474D01*
X90592797Y-70394713D01*
X90578507Y-70372478D01*
X90561206Y-70352511D01*
X90558918Y-70341996D01*
X90555023Y-70335935D01*
X90550000Y-70301000D01*
X90550000Y-70300000D01*
X90549000Y-70300000D01*
X90481961Y-70280315D01*
X90436206Y-70227511D01*
X90425000Y-70176000D01*
X90425000Y-69690000D01*
X90391319Y-69656319D01*
X90357834Y-69594996D01*
X90355000Y-69568638D01*
X90355000Y-69470000D01*
X90605000Y-69470000D01*
X90638681Y-69503681D01*
X90672166Y-69565004D01*
X90675000Y-69591362D01*
X90675000Y-70175000D01*
X91199999Y-70175000D01*
X91199999Y-69995803D01*
X91197148Y-69965393D01*
X91152346Y-69837354D01*
X91071792Y-69728207D01*
X90962645Y-69647653D01*
X90962640Y-69647650D01*
X90949821Y-69643165D01*
X90893046Y-69602442D01*
X90867301Y-69537489D01*
X90880759Y-69468928D01*
X90903099Y-69438443D01*
X90939445Y-69402097D01*
X90939448Y-69402093D01*
X90995536Y-69292015D01*
X91010000Y-69200691D01*
X91010000Y-69125000D01*
X90605000Y-69125000D01*
X90605000Y-69470000D01*
X90355000Y-69470000D01*
X90355000Y-68875000D01*
X90605000Y-68875000D01*
X91009999Y-68875000D01*
X91009999Y-68799310D01*
X90995534Y-68707982D01*
X90939447Y-68597906D01*
X90939444Y-68597901D01*
X90852098Y-68510555D01*
X90852093Y-68510551D01*
X90742015Y-68454463D01*
X90650691Y-68440000D01*
X90605000Y-68440000D01*
X90605000Y-68875000D01*
X90355000Y-68875000D01*
X90355000Y-68440000D01*
X90309311Y-68440000D01*
X90217982Y-68454465D01*
X90107906Y-68510552D01*
X90107904Y-68510552D01*
X90052679Y-68565778D01*
X89991355Y-68599262D01*
X89921664Y-68594277D01*
X89877317Y-68565777D01*
X89858316Y-68546776D01*
X89780640Y-68510555D01*
X89749487Y-68496028D01*
X89749485Y-68496027D01*
X89749486Y-68496027D01*
X89699902Y-68489500D01*
X89340105Y-68489500D01*
X89324386Y-68491569D01*
X89290513Y-68496028D01*
X89290511Y-68496029D01*
X89290505Y-68496030D01*
X89287039Y-68497647D01*
X89282696Y-68498306D01*
X89281401Y-68498684D01*
X89281350Y-68498510D01*
X89217961Y-68508138D01*
X89154178Y-68479616D01*
X89115940Y-68421139D01*
X89110638Y-68385784D01*
X89110568Y-68369198D01*
X89117363Y-68343841D01*
X89117363Y-68212057D01*
X89109791Y-68183798D01*
X89109724Y-68167742D01*
X89115145Y-68148985D01*
X89115610Y-68129468D01*
X89124648Y-68116113D01*
X89129127Y-68100620D01*
X89143830Y-68087771D01*
X89154772Y-68071605D01*
X89169595Y-68065256D01*
X89181739Y-68054645D01*
X89201052Y-68051785D01*
X89219000Y-68044099D01*
X89233723Y-68043222D01*
X92102245Y-68043222D01*
X92169284Y-68062907D01*
X92189926Y-68079541D01*
X92688181Y-68577796D01*
X92721666Y-68639119D01*
X92724500Y-68665477D01*
X92724500Y-71284800D01*
X92765388Y-71383511D01*
X92766443Y-71386058D01*
X92766444Y-71386059D01*
X93253279Y-71872895D01*
X93286764Y-71934218D01*
X93281780Y-72003910D01*
X93280159Y-72008028D01*
X93219871Y-72153575D01*
X93219868Y-72153587D01*
X93179500Y-72356530D01*
X93179500Y-72563469D01*
X93219868Y-72766412D01*
X93219870Y-72766420D01*
X93265678Y-72877011D01*
X93299059Y-72957598D01*
X93304935Y-72966392D01*
X93414024Y-73129657D01*
X93560342Y-73275975D01*
X93560345Y-73275977D01*
X93732402Y-73390941D01*
X93923580Y-73470130D01*
X94126530Y-73510499D01*
X94126534Y-73510500D01*
X94126535Y-73510500D01*
X94333466Y-73510500D01*
X94333467Y-73510499D01*
X94536420Y-73470130D01*
X94727598Y-73390941D01*
X94899655Y-73275977D01*
X95045977Y-73129655D01*
X95160941Y-72957598D01*
X95240130Y-72766420D01*
X95280500Y-72563465D01*
X95280500Y-72356535D01*
X95240130Y-72153580D01*
X95160941Y-71962402D01*
X95045977Y-71790345D01*
X95045975Y-71790342D01*
X94899657Y-71644024D01*
X94758582Y-71549762D01*
X94727598Y-71529059D01*
X94717393Y-71524832D01*
X94536420Y-71449870D01*
X94536412Y-71449868D01*
X94333469Y-71409500D01*
X94333465Y-71409500D01*
X94126535Y-71409500D01*
X94126530Y-71409500D01*
X93923587Y-71449868D01*
X93923575Y-71449871D01*
X93778028Y-71510159D01*
X93708559Y-71517628D01*
X93646080Y-71486353D01*
X93642895Y-71483279D01*
X93311819Y-71152203D01*
X93278334Y-71090880D01*
X93275500Y-71064522D01*
X93275500Y-70750495D01*
X93295185Y-70683456D01*
X93347989Y-70637701D01*
X93417147Y-70627757D01*
X93480703Y-70656782D01*
X93487181Y-70662814D01*
X93560342Y-70735975D01*
X93560345Y-70735977D01*
X93732402Y-70850941D01*
X93923580Y-70930130D01*
X94126530Y-70970499D01*
X94126534Y-70970500D01*
X94126535Y-70970500D01*
X94333466Y-70970500D01*
X94333467Y-70970499D01*
X94536420Y-70930130D01*
X94727598Y-70850941D01*
X94899655Y-70735977D01*
X95045977Y-70589655D01*
X95160941Y-70417598D01*
X95240130Y-70226420D01*
X95280500Y-70023465D01*
X95280500Y-69816535D01*
X95240130Y-69613580D01*
X95160941Y-69422402D01*
X95045977Y-69250345D01*
X95045975Y-69250342D01*
X94899657Y-69104024D01*
X94743972Y-69000000D01*
X94727598Y-68989059D01*
X94568019Y-68922959D01*
X94536420Y-68909870D01*
X94536412Y-68909868D01*
X94333469Y-68869500D01*
X94333465Y-68869500D01*
X94220933Y-68869500D01*
X94153894Y-68849815D01*
X94133252Y-68833181D01*
X93921298Y-68621227D01*
X93887813Y-68559904D01*
X93892797Y-68490212D01*
X93934669Y-68434279D01*
X94000133Y-68409862D01*
X94033170Y-68411929D01*
X94088774Y-68422989D01*
X94126532Y-68430499D01*
X94126534Y-68430500D01*
X94126535Y-68430500D01*
X94333466Y-68430500D01*
X94333467Y-68430499D01*
X94536420Y-68390130D01*
X94727598Y-68310941D01*
X94899655Y-68195977D01*
X95045977Y-68049655D01*
X95160941Y-67877598D01*
X95240130Y-67686420D01*
X95280500Y-67483465D01*
X95280500Y-67276535D01*
X95240130Y-67073580D01*
X95160941Y-66882402D01*
X95045977Y-66710345D01*
X95045975Y-66710342D01*
X94899657Y-66564024D01*
X94788039Y-66489444D01*
X94727598Y-66449059D01*
X94700001Y-66437628D01*
X94536420Y-66369870D01*
X94536412Y-66369868D01*
X94333469Y-66329500D01*
X94333465Y-66329500D01*
X94126535Y-66329500D01*
X94126530Y-66329500D01*
X93923587Y-66369868D01*
X93923575Y-66369871D01*
X93778028Y-66430159D01*
X93708559Y-66437628D01*
X93646080Y-66406353D01*
X93642895Y-66403279D01*
X93437296Y-66197680D01*
X93403811Y-66136357D01*
X93408795Y-66066665D01*
X93437294Y-66022320D01*
X93642896Y-65816718D01*
X93704217Y-65783235D01*
X93773909Y-65788219D01*
X93778026Y-65789839D01*
X93923580Y-65850130D01*
X94061431Y-65877550D01*
X94126530Y-65890499D01*
X94126534Y-65890500D01*
X94126535Y-65890500D01*
X94333466Y-65890500D01*
X94333467Y-65890499D01*
X94536420Y-65850130D01*
X94727598Y-65770941D01*
X94899655Y-65655977D01*
X95045977Y-65509655D01*
X95160941Y-65337598D01*
X95240130Y-65146420D01*
X95280500Y-64943465D01*
X95280500Y-64736535D01*
X95240130Y-64533580D01*
X95160941Y-64342402D01*
X95045977Y-64170345D01*
X95045975Y-64170342D01*
X94899657Y-64024024D01*
X94783438Y-63946370D01*
X94727598Y-63909059D01*
X94698398Y-63896964D01*
X94536420Y-63829870D01*
X94536412Y-63829868D01*
X94333469Y-63789500D01*
X94333465Y-63789500D01*
X94126535Y-63789500D01*
X94126530Y-63789500D01*
X93923587Y-63829868D01*
X93923579Y-63829870D01*
X93732403Y-63909058D01*
X93560342Y-64024024D01*
X93414024Y-64170342D01*
X93299058Y-64342403D01*
X93219870Y-64533579D01*
X93219868Y-64533587D01*
X93179500Y-64736530D01*
X93179500Y-64943469D01*
X93219868Y-65146412D01*
X93219870Y-65146420D01*
X93280159Y-65291970D01*
X93287628Y-65361440D01*
X93256353Y-65423919D01*
X93253279Y-65427104D01*
X92914204Y-65766181D01*
X92852881Y-65799666D01*
X92826523Y-65802500D01*
X91416477Y-65802500D01*
X91349438Y-65782815D01*
X91303683Y-65730011D01*
X91293739Y-65660853D01*
X91322764Y-65597297D01*
X91328796Y-65590819D01*
X92480901Y-64438714D01*
X93642896Y-63276718D01*
X93704217Y-63243235D01*
X93773909Y-63248219D01*
X93778026Y-63249839D01*
X93923580Y-63310130D01*
X94126530Y-63350499D01*
X94126534Y-63350500D01*
X94126535Y-63350500D01*
X94333466Y-63350500D01*
X94333467Y-63350499D01*
X94536420Y-63310130D01*
X94727598Y-63230941D01*
X94899655Y-63115977D01*
X95045977Y-62969655D01*
X95160941Y-62797598D01*
X95240130Y-62606420D01*
X95280500Y-62403465D01*
X95280500Y-62196535D01*
X95240130Y-61993580D01*
X95160941Y-61802402D01*
X95045977Y-61630345D01*
X95045975Y-61630342D01*
X94899657Y-61484024D01*
X94748651Y-61383126D01*
X94727598Y-61369059D01*
X94536420Y-61289870D01*
X94536412Y-61289868D01*
X94333469Y-61249500D01*
X94333465Y-61249500D01*
X94126535Y-61249500D01*
X94126530Y-61249500D01*
X93923587Y-61289868D01*
X93923579Y-61289870D01*
X93732403Y-61369058D01*
X93560342Y-61484024D01*
X93414024Y-61630342D01*
X93299058Y-61802403D01*
X93219870Y-61993579D01*
X93219868Y-61993587D01*
X93179500Y-62196530D01*
X93179500Y-62403469D01*
X93219868Y-62606412D01*
X93219870Y-62606420D01*
X93280159Y-62751970D01*
X93287628Y-62821440D01*
X93256353Y-62883919D01*
X93253279Y-62887104D01*
X92737181Y-63403202D01*
X92675858Y-63436687D01*
X92606166Y-63431703D01*
X92550233Y-63389831D01*
X92525816Y-63324367D01*
X92525500Y-63315521D01*
X92525500Y-61165476D01*
X92545185Y-61098437D01*
X92561815Y-61077799D01*
X93225448Y-60414165D01*
X93286769Y-60380682D01*
X93356460Y-60385666D01*
X93409579Y-60425429D01*
X93410163Y-60424951D01*
X93412111Y-60427325D01*
X93412394Y-60427537D01*
X93413077Y-60428503D01*
X93414027Y-60429660D01*
X93560342Y-60575975D01*
X93560345Y-60575977D01*
X93732402Y-60690941D01*
X93923580Y-60770130D01*
X94101524Y-60805525D01*
X94126530Y-60810499D01*
X94126534Y-60810500D01*
X94126535Y-60810500D01*
X94333466Y-60810500D01*
X94333467Y-60810499D01*
X94536420Y-60770130D01*
X94727598Y-60690941D01*
X94899655Y-60575977D01*
X95045977Y-60429655D01*
X95160941Y-60257598D01*
X95240130Y-60066420D01*
X95280500Y-59863465D01*
X95280500Y-59656535D01*
X95240130Y-59453580D01*
X95160941Y-59262402D01*
X95045977Y-59090345D01*
X95045975Y-59090342D01*
X94899657Y-58944024D01*
X94755905Y-58847973D01*
X94727598Y-58829059D01*
X94721671Y-58826604D01*
X94536420Y-58749870D01*
X94536412Y-58749868D01*
X94333469Y-58709500D01*
X94333465Y-58709500D01*
X94126535Y-58709500D01*
X94126530Y-58709500D01*
X93923587Y-58749868D01*
X93923579Y-58749870D01*
X93732403Y-58829058D01*
X93560342Y-58944024D01*
X93414024Y-59090342D01*
X93299058Y-59262403D01*
X93219870Y-59453579D01*
X93219868Y-59453587D01*
X93180791Y-59650039D01*
X93148406Y-59711950D01*
X93146855Y-59713529D01*
X92093942Y-60766443D01*
X92093941Y-60766444D01*
X92054859Y-60805525D01*
X91993536Y-60839010D01*
X91923844Y-60834024D01*
X91912719Y-60829243D01*
X91810673Y-60779356D01*
X91810671Y-60779355D01*
X91810670Y-60779355D01*
X91743028Y-60769500D01*
X91331972Y-60769500D01*
X91281240Y-60776891D01*
X91264328Y-60779355D01*
X91159986Y-60830365D01*
X91112171Y-60878181D01*
X91085243Y-60892884D01*
X91059425Y-60909477D01*
X91053224Y-60910368D01*
X91050848Y-60911666D01*
X91024490Y-60914500D01*
X90813307Y-60914500D01*
X90757012Y-60900985D01*
X90755751Y-60900342D01*
X90652230Y-60847595D01*
X90637417Y-60840047D01*
X90539251Y-60824500D01*
X90539246Y-60824500D01*
X90035754Y-60824500D01*
X90035749Y-60824500D01*
X89937582Y-60840047D01*
X89868985Y-60875000D01*
X89819249Y-60900342D01*
X89819248Y-60900343D01*
X89819243Y-60900346D01*
X89725346Y-60994243D01*
X89725344Y-60994247D01*
X89725342Y-60994249D01*
X89713645Y-61017206D01*
X89665047Y-61112582D01*
X89649500Y-61210748D01*
X89649500Y-61789251D01*
X89665047Y-61887417D01*
X89680735Y-61918205D01*
X89725342Y-62005751D01*
X89725344Y-62005753D01*
X89725346Y-62005756D01*
X89819242Y-62099652D01*
X89819245Y-62099654D01*
X89819249Y-62099658D01*
X89819253Y-62099660D01*
X89819966Y-62100178D01*
X89820633Y-62101043D01*
X89826149Y-62106559D01*
X89825436Y-62107271D01*
X89862634Y-62155506D01*
X89868616Y-62225120D01*
X89836013Y-62286916D01*
X89775176Y-62321276D01*
X89747085Y-62324500D01*
X89466507Y-62324500D01*
X89366878Y-62340279D01*
X89246778Y-62401473D01*
X89246774Y-62401476D01*
X89151476Y-62496774D01*
X89151473Y-62496778D01*
X89090279Y-62616878D01*
X89074500Y-62716506D01*
X89074500Y-62753597D01*
X89054815Y-62820636D01*
X89002011Y-62866391D01*
X88932853Y-62876335D01*
X88878304Y-62851423D01*
X88877202Y-62852998D01*
X88868317Y-62846777D01*
X88868316Y-62846776D01*
X88759487Y-62796028D01*
X88759485Y-62796027D01*
X88759486Y-62796027D01*
X88709901Y-62789500D01*
X88290105Y-62789500D01*
X88274386Y-62791569D01*
X88240513Y-62796028D01*
X88240511Y-62796029D01*
X88240509Y-62796029D01*
X88131685Y-62846775D01*
X88070278Y-62908182D01*
X88043347Y-62922886D01*
X88017532Y-62939477D01*
X88011329Y-62940368D01*
X88008954Y-62941666D01*
X87982597Y-62944500D01*
X87933676Y-62944500D01*
X87866637Y-62924815D01*
X87845995Y-62908181D01*
X87807316Y-62869502D01*
X87807314Y-62869500D01*
X87724072Y-62821440D01*
X87693187Y-62803608D01*
X87629539Y-62786554D01*
X87565892Y-62769500D01*
X87434108Y-62769500D01*
X87306812Y-62803608D01*
X87192686Y-62869500D01*
X87192683Y-62869502D01*
X87099502Y-62962683D01*
X87099500Y-62962686D01*
X87033608Y-63076812D01*
X87024442Y-63111023D01*
X86999500Y-63204108D01*
X86999500Y-63204110D01*
X86998299Y-63208593D01*
X86983805Y-63232370D01*
X86972237Y-63257703D01*
X86965871Y-63261793D01*
X86961934Y-63268254D01*
X86936884Y-63280422D01*
X86913459Y-63295477D01*
X86902712Y-63297022D01*
X86899088Y-63298783D01*
X86878524Y-63300500D01*
X86874000Y-63300500D01*
X86806961Y-63280815D01*
X86761206Y-63228011D01*
X86750000Y-63176500D01*
X86750000Y-62797044D01*
X86769685Y-62730005D01*
X86786319Y-62709363D01*
X87608863Y-61886819D01*
X87670186Y-61853334D01*
X87696544Y-61850500D01*
X87995251Y-61850500D01*
X88062290Y-61870185D01*
X88105733Y-61918202D01*
X88145968Y-61997166D01*
X88150343Y-62005752D01*
X88150346Y-62005756D01*
X88244243Y-62099653D01*
X88244245Y-62099654D01*
X88244249Y-62099658D01*
X88362580Y-62159951D01*
X88362581Y-62159951D01*
X88362583Y-62159952D01*
X88362582Y-62159952D01*
X88460749Y-62175500D01*
X88460754Y-62175500D01*
X88964251Y-62175500D01*
X89062417Y-62159952D01*
X89062418Y-62159951D01*
X89062420Y-62159951D01*
X89180751Y-62099658D01*
X89274658Y-62005751D01*
X89334951Y-61887420D01*
X89334951Y-61887418D01*
X89334952Y-61887417D01*
X89350500Y-61789251D01*
X89350500Y-61210748D01*
X89334952Y-61112582D01*
X89314735Y-61072905D01*
X89274658Y-60994249D01*
X89274654Y-60994245D01*
X89274653Y-60994243D01*
X89180756Y-60900346D01*
X89180753Y-60900344D01*
X89180751Y-60900342D01*
X89062420Y-60840049D01*
X89062419Y-60840048D01*
X89062416Y-60840047D01*
X89062417Y-60840047D01*
X88964251Y-60824500D01*
X88964246Y-60824500D01*
X88460754Y-60824500D01*
X88460749Y-60824500D01*
X88362582Y-60840047D01*
X88293985Y-60875000D01*
X88244249Y-60900342D01*
X88244248Y-60900343D01*
X88244243Y-60900346D01*
X88150346Y-60994243D01*
X88150343Y-60994247D01*
X88150342Y-60994249D01*
X88105733Y-61081797D01*
X88057762Y-61132591D01*
X87995251Y-61149500D01*
X87453856Y-61149500D01*
X87364712Y-61173386D01*
X87364709Y-61173387D01*
X87284791Y-61219527D01*
X87284786Y-61219531D01*
X86812181Y-61692137D01*
X86750858Y-61725622D01*
X86681166Y-61720638D01*
X86625233Y-61678766D01*
X86600816Y-61613302D01*
X86600500Y-61604456D01*
X86600500Y-60277329D01*
X86620185Y-60210290D01*
X86668203Y-60166845D01*
X86753220Y-60123528D01*
X86848528Y-60028220D01*
X86860268Y-60005179D01*
X86879108Y-59968205D01*
X86927082Y-59917409D01*
X86954420Y-59905593D01*
X86971638Y-59900500D01*
X86996144Y-59900500D01*
X87085288Y-59876614D01*
X87107115Y-59864012D01*
X87165212Y-59830470D01*
X87208863Y-59786819D01*
X87270186Y-59753334D01*
X87296544Y-59750500D01*
X87315890Y-59750500D01*
X87315892Y-59750500D01*
X87443186Y-59716392D01*
X87557314Y-59650500D01*
X87650500Y-59557314D01*
X87716392Y-59443186D01*
X87750500Y-59315892D01*
X87750500Y-59184108D01*
X87716392Y-59056814D01*
X87650500Y-58942686D01*
X87557314Y-58849500D01*
X87467752Y-58797791D01*
X87443187Y-58783608D01*
X87356829Y-58760469D01*
X87315892Y-58749500D01*
X87184108Y-58749500D01*
X87056812Y-58783608D01*
X86942686Y-58849500D01*
X86858323Y-58933863D01*
X86837035Y-58945486D01*
X86818158Y-58960716D01*
X86806918Y-58961930D01*
X86796999Y-58967347D01*
X86772807Y-58965616D01*
X86748693Y-58968223D01*
X86732349Y-58962723D01*
X86727308Y-58962363D01*
X86715199Y-58957096D01*
X86714855Y-58956924D01*
X86633126Y-58915281D01*
X86630815Y-58914915D01*
X86620319Y-58909668D01*
X86601253Y-58891936D01*
X86579762Y-58877239D01*
X86576080Y-58868525D01*
X86569155Y-58862085D01*
X86562702Y-58836862D01*
X86552569Y-58812878D01*
X86554182Y-58803557D01*
X86551839Y-58794396D01*
X86560046Y-58769689D01*
X86564489Y-58744033D01*
X86570884Y-58737065D01*
X86573867Y-58728089D01*
X86594131Y-58711740D01*
X86611737Y-58692561D01*
X86627096Y-58685145D01*
X86628246Y-58684218D01*
X86629240Y-58684110D01*
X86632429Y-58682571D01*
X86729981Y-58646186D01*
X86729984Y-58646184D01*
X86839329Y-58564329D01*
X86921184Y-58454984D01*
X86921185Y-58454983D01*
X86968916Y-58327010D01*
X86974999Y-58270428D01*
X86975000Y-58270427D01*
X86975000Y-58125000D01*
X85490833Y-58125000D01*
X85480855Y-58122070D01*
X85470534Y-58123327D01*
X85447904Y-58112394D01*
X85423794Y-58105315D01*
X85415314Y-58096650D01*
X85407622Y-58092934D01*
X85395960Y-58078873D01*
X85384387Y-58076528D01*
X85292015Y-58029463D01*
X85292016Y-58029463D01*
X85200691Y-58015000D01*
X85125000Y-58015000D01*
X85125000Y-58421000D01*
X85122449Y-58429685D01*
X85123738Y-58438647D01*
X85112759Y-58462687D01*
X85105315Y-58488039D01*
X85098474Y-58493966D01*
X85094713Y-58502203D01*
X85072478Y-58516492D01*
X85052511Y-58533794D01*
X85041996Y-58536081D01*
X85035935Y-58539977D01*
X85001000Y-58545000D01*
X85000000Y-58545000D01*
X85000000Y-58546000D01*
X84980315Y-58613039D01*
X84927511Y-58658794D01*
X84876000Y-58670000D01*
X84418366Y-58670000D01*
X84404690Y-58677467D01*
X84334999Y-58672480D01*
X84279067Y-58630606D01*
X84270951Y-58618301D01*
X84245639Y-58574460D01*
X84240460Y-58565489D01*
X84184511Y-58509540D01*
X84049279Y-58374308D01*
X84440000Y-58374308D01*
X84440000Y-58420000D01*
X84875000Y-58420000D01*
X84875000Y-58015000D01*
X84874999Y-58014999D01*
X84799311Y-58015000D01*
X84707982Y-58029465D01*
X84597906Y-58085552D01*
X84597901Y-58085555D01*
X84510555Y-58172901D01*
X84510551Y-58172906D01*
X84454463Y-58282984D01*
X84440000Y-58374308D01*
X84049279Y-58374308D01*
X83871521Y-58196550D01*
X83838036Y-58135227D01*
X83837585Y-58084677D01*
X83850500Y-58019750D01*
X83850500Y-57729571D01*
X85525000Y-57729571D01*
X85525000Y-57875000D01*
X86125000Y-57875000D01*
X86375000Y-57875000D01*
X86974999Y-57875000D01*
X86974999Y-57729566D01*
X86974998Y-57729560D01*
X86968918Y-57672992D01*
X86921186Y-57545018D01*
X86921184Y-57545015D01*
X86839329Y-57435670D01*
X86729984Y-57353815D01*
X86729983Y-57353814D01*
X86602010Y-57306083D01*
X86545428Y-57300000D01*
X86375000Y-57300000D01*
X86375000Y-57875000D01*
X86125000Y-57875000D01*
X86125000Y-57300000D01*
X85954566Y-57300000D01*
X85954559Y-57300001D01*
X85897992Y-57306081D01*
X85770018Y-57353813D01*
X85770015Y-57353815D01*
X85660670Y-57435670D01*
X85578815Y-57545015D01*
X85578814Y-57545016D01*
X85531083Y-57672989D01*
X85525000Y-57729571D01*
X83850500Y-57729571D01*
X83850500Y-57116530D01*
X93179500Y-57116530D01*
X93179500Y-57323469D01*
X93219868Y-57526412D01*
X93219870Y-57526420D01*
X93299058Y-57717596D01*
X93414024Y-57889657D01*
X93560342Y-58035975D01*
X93560345Y-58035977D01*
X93732402Y-58150941D01*
X93923580Y-58230130D01*
X94126168Y-58270427D01*
X94126530Y-58270499D01*
X94126534Y-58270500D01*
X94126535Y-58270500D01*
X94333466Y-58270500D01*
X94333467Y-58270499D01*
X94536420Y-58230130D01*
X94727598Y-58150941D01*
X94899655Y-58035977D01*
X95045977Y-57889655D01*
X95160941Y-57717598D01*
X95240130Y-57526420D01*
X95280500Y-57323465D01*
X95280500Y-57116535D01*
X95240130Y-56913580D01*
X95160941Y-56722402D01*
X95045977Y-56550345D01*
X95045975Y-56550342D01*
X94899657Y-56404024D01*
X94747730Y-56302511D01*
X94727598Y-56289059D01*
X94536420Y-56209870D01*
X94536412Y-56209868D01*
X94333469Y-56169500D01*
X94333465Y-56169500D01*
X94126535Y-56169500D01*
X94126530Y-56169500D01*
X93923587Y-56209868D01*
X93923579Y-56209870D01*
X93732403Y-56289058D01*
X93560342Y-56404024D01*
X93414024Y-56550342D01*
X93299058Y-56722403D01*
X93219870Y-56913579D01*
X93219868Y-56913587D01*
X93179500Y-57116530D01*
X83850500Y-57116530D01*
X83850500Y-56980249D01*
X83850499Y-56980247D01*
X83838868Y-56921770D01*
X83838867Y-56921769D01*
X83794552Y-56855447D01*
X83745032Y-56822359D01*
X83700227Y-56768746D01*
X83691520Y-56699421D01*
X83707153Y-56661876D01*
X83705018Y-56660788D01*
X83765536Y-56542015D01*
X83780000Y-56450691D01*
X83780000Y-56375000D01*
X83374000Y-56375000D01*
X83365314Y-56372449D01*
X83356353Y-56373738D01*
X83332312Y-56362759D01*
X83306961Y-56355315D01*
X83301033Y-56348474D01*
X83292797Y-56344713D01*
X83278507Y-56322478D01*
X83261206Y-56302511D01*
X83258918Y-56291996D01*
X83255023Y-56285935D01*
X83250000Y-56251000D01*
X83250000Y-56250000D01*
X83249000Y-56250000D01*
X83181961Y-56230315D01*
X83136206Y-56177511D01*
X83125000Y-56126000D01*
X83125000Y-56125000D01*
X83375000Y-56125000D01*
X83779999Y-56125000D01*
X83779999Y-56049310D01*
X83765534Y-55957982D01*
X83709447Y-55847906D01*
X83709444Y-55847901D01*
X83622098Y-55760555D01*
X83622093Y-55760551D01*
X83512015Y-55704463D01*
X83420691Y-55690000D01*
X83375000Y-55690000D01*
X83375000Y-56125000D01*
X83125000Y-56125000D01*
X83125000Y-55690000D01*
X83079311Y-55690000D01*
X82987982Y-55704465D01*
X82877906Y-55760552D01*
X82877904Y-55760552D01*
X82822679Y-55815778D01*
X82761355Y-55849262D01*
X82691664Y-55844277D01*
X82647317Y-55815777D01*
X82628316Y-55796776D01*
X82594658Y-55781081D01*
X82519487Y-55746028D01*
X82519485Y-55746027D01*
X82519486Y-55746027D01*
X82469902Y-55739500D01*
X82110105Y-55739500D01*
X82094386Y-55741569D01*
X82060513Y-55746028D01*
X82060511Y-55746029D01*
X82060509Y-55746029D01*
X81951683Y-55796776D01*
X81866776Y-55881683D01*
X81816027Y-55990514D01*
X81809500Y-56040098D01*
X81809500Y-56459894D01*
X81809501Y-56459900D01*
X81816028Y-56509487D01*
X81816029Y-56509489D01*
X81816029Y-56509490D01*
X81871361Y-56628148D01*
X81869320Y-56629099D01*
X81886996Y-56681518D01*
X81869982Y-56749284D01*
X81819032Y-56797095D01*
X81787285Y-56808046D01*
X81771770Y-56811132D01*
X81771769Y-56811132D01*
X81705447Y-56855447D01*
X81661132Y-56921769D01*
X81661131Y-56921770D01*
X81649500Y-56980247D01*
X81649500Y-58019752D01*
X81661131Y-58078229D01*
X81661132Y-58078230D01*
X81705447Y-58144552D01*
X81771769Y-58188867D01*
X81771770Y-58188868D01*
X81830247Y-58200499D01*
X81830250Y-58200500D01*
X81830252Y-58200500D01*
X82974167Y-58200500D01*
X83041206Y-58220185D01*
X83061848Y-58236819D01*
X83663181Y-58838152D01*
X83677884Y-58865079D01*
X83694477Y-58890898D01*
X83695368Y-58897098D01*
X83696666Y-58899475D01*
X83699500Y-58925833D01*
X83699500Y-59175500D01*
X83679815Y-59242539D01*
X83627011Y-59288294D01*
X83575500Y-59299500D01*
X81830247Y-59299500D01*
X81771770Y-59311131D01*
X81771770Y-59311132D01*
X81749312Y-59326138D01*
X81682634Y-59347015D01*
X81615254Y-59328530D01*
X81568565Y-59276551D01*
X81557389Y-59207581D01*
X81557949Y-59203634D01*
X81560000Y-59190686D01*
X81560000Y-59145000D01*
X81124000Y-59145000D01*
X81115314Y-59142449D01*
X81106353Y-59143738D01*
X81082312Y-59132759D01*
X81056961Y-59125315D01*
X81051033Y-59118474D01*
X81042797Y-59114713D01*
X81028507Y-59092478D01*
X81011206Y-59072511D01*
X81008918Y-59061996D01*
X81005023Y-59055935D01*
X81000000Y-59021000D01*
X81000000Y-59020000D01*
X80999000Y-59020000D01*
X80931961Y-59000315D01*
X80886206Y-58947511D01*
X80875000Y-58896000D01*
X80875000Y-58895000D01*
X81125000Y-58895000D01*
X81559999Y-58895000D01*
X81559999Y-58849310D01*
X81545534Y-58757982D01*
X81489447Y-58647906D01*
X81489444Y-58647901D01*
X81402098Y-58560555D01*
X81402093Y-58560551D01*
X81292015Y-58504463D01*
X81200691Y-58490000D01*
X81125000Y-58490000D01*
X81125000Y-58895000D01*
X80875000Y-58895000D01*
X80875000Y-58490000D01*
X80874998Y-58489999D01*
X80863500Y-58489999D01*
X80796461Y-58470314D01*
X80750706Y-58417510D01*
X80739500Y-58365999D01*
X80739500Y-57817858D01*
X80739500Y-57817856D01*
X80715614Y-57728712D01*
X80715611Y-57728706D01*
X80669473Y-57648794D01*
X80669470Y-57648791D01*
X80669469Y-57648788D01*
X80604212Y-57583531D01*
X79711819Y-56691137D01*
X79678334Y-56629814D01*
X79675500Y-56603456D01*
X79675500Y-56216506D01*
X79659720Y-56116878D01*
X79659719Y-56116876D01*
X79659719Y-56116874D01*
X79598528Y-55996780D01*
X79598526Y-55996778D01*
X79598523Y-55996774D01*
X79503225Y-55901476D01*
X79503221Y-55901473D01*
X79503220Y-55901472D01*
X79383126Y-55840281D01*
X79383124Y-55840280D01*
X79383121Y-55840279D01*
X79283493Y-55824500D01*
X79283488Y-55824500D01*
X79121544Y-55824500D01*
X79054505Y-55804815D01*
X79033863Y-55788181D01*
X78786819Y-55541137D01*
X78753334Y-55479814D01*
X78750500Y-55453456D01*
X78750500Y-55434110D01*
X78750500Y-55434108D01*
X78716392Y-55306814D01*
X78650500Y-55192686D01*
X78557314Y-55099500D01*
X78465592Y-55046544D01*
X78443187Y-55033608D01*
X78379539Y-55016554D01*
X78315892Y-54999500D01*
X78184108Y-54999500D01*
X78056812Y-55033608D01*
X77942686Y-55099500D01*
X77942683Y-55099502D01*
X77849502Y-55192683D01*
X77849500Y-55192686D01*
X77783608Y-55306812D01*
X77763890Y-55380404D01*
X77749500Y-55434108D01*
X77749500Y-55565892D01*
X77763705Y-55618909D01*
X77762043Y-55688756D01*
X77722881Y-55746619D01*
X77658653Y-55774123D01*
X77643931Y-55775000D01*
X77600000Y-55775000D01*
X77600000Y-56775500D01*
X77597449Y-56784185D01*
X77598738Y-56793147D01*
X77587759Y-56817187D01*
X77580315Y-56842539D01*
X77573474Y-56848466D01*
X77569713Y-56856703D01*
X77547478Y-56870992D01*
X77527511Y-56888294D01*
X77516996Y-56890581D01*
X77510935Y-56894477D01*
X77476000Y-56899500D01*
X77474000Y-56899500D01*
X77406961Y-56879815D01*
X77361206Y-56827011D01*
X77350000Y-56775500D01*
X77350000Y-56625000D01*
X76775001Y-56625000D01*
X76775001Y-56775500D01*
X76772450Y-56784185D01*
X76773739Y-56793147D01*
X76762760Y-56817187D01*
X76755316Y-56842539D01*
X76748475Y-56848466D01*
X76744714Y-56856703D01*
X76722479Y-56870992D01*
X76702512Y-56888294D01*
X76691997Y-56890581D01*
X76685936Y-56894477D01*
X76651001Y-56899500D01*
X76525890Y-56899500D01*
X76458851Y-56879815D01*
X76438209Y-56863181D01*
X76235819Y-56660791D01*
X76202334Y-56599468D01*
X76199500Y-56573110D01*
X76199500Y-56204571D01*
X76775000Y-56204571D01*
X76775000Y-56375000D01*
X77350000Y-56375000D01*
X77350000Y-55775000D01*
X77204566Y-55775000D01*
X77204559Y-55775001D01*
X77147992Y-55781081D01*
X77020018Y-55828813D01*
X77020015Y-55828815D01*
X76910670Y-55910670D01*
X76828815Y-56020015D01*
X76828814Y-56020016D01*
X76781083Y-56147989D01*
X76775000Y-56204571D01*
X76199500Y-56204571D01*
X76199500Y-54744544D01*
X76219185Y-54677505D01*
X76271989Y-54631750D01*
X76341147Y-54621806D01*
X76404703Y-54650831D01*
X76411181Y-54656863D01*
X76443514Y-54689196D01*
X76443515Y-54689196D01*
X76443517Y-54689198D01*
X76548607Y-54740573D01*
X76575862Y-54744544D01*
X76616739Y-54750500D01*
X76616740Y-54750500D01*
X76983261Y-54750500D01*
X77005971Y-54747191D01*
X77051393Y-54740573D01*
X77156483Y-54689198D01*
X77239198Y-54606483D01*
X77290573Y-54501393D01*
X77300500Y-54433260D01*
X77300500Y-53341740D01*
X77290573Y-53273607D01*
X77239198Y-53168517D01*
X77239196Y-53168515D01*
X77239196Y-53168514D01*
X77178863Y-53108181D01*
X77145378Y-53046858D01*
X77150362Y-52977166D01*
X77192234Y-52921233D01*
X77257698Y-52896816D01*
X77266544Y-52896500D01*
X78233456Y-52896500D01*
X78300495Y-52916185D01*
X78346250Y-52968989D01*
X78356194Y-53038147D01*
X78327169Y-53101703D01*
X78321137Y-53108181D01*
X78260803Y-53168514D01*
X78209426Y-53273608D01*
X78199500Y-53341739D01*
X78199500Y-54433260D01*
X78209426Y-54501391D01*
X78260803Y-54606485D01*
X78343514Y-54689196D01*
X78343515Y-54689196D01*
X78343517Y-54689198D01*
X78448607Y-54740573D01*
X78475862Y-54744544D01*
X78516739Y-54750500D01*
X78516740Y-54750500D01*
X78674580Y-54750500D01*
X78704020Y-54759144D01*
X78734007Y-54765668D01*
X78739022Y-54769422D01*
X78741619Y-54770185D01*
X78762261Y-54786819D01*
X78934305Y-54958863D01*
X78967790Y-55020186D01*
X78970624Y-55046544D01*
X78970624Y-55065892D01*
X78982734Y-55111089D01*
X79004732Y-55193187D01*
X79022705Y-55224316D01*
X79070624Y-55307314D01*
X79163810Y-55400500D01*
X79255532Y-55453456D01*
X79273907Y-55464065D01*
X79277938Y-55466392D01*
X79405232Y-55500500D01*
X79405234Y-55500500D01*
X79537014Y-55500500D01*
X79537016Y-55500500D01*
X79664310Y-55466392D01*
X79778438Y-55400500D01*
X79871624Y-55307314D01*
X79921146Y-55221539D01*
X83720001Y-55221539D01*
X83730903Y-55296374D01*
X83787336Y-55411810D01*
X83878189Y-55502663D01*
X83993625Y-55559096D01*
X84068464Y-55569999D01*
X84114999Y-55569999D01*
X84115000Y-55569998D01*
X84115000Y-55125000D01*
X83720001Y-55125000D01*
X83720001Y-55221539D01*
X79921146Y-55221539D01*
X79937516Y-55193186D01*
X79971624Y-55065892D01*
X79971624Y-54934108D01*
X79961613Y-54896747D01*
X79961898Y-54884746D01*
X79957704Y-54873499D01*
X79962714Y-54850465D01*
X79963276Y-54826899D01*
X79970376Y-54815250D01*
X79972557Y-54805226D01*
X79993704Y-54776977D01*
X80058865Y-54711817D01*
X80120189Y-54678333D01*
X80146545Y-54675500D01*
X80533493Y-54675500D01*
X80633121Y-54659720D01*
X80633121Y-54659719D01*
X80633126Y-54659719D01*
X80753220Y-54598528D01*
X80848528Y-54503220D01*
X80909719Y-54383126D01*
X80911798Y-54369999D01*
X80925500Y-54283493D01*
X80925500Y-54021539D01*
X82470001Y-54021539D01*
X82480903Y-54096374D01*
X82537336Y-54211810D01*
X82628189Y-54302663D01*
X82743625Y-54359096D01*
X82818464Y-54369999D01*
X82864999Y-54369999D01*
X82865000Y-54369998D01*
X82865000Y-53925000D01*
X82470001Y-53925000D01*
X82470001Y-54021539D01*
X80925500Y-54021539D01*
X80925500Y-53766506D01*
X80909720Y-53666878D01*
X80909719Y-53666876D01*
X80909719Y-53666874D01*
X80848528Y-53546780D01*
X80848526Y-53546778D01*
X80848523Y-53546774D01*
X80753225Y-53451476D01*
X80753221Y-53451473D01*
X80753220Y-53451472D01*
X80633126Y-53390281D01*
X80633123Y-53390280D01*
X80624430Y-53385851D01*
X80625587Y-53383578D01*
X80579762Y-53352239D01*
X80552569Y-53287878D01*
X80564489Y-53219033D01*
X80611737Y-53167561D01*
X80632429Y-53157571D01*
X80729981Y-53121186D01*
X80729984Y-53121184D01*
X80839329Y-53039329D01*
X80852646Y-53021539D01*
X81720001Y-53021539D01*
X81730903Y-53096374D01*
X81787336Y-53211810D01*
X81878189Y-53302663D01*
X81993625Y-53359096D01*
X82068464Y-53369999D01*
X82114999Y-53369999D01*
X82115000Y-53369998D01*
X82115000Y-52925000D01*
X81720001Y-52925000D01*
X81720001Y-53021539D01*
X80852646Y-53021539D01*
X80921184Y-52929984D01*
X80921185Y-52929983D01*
X80958364Y-52830304D01*
X80958364Y-52830303D01*
X80968916Y-52802012D01*
X80974999Y-52745428D01*
X80975000Y-52745427D01*
X80975000Y-52600000D01*
X79525001Y-52600000D01*
X79525001Y-52745439D01*
X79531081Y-52802007D01*
X79578813Y-52929981D01*
X79578815Y-52929984D01*
X79660670Y-53039329D01*
X79770015Y-53121184D01*
X79770018Y-53121186D01*
X79867570Y-53157571D01*
X79923504Y-53199442D01*
X79947921Y-53264907D01*
X79933069Y-53333180D01*
X79883664Y-53382585D01*
X79872717Y-53387304D01*
X79746778Y-53451473D01*
X79746774Y-53451476D01*
X79651476Y-53546774D01*
X79651473Y-53546778D01*
X79590279Y-53666878D01*
X79574500Y-53766506D01*
X79574500Y-54153456D01*
X79565855Y-54182896D01*
X79559332Y-54212883D01*
X79555577Y-54217898D01*
X79554815Y-54220495D01*
X79538181Y-54241137D01*
X79460743Y-54318575D01*
X79399420Y-54352060D01*
X79329728Y-54347076D01*
X79285381Y-54318575D01*
X79236819Y-54270013D01*
X79203334Y-54208690D01*
X79200500Y-54182332D01*
X79200500Y-53341739D01*
X79192369Y-53285932D01*
X79190573Y-53273607D01*
X79139198Y-53168517D01*
X79139196Y-53168515D01*
X79139196Y-53168514D01*
X79056485Y-53085803D01*
X78951391Y-53034426D01*
X78883261Y-53024500D01*
X78883260Y-53024500D01*
X78520544Y-53024500D01*
X78453505Y-53004815D01*
X78407750Y-52952011D01*
X78397806Y-52882853D01*
X78426831Y-52819297D01*
X78432863Y-52812819D01*
X78667218Y-52578464D01*
X81720000Y-52578464D01*
X81720000Y-52675000D01*
X82115000Y-52675000D01*
X82115000Y-52230000D01*
X82068465Y-52230000D01*
X81993626Y-52240903D01*
X81878189Y-52297336D01*
X81787336Y-52388189D01*
X81730903Y-52503625D01*
X81720000Y-52578464D01*
X78667218Y-52578464D01*
X78733863Y-52511819D01*
X78795186Y-52478334D01*
X78821544Y-52475500D01*
X78883261Y-52475500D01*
X78905971Y-52472191D01*
X78951393Y-52465573D01*
X79056483Y-52414198D01*
X79139198Y-52331483D01*
X79190573Y-52226393D01*
X79193752Y-52204571D01*
X79525000Y-52204571D01*
X79525000Y-52350000D01*
X80125000Y-52350000D01*
X80375000Y-52350000D01*
X80974999Y-52350000D01*
X80974999Y-52204566D01*
X80974998Y-52204560D01*
X80968918Y-52147992D01*
X80921186Y-52020018D01*
X80921184Y-52020015D01*
X80839329Y-51910670D01*
X80729984Y-51828815D01*
X80729983Y-51828814D01*
X80602010Y-51781083D01*
X80545428Y-51775000D01*
X80375000Y-51775000D01*
X80375000Y-52350000D01*
X80125000Y-52350000D01*
X80125000Y-51775000D01*
X79954566Y-51775000D01*
X79954559Y-51775001D01*
X79897992Y-51781081D01*
X79770018Y-51828813D01*
X79770015Y-51828815D01*
X79660670Y-51910670D01*
X79578815Y-52020015D01*
X79578814Y-52020016D01*
X79531083Y-52147989D01*
X79525000Y-52204571D01*
X79193752Y-52204571D01*
X79200500Y-52158260D01*
X79200500Y-51066740D01*
X79199817Y-51062055D01*
X79190573Y-50998608D01*
X79179925Y-50976827D01*
X79139198Y-50893517D01*
X79139196Y-50893515D01*
X79139196Y-50893514D01*
X79086819Y-50841137D01*
X79076118Y-50821539D01*
X81970001Y-50821539D01*
X81980903Y-50896374D01*
X82037336Y-51011810D01*
X82128189Y-51102663D01*
X82243625Y-51159096D01*
X82318464Y-51169999D01*
X82364999Y-51169999D01*
X82365000Y-51169998D01*
X82365000Y-50725000D01*
X81970001Y-50725000D01*
X81970001Y-50821539D01*
X79076118Y-50821539D01*
X79072115Y-50814209D01*
X79055523Y-50788391D01*
X79054631Y-50782190D01*
X79053334Y-50779814D01*
X79050500Y-50753456D01*
X79050500Y-50549500D01*
X79070185Y-50482461D01*
X79122989Y-50436706D01*
X79174500Y-50425500D01*
X79533493Y-50425500D01*
X79633121Y-50409720D01*
X79633121Y-50409719D01*
X79633126Y-50409719D01*
X79753220Y-50348528D01*
X79848528Y-50253220D01*
X79850573Y-50249205D01*
X79898547Y-50198409D01*
X79961058Y-50181500D01*
X81855321Y-50181500D01*
X81922360Y-50201185D01*
X81968115Y-50253989D01*
X81978059Y-50323147D01*
X81978025Y-50323378D01*
X81970000Y-50378458D01*
X81970000Y-50475000D01*
X82366000Y-50475000D01*
X82374685Y-50477550D01*
X82383647Y-50476262D01*
X82407687Y-50487240D01*
X82433039Y-50494685D01*
X82438966Y-50501525D01*
X82447203Y-50505287D01*
X82461492Y-50527521D01*
X82478794Y-50547489D01*
X82481081Y-50558003D01*
X82484977Y-50564065D01*
X82490000Y-50599000D01*
X82490000Y-50600000D01*
X82491000Y-50600000D01*
X82558039Y-50619685D01*
X82603794Y-50672489D01*
X82615000Y-50724000D01*
X82615000Y-51170790D01*
X82647533Y-51230370D01*
X82642549Y-51300062D01*
X82614048Y-51344409D01*
X82560555Y-51397901D01*
X82560551Y-51397906D01*
X82504463Y-51507984D01*
X82490000Y-51599308D01*
X82490000Y-51675000D01*
X82895000Y-51675000D01*
X82895000Y-51239999D01*
X82892418Y-51237417D01*
X82858933Y-51176094D01*
X82863917Y-51106402D01*
X82892418Y-51062055D01*
X82947321Y-51007152D01*
X83008644Y-50973667D01*
X83078336Y-50978651D01*
X83122683Y-51007152D01*
X83162584Y-51047053D01*
X83196069Y-51108376D01*
X83191085Y-51178068D01*
X83162585Y-51222414D01*
X83145000Y-51239999D01*
X83145000Y-51676000D01*
X83142449Y-51684685D01*
X83143738Y-51693647D01*
X83132759Y-51717687D01*
X83125315Y-51743039D01*
X83118474Y-51748966D01*
X83114713Y-51757203D01*
X83092478Y-51771492D01*
X83072511Y-51788794D01*
X83061996Y-51791081D01*
X83055935Y-51794977D01*
X83021000Y-51800000D01*
X83020000Y-51800000D01*
X83020000Y-51801000D01*
X83000315Y-51868039D01*
X82947511Y-51913794D01*
X82896000Y-51925000D01*
X82490001Y-51925000D01*
X82490001Y-52000695D01*
X82503607Y-52086603D01*
X82494652Y-52155896D01*
X82449656Y-52209348D01*
X82382904Y-52229987D01*
X82381134Y-52230000D01*
X82365000Y-52230000D01*
X82365000Y-53369999D01*
X82368326Y-53373325D01*
X82424036Y-53389684D01*
X82469791Y-53442488D01*
X82479735Y-53511646D01*
X82479701Y-53511877D01*
X82470000Y-53578458D01*
X82470000Y-53675000D01*
X82866000Y-53675000D01*
X82874685Y-53677550D01*
X82883647Y-53676262D01*
X82907687Y-53687240D01*
X82933039Y-53694685D01*
X82938966Y-53701525D01*
X82947203Y-53705287D01*
X82961492Y-53727521D01*
X82978794Y-53747489D01*
X82981081Y-53758003D01*
X82984977Y-53764065D01*
X82990000Y-53799000D01*
X82990000Y-53800000D01*
X82991000Y-53800000D01*
X83058039Y-53819685D01*
X83103794Y-53872489D01*
X83115000Y-53924000D01*
X83115000Y-54369999D01*
X83161540Y-54369999D01*
X83236374Y-54359096D01*
X83351808Y-54302664D01*
X83447320Y-54207152D01*
X83508643Y-54173667D01*
X83578335Y-54178651D01*
X83622683Y-54207152D01*
X83679596Y-54264065D01*
X83786827Y-54314068D01*
X83786830Y-54314068D01*
X83795938Y-54316724D01*
X83795051Y-54319764D01*
X83844094Y-54341451D01*
X83882574Y-54399769D01*
X83883417Y-54469634D01*
X83851709Y-54523817D01*
X83787335Y-54588191D01*
X83730903Y-54703625D01*
X83720000Y-54778464D01*
X83720000Y-54875000D01*
X84116000Y-54875000D01*
X84124685Y-54877550D01*
X84133647Y-54876262D01*
X84157687Y-54887240D01*
X84183039Y-54894685D01*
X84188966Y-54901525D01*
X84197203Y-54905287D01*
X84211492Y-54927521D01*
X84228794Y-54947489D01*
X84231081Y-54958003D01*
X84234977Y-54964065D01*
X84240000Y-54999000D01*
X84240000Y-55000000D01*
X84241000Y-55000000D01*
X84308039Y-55019685D01*
X84353794Y-55072489D01*
X84365000Y-55124000D01*
X84365000Y-55569999D01*
X84411540Y-55569999D01*
X84486374Y-55559096D01*
X84601808Y-55502664D01*
X84697320Y-55407152D01*
X84758643Y-55373667D01*
X84828335Y-55378651D01*
X84872683Y-55407152D01*
X84929596Y-55464065D01*
X85036827Y-55514068D01*
X85085683Y-55520500D01*
X85085684Y-55520500D01*
X85434317Y-55520500D01*
X85450601Y-55518356D01*
X85483173Y-55514068D01*
X85590404Y-55464065D01*
X85674065Y-55380404D01*
X85724068Y-55273173D01*
X85730500Y-55224316D01*
X85730500Y-54775684D01*
X85724068Y-54726827D01*
X85700839Y-54677014D01*
X85697443Y-54654652D01*
X85689538Y-54633459D01*
X85692297Y-54620773D01*
X85690348Y-54607939D01*
X85699581Y-54587288D01*
X85704389Y-54565186D01*
X85716990Y-54548352D01*
X85718867Y-54544155D01*
X85725540Y-54536931D01*
X85760780Y-54501690D01*
X85822102Y-54468204D01*
X85872652Y-54467753D01*
X85911599Y-54475500D01*
X86088400Y-54475499D01*
X86090837Y-54475014D01*
X86092140Y-54475130D01*
X86094463Y-54474902D01*
X86094506Y-54475342D01*
X86160427Y-54481237D01*
X86205551Y-54511879D01*
X86215293Y-54522284D01*
X86219531Y-54529624D01*
X86260885Y-54570978D01*
X86262267Y-54572454D01*
X86277112Y-54601904D01*
X86292916Y-54630847D01*
X86292765Y-54632957D01*
X86293717Y-54634846D01*
X86290284Y-54667638D01*
X86287932Y-54700539D01*
X86286629Y-54702566D01*
X86286444Y-54704336D01*
X86281632Y-54710341D01*
X86259432Y-54744885D01*
X86219531Y-54784786D01*
X86219527Y-54784791D01*
X86173504Y-54864505D01*
X86173505Y-54864506D01*
X86173385Y-54864713D01*
X86149500Y-54953856D01*
X86149500Y-55091324D01*
X86129815Y-55158363D01*
X86113181Y-55179005D01*
X86099502Y-55192683D01*
X86099500Y-55192686D01*
X86033608Y-55306812D01*
X86013890Y-55380404D01*
X85999500Y-55434108D01*
X85999500Y-55565892D01*
X86002983Y-55578890D01*
X86033608Y-55693187D01*
X86055151Y-55730499D01*
X86099500Y-55807314D01*
X86192686Y-55900500D01*
X86306814Y-55966392D01*
X86434108Y-56000500D01*
X86434110Y-56000500D01*
X86565890Y-56000500D01*
X86565892Y-56000500D01*
X86693186Y-55966392D01*
X86807314Y-55900500D01*
X86824006Y-55883807D01*
X86885326Y-55850322D01*
X86955018Y-55855305D01*
X86967982Y-55861003D01*
X86971778Y-55862937D01*
X86971780Y-55862939D01*
X87091874Y-55924130D01*
X87091876Y-55924130D01*
X87091878Y-55924131D01*
X87191507Y-55939911D01*
X87191512Y-55939911D01*
X87708493Y-55939911D01*
X87808121Y-55924131D01*
X87808121Y-55924130D01*
X87808126Y-55924130D01*
X87928220Y-55862939D01*
X88023528Y-55767631D01*
X88084719Y-55647537D01*
X88084719Y-55647534D01*
X88089149Y-55638841D01*
X88091423Y-55639999D01*
X88122742Y-55594188D01*
X88187098Y-55566983D01*
X88255946Y-55578890D01*
X88307427Y-55626129D01*
X88317428Y-55646839D01*
X88353814Y-55744393D01*
X88353815Y-55744395D01*
X88435670Y-55853740D01*
X88545015Y-55935595D01*
X88545016Y-55935596D01*
X88672991Y-55983328D01*
X88672994Y-55983329D01*
X88729555Y-55989410D01*
X88874999Y-55989410D01*
X89125000Y-55989410D01*
X89270433Y-55989410D01*
X89270439Y-55989409D01*
X89327007Y-55983329D01*
X89454981Y-55935597D01*
X89454984Y-55935595D01*
X89564329Y-55853740D01*
X89646184Y-55744395D01*
X89646185Y-55744394D01*
X89693916Y-55616421D01*
X89699999Y-55559839D01*
X89700000Y-55559838D01*
X89700000Y-55389411D01*
X89125000Y-55389411D01*
X89125000Y-55989410D01*
X88874999Y-55989410D01*
X88875000Y-55989409D01*
X88875000Y-55139411D01*
X89125000Y-55139411D01*
X89699999Y-55139411D01*
X89699999Y-54968977D01*
X89699998Y-54968971D01*
X89693918Y-54912403D01*
X89646186Y-54784429D01*
X89646184Y-54784426D01*
X89564330Y-54675082D01*
X89557155Y-54669711D01*
X89557154Y-54669710D01*
X89454984Y-54593226D01*
X89454983Y-54593225D01*
X89410222Y-54576530D01*
X93179500Y-54576530D01*
X93179500Y-54783469D01*
X93219868Y-54986412D01*
X93219870Y-54986420D01*
X93291091Y-55158363D01*
X93299059Y-55177598D01*
X93309475Y-55193187D01*
X93414024Y-55349657D01*
X93560342Y-55495975D01*
X93560345Y-55495977D01*
X93732402Y-55610941D01*
X93923580Y-55690130D01*
X94126530Y-55730499D01*
X94126534Y-55730500D01*
X94126535Y-55730500D01*
X94333466Y-55730500D01*
X94333467Y-55730499D01*
X94536420Y-55690130D01*
X94727598Y-55610941D01*
X94899655Y-55495977D01*
X95045977Y-55349655D01*
X95160941Y-55177598D01*
X95240130Y-54986420D01*
X95280500Y-54783465D01*
X95280500Y-54576535D01*
X95240130Y-54373580D01*
X95160941Y-54182402D01*
X95045977Y-54010345D01*
X95045975Y-54010342D01*
X94899657Y-53864024D01*
X94803837Y-53800000D01*
X94727598Y-53749059D01*
X94696568Y-53736206D01*
X94536420Y-53669870D01*
X94536412Y-53669868D01*
X94333469Y-53629500D01*
X94333465Y-53629500D01*
X94126535Y-53629500D01*
X94126530Y-53629500D01*
X93923587Y-53669868D01*
X93923579Y-53669870D01*
X93732403Y-53749058D01*
X93560342Y-53864024D01*
X93414024Y-54010342D01*
X93299058Y-54182403D01*
X93219870Y-54373579D01*
X93219868Y-54373587D01*
X93179500Y-54576530D01*
X89410222Y-54576530D01*
X89327010Y-54545494D01*
X89270428Y-54539411D01*
X89125000Y-54539411D01*
X89125000Y-55139411D01*
X88875000Y-55139411D01*
X88875000Y-54539411D01*
X88729566Y-54539411D01*
X88729559Y-54539412D01*
X88672992Y-54545492D01*
X88545018Y-54593224D01*
X88545015Y-54593226D01*
X88435670Y-54675081D01*
X88353815Y-54784426D01*
X88353811Y-54784433D01*
X88317427Y-54881982D01*
X88275556Y-54937916D01*
X88210091Y-54962332D01*
X88141818Y-54947480D01*
X88092413Y-54898074D01*
X88087693Y-54887125D01*
X88084719Y-54881289D01*
X88084719Y-54881285D01*
X88023528Y-54761191D01*
X88023526Y-54761189D01*
X88023523Y-54761185D01*
X87928225Y-54665887D01*
X87928222Y-54665885D01*
X87928220Y-54665883D01*
X87830432Y-54616057D01*
X87779638Y-54568084D01*
X87762843Y-54500263D01*
X87785380Y-54434128D01*
X87799049Y-54417891D01*
X87822434Y-54394506D01*
X87869009Y-54294626D01*
X87875000Y-54249122D01*
X87875000Y-53962500D01*
X87624000Y-53962500D01*
X87615314Y-53959949D01*
X87606353Y-53961238D01*
X87582312Y-53950259D01*
X87556961Y-53942815D01*
X87551033Y-53935974D01*
X87542797Y-53932213D01*
X87528507Y-53909978D01*
X87511206Y-53890011D01*
X87508918Y-53879496D01*
X87505023Y-53873435D01*
X87500000Y-53838500D01*
X87500000Y-53837500D01*
X87499000Y-53837500D01*
X87431961Y-53817815D01*
X87386206Y-53765011D01*
X87375000Y-53713500D01*
X87375000Y-53712500D01*
X87625000Y-53712500D01*
X87874999Y-53712500D01*
X87874999Y-53648999D01*
X87894684Y-53581960D01*
X87947488Y-53536205D01*
X87998999Y-53524999D01*
X88062500Y-53524999D01*
X88062500Y-53275000D01*
X87625000Y-53275000D01*
X87625000Y-53712500D01*
X87375000Y-53712500D01*
X87375000Y-53248962D01*
X87372834Y-53244996D01*
X87370000Y-53218638D01*
X87370000Y-53154064D01*
X87355372Y-53155990D01*
X87246924Y-53206561D01*
X87177846Y-53217053D01*
X87170327Y-53215796D01*
X87088403Y-53199500D01*
X86911601Y-53199500D01*
X86834880Y-53214760D01*
X86818889Y-53225446D01*
X86752212Y-53246323D01*
X86684832Y-53227837D01*
X86681111Y-53225446D01*
X86665117Y-53214759D01*
X86588403Y-53199500D01*
X86411601Y-53199500D01*
X86334880Y-53214760D01*
X86318889Y-53225446D01*
X86252212Y-53246323D01*
X86218023Y-53242149D01*
X86198182Y-53236853D01*
X86165117Y-53214760D01*
X86088401Y-53199500D01*
X86058235Y-53199500D01*
X86042522Y-53195306D01*
X86026005Y-53185260D01*
X86007460Y-53179815D01*
X85996772Y-53167481D01*
X85982826Y-53158999D01*
X85974362Y-53141618D01*
X85961705Y-53127011D01*
X85957228Y-53106433D01*
X85952236Y-53096181D01*
X85953210Y-53087963D01*
X85950499Y-53075500D01*
X85950499Y-53061602D01*
X85950499Y-53061600D01*
X85935240Y-52984883D01*
X85935239Y-52984881D01*
X85935238Y-52984878D01*
X85924555Y-52968891D01*
X85903676Y-52902214D01*
X85922160Y-52834833D01*
X85924517Y-52831164D01*
X85935240Y-52815117D01*
X85950500Y-52738401D01*
X85950499Y-52561600D01*
X85935240Y-52484883D01*
X85935239Y-52484881D01*
X85935238Y-52484878D01*
X85924555Y-52468891D01*
X85903676Y-52402214D01*
X85922160Y-52334833D01*
X85924517Y-52331164D01*
X85935240Y-52315117D01*
X85950500Y-52238401D01*
X85950499Y-52061600D01*
X85935240Y-51984883D01*
X85935239Y-51984881D01*
X85935238Y-51984878D01*
X85924555Y-51968891D01*
X85903676Y-51902214D01*
X85907850Y-51868021D01*
X85913144Y-51848185D01*
X85935240Y-51815117D01*
X85950500Y-51738401D01*
X85950499Y-51708234D01*
X85954694Y-51692521D01*
X85964739Y-51676004D01*
X85970185Y-51657460D01*
X85982518Y-51646772D01*
X85991002Y-51632825D01*
X86008382Y-51624361D01*
X86022989Y-51611705D01*
X86043566Y-51607228D01*
X86053819Y-51602236D01*
X86062036Y-51603210D01*
X86074500Y-51600499D01*
X86088398Y-51600499D01*
X86088400Y-51600499D01*
X86165117Y-51585240D01*
X86181107Y-51574555D01*
X86247783Y-51553676D01*
X86315164Y-51572159D01*
X86318871Y-51574541D01*
X86334880Y-51585238D01*
X86334883Y-51585240D01*
X86334887Y-51585241D01*
X86373241Y-51592870D01*
X86411599Y-51600500D01*
X86588400Y-51600499D01*
X86665117Y-51585240D01*
X86681107Y-51574555D01*
X86747783Y-51553676D01*
X86815164Y-51572159D01*
X86818871Y-51574541D01*
X86834880Y-51585238D01*
X86834883Y-51585240D01*
X86834887Y-51585241D01*
X86873241Y-51592870D01*
X86911599Y-51600500D01*
X87088400Y-51600499D01*
X87165117Y-51585240D01*
X87181107Y-51574555D01*
X87200184Y-51568581D01*
X87217195Y-51558074D01*
X87232845Y-51558353D01*
X87247783Y-51553676D01*
X87267064Y-51558964D01*
X87287053Y-51559322D01*
X87312166Y-51571336D01*
X87315164Y-51572159D01*
X87318871Y-51574541D01*
X87334880Y-51585238D01*
X87334883Y-51585240D01*
X87334887Y-51585241D01*
X87409424Y-51600068D01*
X87471335Y-51632453D01*
X87505909Y-51693169D01*
X87502170Y-51762938D01*
X87501883Y-51763427D01*
X87505990Y-51794624D01*
X87505991Y-51794629D01*
X87556561Y-51903075D01*
X87567053Y-51972152D01*
X87565796Y-51979671D01*
X87549500Y-52061595D01*
X87549500Y-52238398D01*
X87564760Y-52315119D01*
X87575446Y-52331111D01*
X87596323Y-52397788D01*
X87577837Y-52465168D01*
X87575446Y-52468889D01*
X87564759Y-52484882D01*
X87549500Y-52561596D01*
X87549500Y-52738398D01*
X87550901Y-52745439D01*
X87564759Y-52815114D01*
X87565797Y-52820329D01*
X87564533Y-52837122D01*
X87567949Y-52852066D01*
X87561497Y-52877478D01*
X87560809Y-52886631D01*
X87512653Y-53020000D01*
X87568638Y-53020000D01*
X87585666Y-53025000D01*
X88063500Y-53025000D01*
X88130539Y-53044685D01*
X88176294Y-53097489D01*
X88187500Y-53149000D01*
X88187500Y-53150000D01*
X88188500Y-53150000D01*
X88255539Y-53169685D01*
X88301294Y-53222489D01*
X88312500Y-53274000D01*
X88312500Y-53524999D01*
X88599115Y-53524999D01*
X88644630Y-53519007D01*
X88744509Y-53472432D01*
X88822433Y-53394508D01*
X88869009Y-53294627D01*
X88873482Y-53260655D01*
X88901748Y-53196758D01*
X88960073Y-53158287D01*
X88996421Y-53152840D01*
X89065890Y-53152840D01*
X89065892Y-53152840D01*
X89193186Y-53118732D01*
X89307314Y-53052840D01*
X89320995Y-53039159D01*
X89382318Y-53005674D01*
X89408676Y-53002840D01*
X90225259Y-53002840D01*
X90267492Y-53012202D01*
X90267722Y-53011414D01*
X90276827Y-53014068D01*
X90325683Y-53020500D01*
X90325684Y-53020500D01*
X90674317Y-53020500D01*
X90690601Y-53018356D01*
X90723173Y-53014068D01*
X90830404Y-52964065D01*
X90914065Y-52880404D01*
X90914065Y-52880403D01*
X90921736Y-52872733D01*
X90924564Y-52875561D01*
X90962977Y-52844843D01*
X91032474Y-52837635D01*
X91094835Y-52869143D01*
X91098093Y-52872903D01*
X91098264Y-52872733D01*
X91105935Y-52880404D01*
X91189596Y-52964065D01*
X91296827Y-53014068D01*
X91345683Y-53020500D01*
X91345684Y-53020500D01*
X91694317Y-53020500D01*
X91710601Y-53018356D01*
X91743173Y-53014068D01*
X91850404Y-52964065D01*
X91934065Y-52880404D01*
X91984068Y-52773173D01*
X91990500Y-52724316D01*
X91990500Y-52505833D01*
X92010185Y-52438794D01*
X92026819Y-52418152D01*
X92249471Y-52195500D01*
X92408441Y-52036530D01*
X93179500Y-52036530D01*
X93179500Y-52243469D01*
X93219868Y-52446412D01*
X93219870Y-52446420D01*
X93299058Y-52637596D01*
X93414024Y-52809657D01*
X93560342Y-52955975D01*
X93560345Y-52955977D01*
X93732402Y-53070941D01*
X93923580Y-53150130D01*
X94072818Y-53179815D01*
X94126530Y-53190499D01*
X94126534Y-53190500D01*
X94126535Y-53190500D01*
X94333466Y-53190500D01*
X94333467Y-53190499D01*
X94536420Y-53150130D01*
X94727598Y-53070941D01*
X94899655Y-52955977D01*
X95045977Y-52809655D01*
X95160941Y-52637598D01*
X95240130Y-52446420D01*
X95280500Y-52243465D01*
X95280500Y-52036535D01*
X95240130Y-51833580D01*
X95160941Y-51642402D01*
X95045977Y-51470345D01*
X95045975Y-51470342D01*
X94899657Y-51324024D01*
X94773903Y-51239999D01*
X94727598Y-51209059D01*
X94633299Y-51169999D01*
X94536420Y-51129870D01*
X94536412Y-51129868D01*
X94333469Y-51089500D01*
X94333465Y-51089500D01*
X94126535Y-51089500D01*
X94126530Y-51089500D01*
X93923587Y-51129868D01*
X93923579Y-51129870D01*
X93732403Y-51209058D01*
X93560342Y-51324024D01*
X93414024Y-51470342D01*
X93299058Y-51642403D01*
X93219870Y-51833579D01*
X93219868Y-51833587D01*
X93179500Y-52036530D01*
X92408441Y-52036530D01*
X92490460Y-51954511D01*
X92504340Y-51930470D01*
X92530021Y-51885989D01*
X92550500Y-51809562D01*
X92550500Y-49513428D01*
X93130000Y-49513428D01*
X93130000Y-49686571D01*
X93157085Y-49857584D01*
X93210591Y-50022257D01*
X93289194Y-50176521D01*
X93368097Y-50285124D01*
X93799269Y-49853952D01*
X93829901Y-49907007D01*
X93922993Y-50000099D01*
X93976046Y-50030729D01*
X93544874Y-50461901D01*
X93653478Y-50540805D01*
X93807742Y-50619408D01*
X93972415Y-50672914D01*
X94143429Y-50700000D01*
X94316571Y-50700000D01*
X94487584Y-50672914D01*
X94652257Y-50619408D01*
X94806528Y-50540801D01*
X94915124Y-50461902D01*
X94915125Y-50461901D01*
X94483953Y-50030729D01*
X94537007Y-50000099D01*
X94630099Y-49907007D01*
X94660729Y-49853953D01*
X95091901Y-50285125D01*
X95091902Y-50285124D01*
X95170801Y-50176528D01*
X95249408Y-50022257D01*
X95302914Y-49857584D01*
X95330000Y-49686571D01*
X95330000Y-49513428D01*
X95302914Y-49342415D01*
X95249408Y-49177742D01*
X95170805Y-49023478D01*
X95091901Y-48914874D01*
X94660729Y-49346046D01*
X94630099Y-49292993D01*
X94537007Y-49199901D01*
X94483952Y-49169270D01*
X94915124Y-48738097D01*
X94806521Y-48659194D01*
X94652257Y-48580591D01*
X94487584Y-48527085D01*
X94316571Y-48500000D01*
X94143429Y-48500000D01*
X93972415Y-48527085D01*
X93807742Y-48580591D01*
X93653476Y-48659195D01*
X93653474Y-48659196D01*
X93544874Y-48738096D01*
X93544874Y-48738097D01*
X93976047Y-49169270D01*
X93922993Y-49199901D01*
X93829901Y-49292993D01*
X93799270Y-49346047D01*
X93368097Y-48914874D01*
X93368096Y-48914874D01*
X93289196Y-49023474D01*
X93289195Y-49023476D01*
X93210591Y-49177742D01*
X93157085Y-49342415D01*
X93130000Y-49513428D01*
X92550500Y-49513428D01*
X92550500Y-46956530D01*
X93179500Y-46956530D01*
X93179500Y-47163469D01*
X93219868Y-47366412D01*
X93219870Y-47366420D01*
X93299058Y-47557596D01*
X93414024Y-47729657D01*
X93560342Y-47875975D01*
X93560345Y-47875977D01*
X93732402Y-47990941D01*
X93923580Y-48070130D01*
X94097150Y-48104655D01*
X94126530Y-48110499D01*
X94126534Y-48110500D01*
X94126535Y-48110500D01*
X94333466Y-48110500D01*
X94333467Y-48110499D01*
X94536420Y-48070130D01*
X94727598Y-47990941D01*
X94899655Y-47875977D01*
X95045977Y-47729655D01*
X95160941Y-47557598D01*
X95240130Y-47366420D01*
X95280500Y-47163465D01*
X95280500Y-46956535D01*
X95240130Y-46753580D01*
X95160941Y-46562402D01*
X95045977Y-46390345D01*
X95045975Y-46390342D01*
X94899657Y-46244024D01*
X94767170Y-46155500D01*
X94727598Y-46129059D01*
X94726166Y-46128466D01*
X94536420Y-46049870D01*
X94536412Y-46049868D01*
X94333469Y-46009500D01*
X94333465Y-46009500D01*
X94126535Y-46009500D01*
X94126530Y-46009500D01*
X93923587Y-46049868D01*
X93923579Y-46049870D01*
X93732403Y-46129058D01*
X93560342Y-46244024D01*
X93414024Y-46390342D01*
X93299058Y-46562403D01*
X93219870Y-46753579D01*
X93219868Y-46753587D01*
X93179500Y-46956530D01*
X92550500Y-46956530D01*
X92550500Y-45772938D01*
X92530021Y-45696511D01*
X92509334Y-45660680D01*
X92490464Y-45627995D01*
X92490458Y-45627987D01*
X91911819Y-45049348D01*
X91878334Y-44988025D01*
X91875500Y-44961667D01*
X91875500Y-44416530D01*
X93179500Y-44416530D01*
X93179500Y-44623469D01*
X93219868Y-44826412D01*
X93219870Y-44826420D01*
X93299058Y-45017596D01*
X93414024Y-45189657D01*
X93560342Y-45335975D01*
X93560345Y-45335977D01*
X93732402Y-45450941D01*
X93923580Y-45530130D01*
X94126530Y-45570499D01*
X94126534Y-45570500D01*
X94126535Y-45570500D01*
X94333466Y-45570500D01*
X94333467Y-45570499D01*
X94536420Y-45530130D01*
X94727598Y-45450941D01*
X94899655Y-45335977D01*
X95045977Y-45189655D01*
X95160941Y-45017598D01*
X95240130Y-44826420D01*
X95280500Y-44623465D01*
X95280500Y-44416535D01*
X95240130Y-44213580D01*
X95160941Y-44022402D01*
X95045977Y-43850345D01*
X95045975Y-43850342D01*
X94899657Y-43704024D01*
X94813626Y-43646541D01*
X94727598Y-43589059D01*
X94536420Y-43509870D01*
X94536412Y-43509868D01*
X94333469Y-43469500D01*
X94333465Y-43469500D01*
X94126535Y-43469500D01*
X94126530Y-43469500D01*
X93923587Y-43509868D01*
X93923579Y-43509870D01*
X93732403Y-43589058D01*
X93560342Y-43704024D01*
X93414024Y-43850342D01*
X93299058Y-44022403D01*
X93219870Y-44213579D01*
X93219868Y-44213587D01*
X93179500Y-44416530D01*
X91875500Y-44416530D01*
X91875500Y-44240231D01*
X91873001Y-44213587D01*
X91872686Y-44210226D01*
X91872684Y-44210222D01*
X91872684Y-44210218D01*
X91828455Y-44083821D01*
X91828454Y-44083819D01*
X91748930Y-43976069D01*
X91641180Y-43896545D01*
X91641178Y-43896544D01*
X91514781Y-43852315D01*
X91514769Y-43852313D01*
X91484768Y-43849500D01*
X91484764Y-43849500D01*
X90890236Y-43849500D01*
X90890232Y-43849500D01*
X90860230Y-43852313D01*
X90860218Y-43852315D01*
X90733821Y-43896544D01*
X90733819Y-43896545D01*
X90626069Y-43976069D01*
X90546545Y-44083819D01*
X90546544Y-44083821D01*
X90502315Y-44210218D01*
X90502313Y-44210230D01*
X90499500Y-44240231D01*
X90499500Y-45259768D01*
X90502313Y-45289769D01*
X90502315Y-45289781D01*
X90546544Y-45416178D01*
X90546545Y-45416180D01*
X90626069Y-45523930D01*
X90733819Y-45603454D01*
X90733821Y-45603455D01*
X90860218Y-45647684D01*
X90860222Y-45647684D01*
X90860226Y-45647686D01*
X90875231Y-45649093D01*
X90890232Y-45650500D01*
X90890236Y-45650500D01*
X91484768Y-45650500D01*
X91514767Y-45647687D01*
X91514768Y-45647686D01*
X91514774Y-45647686D01*
X91548972Y-45635718D01*
X91618750Y-45632156D01*
X91677608Y-45665079D01*
X91913181Y-45900652D01*
X91927884Y-45927579D01*
X91944477Y-45953398D01*
X91945368Y-45959598D01*
X91946666Y-45961975D01*
X91949500Y-45988333D01*
X91949500Y-46128466D01*
X91929815Y-46195505D01*
X91877011Y-46241260D01*
X91807853Y-46251204D01*
X91751866Y-46228236D01*
X91641180Y-46146545D01*
X91641178Y-46146544D01*
X91514781Y-46102315D01*
X91514769Y-46102313D01*
X91484768Y-46099500D01*
X91484764Y-46099500D01*
X90890236Y-46099500D01*
X90890232Y-46099500D01*
X90860230Y-46102313D01*
X90860218Y-46102315D01*
X90733821Y-46146544D01*
X90733819Y-46146545D01*
X90626069Y-46226069D01*
X90546545Y-46333819D01*
X90546544Y-46333821D01*
X90502315Y-46460218D01*
X90502313Y-46460230D01*
X90499500Y-46490231D01*
X90499500Y-47462667D01*
X90479815Y-47529706D01*
X90427011Y-47575461D01*
X90357853Y-47585405D01*
X90294297Y-47556380D01*
X90287819Y-47550348D01*
X90036819Y-47299348D01*
X90003334Y-47238025D01*
X90000500Y-47211667D01*
X90000500Y-46490231D01*
X89997686Y-46460230D01*
X89997686Y-46460226D01*
X89997684Y-46460222D01*
X89997684Y-46460218D01*
X89953455Y-46333821D01*
X89953454Y-46333819D01*
X89873930Y-46226069D01*
X89766180Y-46146545D01*
X89766178Y-46146544D01*
X89639781Y-46102315D01*
X89639769Y-46102313D01*
X89609768Y-46099500D01*
X89609764Y-46099500D01*
X89015236Y-46099500D01*
X89015234Y-46099500D01*
X89010069Y-46099984D01*
X88995522Y-46097153D01*
X88980853Y-46099263D01*
X88961916Y-46090615D01*
X88941486Y-46086640D01*
X88930779Y-46076395D01*
X88917297Y-46070238D01*
X88906042Y-46052725D01*
X88891004Y-46038336D01*
X88886887Y-46022919D01*
X88879523Y-46011460D01*
X88874500Y-45976525D01*
X88874500Y-45773474D01*
X88894185Y-45706435D01*
X88946989Y-45660680D01*
X89010081Y-45650016D01*
X89015236Y-45650500D01*
X89015243Y-45650500D01*
X89609768Y-45650500D01*
X89623101Y-45649249D01*
X89639774Y-45647686D01*
X89639778Y-45647684D01*
X89639781Y-45647684D01*
X89710845Y-45622816D01*
X89766179Y-45603455D01*
X89873930Y-45523930D01*
X89953455Y-45416179D01*
X89988547Y-45315892D01*
X89997684Y-45289781D01*
X89997684Y-45289778D01*
X89997686Y-45289774D01*
X90000500Y-45259764D01*
X90000500Y-44240236D01*
X89997686Y-44210226D01*
X89997684Y-44210222D01*
X89997684Y-44210218D01*
X89953455Y-44083821D01*
X89953454Y-44083819D01*
X89873930Y-43976069D01*
X89766180Y-43896545D01*
X89766178Y-43896544D01*
X89639781Y-43852315D01*
X89639769Y-43852313D01*
X89609768Y-43849500D01*
X89609764Y-43849500D01*
X89015236Y-43849500D01*
X89015232Y-43849500D01*
X88985230Y-43852313D01*
X88985218Y-43852315D01*
X88858821Y-43896544D01*
X88858819Y-43896545D01*
X88751069Y-43976069D01*
X88671545Y-44083819D01*
X88671544Y-44083821D01*
X88627315Y-44210218D01*
X88627313Y-44210230D01*
X88624500Y-44240231D01*
X88624500Y-44961667D01*
X88604815Y-45028706D01*
X88588181Y-45049348D01*
X88333541Y-45303987D01*
X88333535Y-45303995D01*
X88293982Y-45372504D01*
X88293979Y-45372509D01*
X88273500Y-45448939D01*
X88273500Y-47393528D01*
X88253815Y-47460567D01*
X88201011Y-47506322D01*
X88131853Y-47516266D01*
X88117408Y-47513303D01*
X88065893Y-47499500D01*
X88065892Y-47499500D01*
X87934108Y-47499500D01*
X87806812Y-47533608D01*
X87692686Y-47599500D01*
X87692683Y-47599502D01*
X87599502Y-47692683D01*
X87599500Y-47692686D01*
X87533608Y-47806812D01*
X87504599Y-47915079D01*
X87499500Y-47934108D01*
X87499500Y-48065892D01*
X87532068Y-48187439D01*
X87533609Y-48193188D01*
X87533609Y-48193189D01*
X87567092Y-48251183D01*
X87583565Y-48319083D01*
X87560712Y-48385110D01*
X87547387Y-48400864D01*
X87451473Y-48496778D01*
X87451472Y-48496780D01*
X87390281Y-48616874D01*
X87390280Y-48616876D01*
X87385851Y-48625570D01*
X87383579Y-48624412D01*
X87352233Y-48670241D01*
X87287871Y-48697431D01*
X87219026Y-48685507D01*
X87167557Y-48638256D01*
X87157571Y-48617570D01*
X87121186Y-48520018D01*
X87121184Y-48520015D01*
X87039329Y-48410670D01*
X86929984Y-48328815D01*
X86929983Y-48328814D01*
X86802010Y-48281083D01*
X86745428Y-48275000D01*
X86600000Y-48275000D01*
X86600000Y-48876000D01*
X86597449Y-48884685D01*
X86598738Y-48893647D01*
X86587759Y-48917687D01*
X86580315Y-48943039D01*
X86573474Y-48948966D01*
X86569713Y-48957203D01*
X86547478Y-48971492D01*
X86527511Y-48988794D01*
X86516996Y-48991081D01*
X86510935Y-48994977D01*
X86476000Y-49000000D01*
X86474000Y-49000000D01*
X86406961Y-48980315D01*
X86361206Y-48927511D01*
X86350000Y-48876000D01*
X86350000Y-48275000D01*
X86204566Y-48275000D01*
X86204559Y-48275001D01*
X86147992Y-48281081D01*
X86020018Y-48328813D01*
X86020011Y-48328817D01*
X85911572Y-48409994D01*
X85846108Y-48434411D01*
X85777835Y-48419559D01*
X85742233Y-48390385D01*
X85621477Y-48246328D01*
X85609578Y-48219104D01*
X85595340Y-48193028D01*
X85595739Y-48187439D01*
X85593496Y-48182306D01*
X85598204Y-48152974D01*
X85600324Y-48123336D01*
X85603840Y-48117864D01*
X85604570Y-48113320D01*
X85612329Y-48104655D01*
X85628825Y-48078989D01*
X85637685Y-48070129D01*
X85650500Y-48057314D01*
X85716392Y-47943186D01*
X85750500Y-47815892D01*
X85750500Y-47684108D01*
X85750500Y-47478677D01*
X85770185Y-47411638D01*
X85822989Y-47365883D01*
X85892147Y-47355939D01*
X85915215Y-47363253D01*
X85915574Y-47362150D01*
X85924855Y-47365166D01*
X86018514Y-47379999D01*
X86074999Y-47379998D01*
X86075000Y-47379998D01*
X86075000Y-46679000D01*
X86077550Y-46670314D01*
X86076262Y-46661353D01*
X86087240Y-46637312D01*
X86094685Y-46611961D01*
X86101525Y-46606033D01*
X86105287Y-46597797D01*
X86127521Y-46583507D01*
X86147489Y-46566206D01*
X86158003Y-46563918D01*
X86164065Y-46560023D01*
X86199000Y-46555000D01*
X86201000Y-46555000D01*
X86268039Y-46574685D01*
X86313794Y-46627489D01*
X86325000Y-46679000D01*
X86325000Y-47379999D01*
X86381479Y-47379999D01*
X86475149Y-47365164D01*
X86475155Y-47365162D01*
X86588041Y-47307643D01*
X86588050Y-47307636D01*
X86677636Y-47218050D01*
X86677641Y-47218043D01*
X86718734Y-47137394D01*
X86766708Y-47086598D01*
X86834529Y-47069802D01*
X86898110Y-47090586D01*
X86907398Y-47096792D01*
X86988189Y-47150775D01*
X86988191Y-47150776D01*
X86988195Y-47150778D01*
X87052337Y-47177346D01*
X87115672Y-47203580D01*
X87115676Y-47203580D01*
X87115677Y-47203581D01*
X87251004Y-47230500D01*
X87251007Y-47230500D01*
X87388995Y-47230500D01*
X87517405Y-47204957D01*
X87524328Y-47203580D01*
X87651811Y-47150775D01*
X87766542Y-47074114D01*
X87864114Y-46976542D01*
X87940775Y-46861811D01*
X87993580Y-46734328D01*
X88017556Y-46613794D01*
X88020500Y-46598995D01*
X88020500Y-45361004D01*
X87993581Y-45225677D01*
X87993580Y-45225676D01*
X87993580Y-45225672D01*
X87980079Y-45193078D01*
X87940778Y-45098195D01*
X87940771Y-45098182D01*
X87864114Y-44983458D01*
X87864111Y-44983454D01*
X87766545Y-44885888D01*
X87766541Y-44885885D01*
X87675609Y-44825126D01*
X87630804Y-44771514D01*
X87620500Y-44722024D01*
X87620500Y-42907975D01*
X87621525Y-42904481D01*
X87620700Y-42900935D01*
X87631296Y-42871206D01*
X87640185Y-42840936D01*
X87643294Y-42837547D01*
X87644159Y-42835121D01*
X87655735Y-42823987D01*
X87668749Y-42809803D01*
X87672090Y-42807224D01*
X87766542Y-42744114D01*
X87864114Y-42646542D01*
X87940775Y-42531811D01*
X87993580Y-42404328D01*
X88002389Y-42360041D01*
X88020500Y-42268995D01*
X88020500Y-41893428D01*
X93130000Y-41893428D01*
X93130000Y-42066571D01*
X93157085Y-42237584D01*
X93210591Y-42402257D01*
X93289194Y-42556521D01*
X93368097Y-42665124D01*
X93799269Y-42233952D01*
X93829901Y-42287007D01*
X93922993Y-42380099D01*
X93976046Y-42410729D01*
X93544874Y-42841901D01*
X93653478Y-42920805D01*
X93807742Y-42999408D01*
X93972415Y-43052914D01*
X94143429Y-43080000D01*
X94316571Y-43080000D01*
X94487584Y-43052914D01*
X94652257Y-42999408D01*
X94806528Y-42920801D01*
X94915124Y-42841902D01*
X94915125Y-42841901D01*
X94483953Y-42410729D01*
X94537007Y-42380099D01*
X94630099Y-42287007D01*
X94660729Y-42233953D01*
X95091901Y-42665125D01*
X95091902Y-42665124D01*
X95170801Y-42556528D01*
X95249408Y-42402257D01*
X95302914Y-42237584D01*
X95330000Y-42066571D01*
X95330000Y-41893428D01*
X95302914Y-41722415D01*
X95249408Y-41557742D01*
X95170805Y-41403478D01*
X95091901Y-41294874D01*
X94660729Y-41726046D01*
X94630099Y-41672993D01*
X94537007Y-41579901D01*
X94483952Y-41549270D01*
X94915124Y-41118097D01*
X94806521Y-41039194D01*
X94652257Y-40960591D01*
X94487584Y-40907085D01*
X94316571Y-40880000D01*
X94143429Y-40880000D01*
X93972415Y-40907085D01*
X93807742Y-40960591D01*
X93653476Y-41039195D01*
X93653474Y-41039196D01*
X93544874Y-41118096D01*
X93544874Y-41118097D01*
X93976047Y-41549270D01*
X93922993Y-41579901D01*
X93829901Y-41672993D01*
X93799270Y-41726047D01*
X93368097Y-41294874D01*
X93368096Y-41294874D01*
X93289196Y-41403474D01*
X93289195Y-41403476D01*
X93210591Y-41557742D01*
X93157085Y-41722415D01*
X93130000Y-41893428D01*
X88020500Y-41893428D01*
X88020500Y-41331004D01*
X87993580Y-41195674D01*
X87993579Y-41195669D01*
X87940778Y-41068195D01*
X87940771Y-41068182D01*
X87864114Y-40953458D01*
X87864111Y-40953454D01*
X87766545Y-40855888D01*
X87766541Y-40855885D01*
X87651817Y-40779228D01*
X87651804Y-40779221D01*
X87524332Y-40726421D01*
X87524322Y-40726418D01*
X87388995Y-40699500D01*
X87388993Y-40699500D01*
X87251007Y-40699500D01*
X87251005Y-40699500D01*
X87115677Y-40726418D01*
X87115667Y-40726421D01*
X86988195Y-40779221D01*
X86988182Y-40779228D01*
X86873458Y-40855885D01*
X86873454Y-40855888D01*
X86775888Y-40953454D01*
X86775885Y-40953458D01*
X86699228Y-41068182D01*
X86699221Y-41068195D01*
X86646421Y-41195667D01*
X86646418Y-41195677D01*
X86619500Y-41331004D01*
X86619500Y-41375500D01*
X86599815Y-41442539D01*
X86547011Y-41488294D01*
X86495500Y-41499500D01*
X79504500Y-41499500D01*
X79437461Y-41479815D01*
X79391706Y-41427011D01*
X79380500Y-41375500D01*
X79380500Y-41331004D01*
X79353581Y-41195677D01*
X79353580Y-41195674D01*
X79353580Y-41195672D01*
X79333828Y-41147986D01*
X79300778Y-41068195D01*
X79300771Y-41068182D01*
X79224114Y-40953458D01*
X79224111Y-40953454D01*
X79126545Y-40855888D01*
X79126541Y-40855885D01*
X79011817Y-40779228D01*
X79011804Y-40779221D01*
X78884332Y-40726421D01*
X78884322Y-40726418D01*
X78748995Y-40699500D01*
X78748993Y-40699500D01*
X78611007Y-40699500D01*
X78611005Y-40699500D01*
X78475677Y-40726418D01*
X78475667Y-40726421D01*
X78348195Y-40779221D01*
X78348182Y-40779228D01*
X78233458Y-40855885D01*
X78233454Y-40855888D01*
X78135888Y-40953454D01*
X78135885Y-40953458D01*
X78059228Y-41068182D01*
X78059221Y-41068195D01*
X78006421Y-41195667D01*
X78006418Y-41195677D01*
X77979500Y-41331004D01*
X77979500Y-41375500D01*
X77959815Y-41442539D01*
X77907011Y-41488294D01*
X77855500Y-41499500D01*
X77259102Y-41499500D01*
X77238976Y-41496627D01*
X77238892Y-41497266D01*
X77179901Y-41489500D01*
X76820105Y-41489500D01*
X76804386Y-41491569D01*
X76770513Y-41496028D01*
X76770511Y-41496029D01*
X76770509Y-41496029D01*
X76661684Y-41546775D01*
X76642681Y-41565779D01*
X76581357Y-41599263D01*
X76511665Y-41594277D01*
X76467320Y-41565777D01*
X76412098Y-41510555D01*
X76412093Y-41510551D01*
X76302015Y-41454463D01*
X76210691Y-41440000D01*
X76165000Y-41440000D01*
X76165000Y-42608638D01*
X76145315Y-42675677D01*
X76135000Y-42688477D01*
X76135000Y-43831730D01*
X76154374Y-43867211D01*
X76149390Y-43936903D01*
X76129848Y-43967309D01*
X76131588Y-43968593D01*
X76046545Y-44083819D01*
X76046544Y-44083821D01*
X76002315Y-44210218D01*
X76002313Y-44210230D01*
X75999500Y-44240231D01*
X75999500Y-45238885D01*
X75979815Y-45305924D01*
X75927011Y-45351679D01*
X75857853Y-45361623D01*
X75794297Y-45332598D01*
X75768113Y-45300885D01*
X75740462Y-45252992D01*
X75740458Y-45252987D01*
X75536819Y-45049348D01*
X75503334Y-44988025D01*
X75500500Y-44961667D01*
X75500500Y-44240231D01*
X75498001Y-44213587D01*
X75497686Y-44210226D01*
X75497684Y-44210222D01*
X75497684Y-44210218D01*
X75453455Y-44083821D01*
X75453454Y-44083819D01*
X75373930Y-43976069D01*
X75266180Y-43896545D01*
X75266178Y-43896544D01*
X75139781Y-43852315D01*
X75139769Y-43852313D01*
X75109768Y-43849500D01*
X75109764Y-43849500D01*
X74515236Y-43849500D01*
X74515232Y-43849500D01*
X74485230Y-43852313D01*
X74485218Y-43852315D01*
X74358821Y-43896544D01*
X74358819Y-43896545D01*
X74251069Y-43976069D01*
X74171545Y-44083819D01*
X74171544Y-44083821D01*
X74127315Y-44210218D01*
X74127313Y-44210230D01*
X74124500Y-44240231D01*
X74124500Y-45259768D01*
X74127313Y-45289769D01*
X74127315Y-45289781D01*
X74171544Y-45416178D01*
X74171545Y-45416180D01*
X74251069Y-45523930D01*
X74340499Y-45589933D01*
X74382750Y-45645581D01*
X74388207Y-45715237D01*
X74355140Y-45776787D01*
X74307820Y-45806745D01*
X74262354Y-45822654D01*
X74153207Y-45903207D01*
X74072653Y-46012354D01*
X74027850Y-46140395D01*
X74027850Y-46140399D01*
X74025000Y-46170793D01*
X74025000Y-46375000D01*
X74551000Y-46375000D01*
X74559685Y-46377550D01*
X74568647Y-46376262D01*
X74592687Y-46387240D01*
X74618039Y-46394685D01*
X74623966Y-46401525D01*
X74632203Y-46405287D01*
X74646492Y-46427521D01*
X74663794Y-46447489D01*
X74666081Y-46458003D01*
X74669977Y-46464065D01*
X74675000Y-46499000D01*
X74675000Y-46501000D01*
X74655315Y-46568039D01*
X74602511Y-46613794D01*
X74551000Y-46625000D01*
X74025001Y-46625000D01*
X74025001Y-46829196D01*
X74027851Y-46859606D01*
X74072653Y-46987645D01*
X74153207Y-47096792D01*
X74262354Y-47177346D01*
X74341263Y-47204957D01*
X74398039Y-47245679D01*
X74423787Y-47310631D01*
X74410331Y-47379193D01*
X74387990Y-47409680D01*
X74118847Y-47678824D01*
X74062899Y-47734771D01*
X74062893Y-47734779D01*
X74023340Y-47803288D01*
X74023337Y-47803293D01*
X74013207Y-47841101D01*
X74003862Y-47875977D01*
X74002858Y-47879723D01*
X74002858Y-53648525D01*
X73983173Y-53715564D01*
X73930369Y-53761319D01*
X73861211Y-53771263D01*
X73797655Y-53742238D01*
X73791177Y-53736206D01*
X72757075Y-52702104D01*
X72723590Y-52640781D01*
X72728574Y-52571089D01*
X72730163Y-52567049D01*
X72780130Y-52446420D01*
X72820500Y-52243465D01*
X72820500Y-52036535D01*
X72780130Y-51833580D01*
X72700941Y-51642402D01*
X72585977Y-51470345D01*
X72585975Y-51470342D01*
X72439657Y-51324024D01*
X72313903Y-51239999D01*
X72267598Y-51209059D01*
X72173299Y-51169999D01*
X72076420Y-51129870D01*
X72076412Y-51129868D01*
X71873469Y-51089500D01*
X71873465Y-51089500D01*
X71666535Y-51089500D01*
X71666530Y-51089500D01*
X71463587Y-51129868D01*
X71463579Y-51129870D01*
X71272403Y-51209058D01*
X71100342Y-51324024D01*
X70954024Y-51470342D01*
X70839058Y-51642403D01*
X70759870Y-51833579D01*
X70759868Y-51833587D01*
X70719500Y-52036530D01*
X70719500Y-52243469D01*
X70759868Y-52446412D01*
X70759870Y-52446420D01*
X70839058Y-52637596D01*
X70954024Y-52809657D01*
X71100342Y-52955975D01*
X71100345Y-52955977D01*
X71272402Y-53070941D01*
X71463580Y-53150130D01*
X71612818Y-53179815D01*
X71666530Y-53190499D01*
X71666534Y-53190500D01*
X71666535Y-53190500D01*
X71873466Y-53190500D01*
X71873467Y-53190499D01*
X72076420Y-53150130D01*
X72196974Y-53100194D01*
X72266438Y-53092726D01*
X72328918Y-53124000D01*
X72332104Y-53127075D01*
X73663181Y-54458152D01*
X73696666Y-54519475D01*
X73699500Y-54545833D01*
X73699500Y-55885167D01*
X73679815Y-55952206D01*
X73627011Y-55997961D01*
X73557853Y-56007905D01*
X73494297Y-55978880D01*
X73487819Y-55972848D01*
X72757075Y-55242104D01*
X72723590Y-55180781D01*
X72728574Y-55111089D01*
X72730163Y-55107049D01*
X72780130Y-54986420D01*
X72820500Y-54783465D01*
X72820500Y-54576535D01*
X72780130Y-54373580D01*
X72700941Y-54182402D01*
X72585977Y-54010345D01*
X72585975Y-54010342D01*
X72439657Y-53864024D01*
X72343837Y-53800000D01*
X72267598Y-53749059D01*
X72236568Y-53736206D01*
X72076420Y-53669870D01*
X72076412Y-53669868D01*
X71873469Y-53629500D01*
X71873465Y-53629500D01*
X71666535Y-53629500D01*
X71666530Y-53629500D01*
X71463587Y-53669868D01*
X71463579Y-53669870D01*
X71272403Y-53749058D01*
X71100342Y-53864024D01*
X70954024Y-54010342D01*
X70839058Y-54182403D01*
X70759870Y-54373579D01*
X70759868Y-54373587D01*
X70719500Y-54576530D01*
X70719500Y-54783469D01*
X70759868Y-54986412D01*
X70759870Y-54986420D01*
X70831091Y-55158363D01*
X70839059Y-55177598D01*
X70849475Y-55193187D01*
X70954024Y-55349657D01*
X71100342Y-55495975D01*
X71100345Y-55495977D01*
X71272402Y-55610941D01*
X71463580Y-55690130D01*
X71666530Y-55730499D01*
X71666534Y-55730500D01*
X71666535Y-55730500D01*
X71873466Y-55730500D01*
X71873467Y-55730499D01*
X72076420Y-55690130D01*
X72196974Y-55640194D01*
X72266438Y-55632726D01*
X72328918Y-55664000D01*
X72332104Y-55667075D01*
X73362181Y-56697152D01*
X73395666Y-56758475D01*
X73398500Y-56784833D01*
X73398500Y-58124167D01*
X73378815Y-58191206D01*
X73326011Y-58236961D01*
X73256853Y-58246905D01*
X73193297Y-58217880D01*
X73186819Y-58211848D01*
X72757075Y-57782104D01*
X72723590Y-57720781D01*
X72728574Y-57651089D01*
X72730163Y-57647049D01*
X72780130Y-57526420D01*
X72820500Y-57323465D01*
X72820500Y-57116535D01*
X72780130Y-56913580D01*
X72700941Y-56722402D01*
X72585977Y-56550345D01*
X72585975Y-56550342D01*
X72439657Y-56404024D01*
X72287730Y-56302511D01*
X72267598Y-56289059D01*
X72076420Y-56209870D01*
X72076412Y-56209868D01*
X71873469Y-56169500D01*
X71873465Y-56169500D01*
X71666535Y-56169500D01*
X71666530Y-56169500D01*
X71463587Y-56209868D01*
X71463579Y-56209870D01*
X71272403Y-56289058D01*
X71100342Y-56404024D01*
X70954024Y-56550342D01*
X70839058Y-56722403D01*
X70759870Y-56913579D01*
X70759868Y-56913587D01*
X70719500Y-57116530D01*
X70719500Y-57323469D01*
X70759868Y-57526412D01*
X70759870Y-57526420D01*
X70839058Y-57717596D01*
X70954024Y-57889657D01*
X71100342Y-58035975D01*
X71100345Y-58035977D01*
X71272402Y-58150941D01*
X71463580Y-58230130D01*
X71666168Y-58270427D01*
X71666530Y-58270499D01*
X71666534Y-58270500D01*
X71666535Y-58270500D01*
X71873466Y-58270500D01*
X71873467Y-58270499D01*
X72076420Y-58230130D01*
X72196974Y-58180194D01*
X72266438Y-58172726D01*
X72328918Y-58204000D01*
X72332104Y-58207075D01*
X73061181Y-58936152D01*
X73094666Y-58997475D01*
X73097500Y-59023833D01*
X73097500Y-60363167D01*
X73077815Y-60430206D01*
X73025011Y-60475961D01*
X72955853Y-60485905D01*
X72892297Y-60456880D01*
X72885819Y-60450848D01*
X72757075Y-60322104D01*
X72723590Y-60260781D01*
X72728574Y-60191089D01*
X72730163Y-60187049D01*
X72780130Y-60066420D01*
X72820500Y-59863465D01*
X72820500Y-59656535D01*
X72780130Y-59453580D01*
X72700941Y-59262402D01*
X72585977Y-59090345D01*
X72585975Y-59090342D01*
X72439657Y-58944024D01*
X72295905Y-58847973D01*
X72267598Y-58829059D01*
X72261671Y-58826604D01*
X72076420Y-58749870D01*
X72076412Y-58749868D01*
X71873469Y-58709500D01*
X71873465Y-58709500D01*
X71666535Y-58709500D01*
X71666530Y-58709500D01*
X71463587Y-58749868D01*
X71463579Y-58749870D01*
X71272403Y-58829058D01*
X71100342Y-58944024D01*
X70954024Y-59090342D01*
X70839058Y-59262403D01*
X70759870Y-59453579D01*
X70759868Y-59453587D01*
X70719500Y-59656530D01*
X70719500Y-59863469D01*
X70759868Y-60066412D01*
X70759870Y-60066420D01*
X70811011Y-60189886D01*
X70839059Y-60257598D01*
X70872287Y-60307327D01*
X70954024Y-60429657D01*
X71100342Y-60575975D01*
X71100345Y-60575977D01*
X71272402Y-60690941D01*
X71463580Y-60770130D01*
X71641524Y-60805525D01*
X71666530Y-60810499D01*
X71666534Y-60810500D01*
X71666535Y-60810500D01*
X71873466Y-60810500D01*
X71873467Y-60810499D01*
X72076420Y-60770130D01*
X72196974Y-60720194D01*
X72266438Y-60712726D01*
X72328918Y-60744000D01*
X72332104Y-60747075D01*
X72760181Y-61175152D01*
X72793666Y-61236475D01*
X72796500Y-61262833D01*
X72796500Y-61541505D01*
X72776815Y-61608544D01*
X72724011Y-61654299D01*
X72654853Y-61664243D01*
X72591297Y-61635218D01*
X72584819Y-61629186D01*
X72439657Y-61484024D01*
X72288651Y-61383126D01*
X72267598Y-61369059D01*
X72076420Y-61289870D01*
X72076412Y-61289868D01*
X71873469Y-61249500D01*
X71873465Y-61249500D01*
X71666535Y-61249500D01*
X71666530Y-61249500D01*
X71463587Y-61289868D01*
X71463579Y-61289870D01*
X71272403Y-61369058D01*
X71100342Y-61484024D01*
X70954024Y-61630342D01*
X70839058Y-61802403D01*
X70759870Y-61993579D01*
X70759868Y-61993587D01*
X70719500Y-62196530D01*
X70719500Y-62403469D01*
X70759868Y-62606412D01*
X70759870Y-62606420D01*
X70838829Y-62797044D01*
X70839059Y-62797598D01*
X70875208Y-62851699D01*
X70954024Y-62969657D01*
X71100342Y-63115975D01*
X71100345Y-63115977D01*
X71272402Y-63230941D01*
X71463580Y-63310130D01*
X71666530Y-63350499D01*
X71666534Y-63350500D01*
X71666535Y-63350500D01*
X71873466Y-63350500D01*
X71873467Y-63350499D01*
X72076420Y-63310130D01*
X72093961Y-63302863D01*
X72163430Y-63295395D01*
X72225910Y-63326670D01*
X72229095Y-63329744D01*
X74260181Y-65360830D01*
X74293666Y-65422153D01*
X74296500Y-65448511D01*
X74296500Y-66609130D01*
X74300534Y-66624185D01*
X74316979Y-66685558D01*
X74316982Y-66685563D01*
X74356535Y-66754072D01*
X74356539Y-66754077D01*
X74356540Y-66754079D01*
X76185234Y-68582773D01*
X76241183Y-68638722D01*
X76241185Y-68638723D01*
X76241189Y-68638726D01*
X76282127Y-68662361D01*
X76309705Y-68678283D01*
X76386132Y-68698762D01*
X76616000Y-68698762D01*
X76683039Y-68718447D01*
X76728794Y-68771251D01*
X76740000Y-68822762D01*
X76740000Y-68875000D01*
X77146000Y-68875000D01*
X77154685Y-68877550D01*
X77163647Y-68876262D01*
X77187687Y-68887240D01*
X77213039Y-68894685D01*
X77218966Y-68901525D01*
X77227203Y-68905287D01*
X77241492Y-68927521D01*
X77258794Y-68947489D01*
X77261081Y-68958003D01*
X77264977Y-68964065D01*
X77270000Y-68999000D01*
X77270000Y-69000000D01*
X77271000Y-69000000D01*
X77338039Y-69019685D01*
X77383794Y-69072489D01*
X77395000Y-69124000D01*
X77395000Y-69495871D01*
X77391894Y-69507460D01*
X77392496Y-69510500D01*
X77384348Y-69544840D01*
X77380975Y-69553388D01*
X77340940Y-69622732D01*
X77314096Y-69722914D01*
X77314095Y-69722918D01*
X77306832Y-69750026D01*
X77306832Y-69881811D01*
X77318824Y-69926567D01*
X77317161Y-69996417D01*
X77277997Y-70054279D01*
X77213769Y-70081782D01*
X77144866Y-70070195D01*
X77111368Y-70046340D01*
X76265717Y-69200689D01*
X76740001Y-69200689D01*
X76754465Y-69292017D01*
X76802974Y-69387222D01*
X76912777Y-69497025D01*
X77007981Y-69545535D01*
X77007983Y-69545536D01*
X77099304Y-69559999D01*
X77111767Y-69559999D01*
X77145000Y-69475761D01*
X77145000Y-69125000D01*
X76740001Y-69125000D01*
X76740001Y-69200689D01*
X76265717Y-69200689D01*
X72653411Y-65588383D01*
X72619926Y-65527060D01*
X72624910Y-65457368D01*
X72637990Y-65431811D01*
X72641135Y-65427104D01*
X72700941Y-65337598D01*
X72780130Y-65146420D01*
X72820500Y-64943465D01*
X72820500Y-64736535D01*
X72780130Y-64533580D01*
X72700941Y-64342402D01*
X72585977Y-64170345D01*
X72585975Y-64170342D01*
X72439657Y-64024024D01*
X72323438Y-63946370D01*
X72267598Y-63909059D01*
X72238398Y-63896964D01*
X72076420Y-63829870D01*
X72076412Y-63829868D01*
X71873469Y-63789500D01*
X71873465Y-63789500D01*
X71666535Y-63789500D01*
X71666530Y-63789500D01*
X71463587Y-63829868D01*
X71463579Y-63829870D01*
X71272403Y-63909058D01*
X71100342Y-64024024D01*
X70954024Y-64170342D01*
X70839058Y-64342403D01*
X70759870Y-64533579D01*
X70759868Y-64533587D01*
X70719500Y-64736530D01*
X70719500Y-64943469D01*
X70759868Y-65146412D01*
X70759870Y-65146420D01*
X70823561Y-65300184D01*
X70839059Y-65337598D01*
X70880420Y-65399500D01*
X70954024Y-65509657D01*
X71100342Y-65655975D01*
X71100345Y-65655977D01*
X71272402Y-65770941D01*
X71463580Y-65850130D01*
X71601431Y-65877550D01*
X71666530Y-65890499D01*
X71666534Y-65890500D01*
X71666535Y-65890500D01*
X71873466Y-65890500D01*
X71892352Y-65886743D01*
X72002070Y-65864918D01*
X72071658Y-65871145D01*
X72113940Y-65898854D01*
X72572415Y-66357329D01*
X72605900Y-66418652D01*
X72600916Y-66488344D01*
X72559044Y-66544277D01*
X72493580Y-66568694D01*
X72425307Y-66553842D01*
X72415844Y-66548113D01*
X72328039Y-66489444D01*
X72267598Y-66449059D01*
X72240001Y-66437628D01*
X72076420Y-66369870D01*
X72076412Y-66369868D01*
X71873469Y-66329500D01*
X71873465Y-66329500D01*
X71666535Y-66329500D01*
X71666530Y-66329500D01*
X71463587Y-66369868D01*
X71463579Y-66369870D01*
X71272403Y-66449058D01*
X71100342Y-66564024D01*
X70954024Y-66710342D01*
X70839058Y-66882403D01*
X70759870Y-67073579D01*
X70759868Y-67073587D01*
X70719500Y-67276530D01*
X70719500Y-67483469D01*
X70759868Y-67686412D01*
X70759870Y-67686420D01*
X70839058Y-67877596D01*
X70954024Y-68049657D01*
X71100342Y-68195975D01*
X71100345Y-68195977D01*
X71272402Y-68310941D01*
X71463580Y-68390130D01*
X71666530Y-68430499D01*
X71666534Y-68430500D01*
X71666535Y-68430500D01*
X71873466Y-68430500D01*
X71873467Y-68430499D01*
X72076420Y-68390130D01*
X72196974Y-68340194D01*
X72266438Y-68332726D01*
X72328918Y-68364000D01*
X72332104Y-68367075D01*
X73663181Y-69698152D01*
X73696666Y-69759475D01*
X73699500Y-69785833D01*
X73699500Y-71900845D01*
X73679815Y-71967884D01*
X73627011Y-72013639D01*
X73557853Y-72023583D01*
X73494297Y-71994558D01*
X73487819Y-71988526D01*
X72423974Y-70924681D01*
X72390489Y-70863358D01*
X72395473Y-70793666D01*
X72435379Y-70740358D01*
X72434951Y-70739837D01*
X72437074Y-70738094D01*
X72437345Y-70737733D01*
X72438578Y-70736860D01*
X72439649Y-70735980D01*
X72439655Y-70735977D01*
X72585977Y-70589655D01*
X72700941Y-70417598D01*
X72780130Y-70226420D01*
X72820500Y-70023465D01*
X72820500Y-69816535D01*
X72780130Y-69613580D01*
X72700941Y-69422402D01*
X72585977Y-69250345D01*
X72585975Y-69250342D01*
X72439657Y-69104024D01*
X72283972Y-69000000D01*
X72267598Y-68989059D01*
X72108019Y-68922959D01*
X72076420Y-68909870D01*
X72076412Y-68909868D01*
X71873469Y-68869500D01*
X71873465Y-68869500D01*
X71666535Y-68869500D01*
X71666530Y-68869500D01*
X71463587Y-68909868D01*
X71463579Y-68909870D01*
X71272403Y-68989058D01*
X71100342Y-69104024D01*
X70954024Y-69250342D01*
X70839058Y-69422403D01*
X70759870Y-69613579D01*
X70759868Y-69613587D01*
X70719500Y-69816530D01*
X70719500Y-70023469D01*
X70759868Y-70226412D01*
X70759870Y-70226420D01*
X70837054Y-70412759D01*
X70839059Y-70417598D01*
X70844005Y-70425000D01*
X70954024Y-70589657D01*
X71100342Y-70735975D01*
X71100345Y-70735977D01*
X71272402Y-70850941D01*
X71463580Y-70930130D01*
X71571369Y-70951570D01*
X71633276Y-70983953D01*
X71634856Y-70985505D01*
X71847170Y-71197819D01*
X71880655Y-71259142D01*
X71875671Y-71328834D01*
X71833799Y-71384767D01*
X71768335Y-71409184D01*
X71759489Y-71409500D01*
X71666530Y-71409500D01*
X71463587Y-71449868D01*
X71463579Y-71449870D01*
X71272403Y-71529058D01*
X71100342Y-71644024D01*
X70954024Y-71790342D01*
X70839058Y-71962403D01*
X70759870Y-72153579D01*
X70759868Y-72153587D01*
X70719500Y-72356530D01*
X70719500Y-72563469D01*
X70759868Y-72766412D01*
X70759870Y-72766420D01*
X70805678Y-72877011D01*
X70839059Y-72957598D01*
X70844935Y-72966392D01*
X70954024Y-73129657D01*
X71100342Y-73275975D01*
X71100345Y-73275977D01*
X71272402Y-73390941D01*
X71463580Y-73470130D01*
X71666530Y-73510499D01*
X71666534Y-73510500D01*
X71666535Y-73510500D01*
X71873466Y-73510500D01*
X71873467Y-73510499D01*
X72076420Y-73470130D01*
X72196974Y-73420194D01*
X72266438Y-73412726D01*
X72328918Y-73444000D01*
X72332104Y-73447075D01*
X72921540Y-74036511D01*
X72977489Y-74092460D01*
X72977491Y-74092461D01*
X72977495Y-74092464D01*
X73046004Y-74132017D01*
X73046011Y-74132021D01*
X73122438Y-74152500D01*
X73122440Y-74152500D01*
X78538916Y-74152500D01*
X78538918Y-74152500D01*
X78615345Y-74132021D01*
X78683867Y-74092460D01*
X78739816Y-74036511D01*
X79875638Y-72900689D01*
X80440001Y-72900689D01*
X80454465Y-72992017D01*
X80510552Y-73102093D01*
X80510555Y-73102098D01*
X80597901Y-73189444D01*
X80597906Y-73189448D01*
X80707984Y-73245536D01*
X80799303Y-73259999D01*
X81125000Y-73259999D01*
X81200689Y-73259999D01*
X81292017Y-73245534D01*
X81402093Y-73189447D01*
X81402098Y-73189444D01*
X81489444Y-73102098D01*
X81489448Y-73102093D01*
X81545536Y-72992015D01*
X81560000Y-72900691D01*
X81560000Y-72855000D01*
X81125000Y-72855000D01*
X81125000Y-73259999D01*
X80799303Y-73259999D01*
X80874999Y-73259998D01*
X80875000Y-73259998D01*
X80875000Y-72855000D01*
X80440001Y-72855000D01*
X80440001Y-72900689D01*
X79875638Y-72900689D01*
X80092460Y-72683867D01*
X80132021Y-72615345D01*
X80152500Y-72538918D01*
X80152500Y-71573833D01*
X80172185Y-71506794D01*
X80188813Y-71486157D01*
X80314685Y-71360285D01*
X80376004Y-71326803D01*
X80445696Y-71331787D01*
X80501630Y-71373658D01*
X80526047Y-71439122D01*
X80514746Y-71500371D01*
X80501331Y-71529142D01*
X80496027Y-71540516D01*
X80489500Y-71590097D01*
X80489500Y-71949894D01*
X80489501Y-71949900D01*
X80496028Y-71999487D01*
X80496029Y-71999489D01*
X80496029Y-71999490D01*
X80546776Y-72108316D01*
X80565777Y-72127317D01*
X80599262Y-72188640D01*
X80594278Y-72258332D01*
X80565778Y-72302679D01*
X80510552Y-72357904D01*
X80510551Y-72357906D01*
X80454463Y-72467984D01*
X80440000Y-72559308D01*
X80440000Y-72605000D01*
X81559999Y-72605000D01*
X81559999Y-72559310D01*
X81545534Y-72467982D01*
X81489447Y-72357906D01*
X81489444Y-72357901D01*
X81434222Y-72302679D01*
X81400737Y-72241356D01*
X81405721Y-72171664D01*
X81434219Y-72127320D01*
X81453224Y-72108316D01*
X81503972Y-71999487D01*
X81510500Y-71949901D01*
X81510499Y-71590100D01*
X81503972Y-71540513D01*
X81453224Y-71431684D01*
X81453223Y-71431683D01*
X81448639Y-71421852D01*
X81450785Y-71420851D01*
X81433237Y-71368833D01*
X81450241Y-71301064D01*
X81469454Y-71276227D01*
X82785088Y-69960592D01*
X82846411Y-69927108D01*
X82916103Y-69932092D01*
X82972036Y-69973964D01*
X82996453Y-70039428D01*
X82996767Y-70048775D01*
X82993225Y-70924681D01*
X82989723Y-71790345D01*
X82986812Y-72509790D01*
X83354708Y-72509790D01*
X83421747Y-72529475D01*
X83467502Y-72582279D01*
X83477446Y-72651437D01*
X83474507Y-72665766D01*
X83474500Y-72665820D01*
X83474500Y-74834182D01*
X83475275Y-74837074D01*
X83479500Y-74869167D01*
X83479500Y-74945528D01*
X83487947Y-75003506D01*
X83489355Y-75013171D01*
X83540365Y-75117513D01*
X83585171Y-75162319D01*
X83618656Y-75223642D01*
X83613672Y-75293334D01*
X83585171Y-75337681D01*
X83540365Y-75382486D01*
X83489355Y-75486828D01*
X83489355Y-75486830D01*
X83479500Y-75554472D01*
X83479500Y-75647156D01*
X83474500Y-75665817D01*
X83474500Y-75804183D01*
X83479500Y-75822843D01*
X83479500Y-75915528D01*
X83483680Y-75944215D01*
X83489355Y-75983171D01*
X83540365Y-76087513D01*
X83622486Y-76169634D01*
X83622487Y-76169634D01*
X83622489Y-76169636D01*
X83726830Y-76220645D01*
X83794472Y-76230500D01*
X83802530Y-76230500D01*
X83834622Y-76234724D01*
X83930817Y-76260500D01*
X85343166Y-76260500D01*
X85349202Y-76260647D01*
X85355146Y-76260936D01*
X85420785Y-76270500D01*
X85551349Y-76270499D01*
X85554364Y-76270646D01*
X85557367Y-76271689D01*
X85580423Y-76274724D01*
X85583317Y-76275500D01*
X85583318Y-76275500D01*
X85721682Y-76275500D01*
X85721683Y-76275500D01*
X85724576Y-76274724D01*
X85756672Y-76270499D01*
X85884214Y-76270499D01*
X85954286Y-76260291D01*
X85954290Y-76260289D01*
X85954291Y-76260289D01*
X86062372Y-76207451D01*
X86062375Y-76207449D01*
X86147447Y-76122377D01*
X86147449Y-76122375D01*
X86147450Y-76122372D01*
X86149083Y-76120087D01*
X86152120Y-76117704D01*
X86154715Y-76115110D01*
X86155028Y-76115423D01*
X86204058Y-76076966D01*
X86273620Y-76070411D01*
X86335682Y-76102505D01*
X86350917Y-76120087D01*
X86352552Y-76122377D01*
X86437624Y-76207449D01*
X86437627Y-76207451D01*
X86541201Y-76258084D01*
X86545714Y-76260291D01*
X86615785Y-76270500D01*
X86743327Y-76270499D01*
X86775423Y-76274724D01*
X86778317Y-76275500D01*
X87562828Y-76275500D01*
X87629867Y-76295185D01*
X87650509Y-76311819D01*
X87913181Y-76574491D01*
X87927884Y-76601418D01*
X87944477Y-76627237D01*
X87945368Y-76633437D01*
X87946666Y-76635814D01*
X87949500Y-76662172D01*
X87949500Y-76876000D01*
X87929815Y-76943039D01*
X87877011Y-76988794D01*
X87825500Y-77000000D01*
X70424500Y-77000000D01*
X70357461Y-76980315D01*
X70311706Y-76927511D01*
X70300500Y-76876000D01*
X70300500Y-74896530D01*
X70719500Y-74896530D01*
X70719500Y-75103469D01*
X70759868Y-75306412D01*
X70759870Y-75306420D01*
X70839058Y-75497596D01*
X70954024Y-75669657D01*
X71100342Y-75815975D01*
X71100345Y-75815977D01*
X71272402Y-75930941D01*
X71463580Y-76010130D01*
X71666530Y-76050499D01*
X71666534Y-76050500D01*
X71666535Y-76050500D01*
X71873466Y-76050500D01*
X71873467Y-76050499D01*
X72076420Y-76010130D01*
X72267598Y-75930941D01*
X72439655Y-75815977D01*
X72585977Y-75669655D01*
X72700941Y-75497598D01*
X72780130Y-75306420D01*
X72820500Y-75103465D01*
X72820500Y-74896535D01*
X72780130Y-74693580D01*
X72700941Y-74502402D01*
X72585977Y-74330345D01*
X72585975Y-74330342D01*
X72439657Y-74184024D01*
X72302617Y-74092458D01*
X72267598Y-74069059D01*
X72202308Y-74042015D01*
X72076420Y-73989870D01*
X72076412Y-73989868D01*
X71873469Y-73949500D01*
X71873465Y-73949500D01*
X71666535Y-73949500D01*
X71666530Y-73949500D01*
X71463587Y-73989868D01*
X71463579Y-73989870D01*
X71272403Y-74069058D01*
X71100342Y-74184024D01*
X70954024Y-74330342D01*
X70839058Y-74502403D01*
X70759870Y-74693579D01*
X70759868Y-74693587D01*
X70719500Y-74896530D01*
X70300500Y-74896530D01*
X70300500Y-49513428D01*
X70670000Y-49513428D01*
X70670000Y-49686571D01*
X70697085Y-49857584D01*
X70750591Y-50022257D01*
X70829194Y-50176521D01*
X70908097Y-50285124D01*
X71339269Y-49853952D01*
X71369901Y-49907007D01*
X71462993Y-50000099D01*
X71516046Y-50030729D01*
X71084874Y-50461901D01*
X71193478Y-50540805D01*
X71347742Y-50619408D01*
X71512415Y-50672914D01*
X71683429Y-50700000D01*
X71856571Y-50700000D01*
X72027584Y-50672914D01*
X72192257Y-50619408D01*
X72346528Y-50540801D01*
X72455124Y-50461902D01*
X72455125Y-50461901D01*
X72023953Y-50030729D01*
X72077007Y-50000099D01*
X72170099Y-49907007D01*
X72200729Y-49853953D01*
X72631901Y-50285125D01*
X72631902Y-50285124D01*
X72710801Y-50176528D01*
X72789408Y-50022257D01*
X72842914Y-49857584D01*
X72870000Y-49686571D01*
X72870000Y-49513428D01*
X72842914Y-49342415D01*
X72789408Y-49177742D01*
X72710805Y-49023478D01*
X72631901Y-48914874D01*
X72200729Y-49346046D01*
X72170099Y-49292993D01*
X72077007Y-49199901D01*
X72023952Y-49169270D01*
X72455124Y-48738097D01*
X72346521Y-48659194D01*
X72192257Y-48580591D01*
X72027584Y-48527085D01*
X71856571Y-48500000D01*
X71683429Y-48500000D01*
X71512415Y-48527085D01*
X71347742Y-48580591D01*
X71193476Y-48659195D01*
X71193474Y-48659196D01*
X71084874Y-48738096D01*
X71084874Y-48738097D01*
X71516047Y-49169270D01*
X71462993Y-49199901D01*
X71369901Y-49292993D01*
X71339270Y-49346047D01*
X70908097Y-48914874D01*
X70908096Y-48914874D01*
X70829196Y-49023474D01*
X70829195Y-49023476D01*
X70750591Y-49177742D01*
X70697085Y-49342415D01*
X70670000Y-49513428D01*
X70300500Y-49513428D01*
X70300500Y-46956530D01*
X70719500Y-46956530D01*
X70719500Y-47163469D01*
X70759868Y-47366412D01*
X70759870Y-47366420D01*
X70839058Y-47557596D01*
X70954024Y-47729657D01*
X71100342Y-47875975D01*
X71100345Y-47875977D01*
X71272402Y-47990941D01*
X71463580Y-48070130D01*
X71637150Y-48104655D01*
X71666530Y-48110499D01*
X71666534Y-48110500D01*
X71666535Y-48110500D01*
X71873466Y-48110500D01*
X71873467Y-48110499D01*
X72076420Y-48070130D01*
X72267598Y-47990941D01*
X72439655Y-47875977D01*
X72585977Y-47729655D01*
X72700941Y-47557598D01*
X72780130Y-47366420D01*
X72820500Y-47163465D01*
X72820500Y-46956535D01*
X72780130Y-46753580D01*
X72700941Y-46562402D01*
X72585977Y-46390345D01*
X72585975Y-46390342D01*
X72439657Y-46244024D01*
X72307170Y-46155500D01*
X72267598Y-46129059D01*
X72266166Y-46128466D01*
X72076420Y-46049870D01*
X72076412Y-46049868D01*
X71873469Y-46009500D01*
X71873465Y-46009500D01*
X71666535Y-46009500D01*
X71666530Y-46009500D01*
X71463587Y-46049868D01*
X71463579Y-46049870D01*
X71272403Y-46129058D01*
X71100342Y-46244024D01*
X70954024Y-46390342D01*
X70839058Y-46562403D01*
X70759870Y-46753579D01*
X70759868Y-46753587D01*
X70719500Y-46956530D01*
X70300500Y-46956530D01*
X70300500Y-44416530D01*
X70719500Y-44416530D01*
X70719500Y-44623469D01*
X70759868Y-44826412D01*
X70759870Y-44826420D01*
X70839058Y-45017596D01*
X70954024Y-45189657D01*
X71100342Y-45335975D01*
X71100345Y-45335977D01*
X71272402Y-45450941D01*
X71463580Y-45530130D01*
X71666530Y-45570499D01*
X71666534Y-45570500D01*
X71666535Y-45570500D01*
X71873466Y-45570500D01*
X71873467Y-45570499D01*
X72076420Y-45530130D01*
X72267598Y-45450941D01*
X72439655Y-45335977D01*
X72585977Y-45189655D01*
X72700941Y-45017598D01*
X72780130Y-44826420D01*
X72820500Y-44623465D01*
X72820500Y-44416535D01*
X72780130Y-44213580D01*
X72700941Y-44022402D01*
X72585977Y-43850345D01*
X72585975Y-43850342D01*
X72439657Y-43704024D01*
X72353626Y-43646541D01*
X72267598Y-43589059D01*
X72076420Y-43509870D01*
X72076412Y-43509868D01*
X71883720Y-43471539D01*
X75490001Y-43471539D01*
X75500903Y-43546374D01*
X75557336Y-43661810D01*
X75648189Y-43752663D01*
X75763625Y-43809096D01*
X75838464Y-43819999D01*
X75884999Y-43819999D01*
X75885000Y-43819998D01*
X75885000Y-43375000D01*
X75490001Y-43375000D01*
X75490001Y-43471539D01*
X71883720Y-43471539D01*
X71873469Y-43469500D01*
X71873465Y-43469500D01*
X71666535Y-43469500D01*
X71666530Y-43469500D01*
X71463587Y-43509868D01*
X71463579Y-43509870D01*
X71272403Y-43589058D01*
X71100342Y-43704024D01*
X70954024Y-43850342D01*
X70839058Y-44022403D01*
X70759870Y-44213579D01*
X70759868Y-44213587D01*
X70719500Y-44416530D01*
X70300500Y-44416530D01*
X70300500Y-41504875D01*
X70300882Y-41495146D01*
X70306244Y-41427011D01*
X70314502Y-41322078D01*
X70317544Y-41302873D01*
X70356932Y-41138812D01*
X70362938Y-41120327D01*
X70369133Y-41105371D01*
X70670000Y-41105371D01*
X70670000Y-41855000D01*
X71285856Y-41855000D01*
X71270000Y-41914174D01*
X71270000Y-42045826D01*
X71285856Y-42105000D01*
X70670000Y-42105000D01*
X70670000Y-42854628D01*
X70684503Y-42927540D01*
X70684505Y-42927544D01*
X70739760Y-43010239D01*
X70822455Y-43065494D01*
X70822459Y-43065496D01*
X70895371Y-43079999D01*
X70895374Y-43080000D01*
X71645000Y-43080000D01*
X71645000Y-42464144D01*
X71704174Y-42480000D01*
X71835826Y-42480000D01*
X71895000Y-42464144D01*
X71895000Y-43080000D01*
X72644626Y-43080000D01*
X72644628Y-43079999D01*
X72717540Y-43065496D01*
X72717544Y-43065494D01*
X72772963Y-43028464D01*
X75490000Y-43028464D01*
X75490000Y-43125000D01*
X75885000Y-43125000D01*
X75885000Y-42631362D01*
X75904685Y-42564323D01*
X75915000Y-42551522D01*
X75915000Y-42125000D01*
X75510001Y-42125000D01*
X75510001Y-42200689D01*
X75524465Y-42292017D01*
X75580552Y-42402093D01*
X75580555Y-42402098D01*
X75667901Y-42489444D01*
X75667906Y-42489447D01*
X75695210Y-42503360D01*
X75746006Y-42551335D01*
X75762801Y-42619156D01*
X75740263Y-42685291D01*
X75693376Y-42725245D01*
X75648191Y-42747335D01*
X75648190Y-42747335D01*
X75557336Y-42838189D01*
X75500903Y-42953625D01*
X75490000Y-43028464D01*
X72772963Y-43028464D01*
X72800239Y-43010239D01*
X72837096Y-42955081D01*
X72855495Y-42927543D01*
X72855496Y-42927540D01*
X72869999Y-42854628D01*
X72870000Y-42854626D01*
X72870000Y-42105000D01*
X72254144Y-42105000D01*
X72270000Y-42045826D01*
X72270000Y-41914174D01*
X72254144Y-41855000D01*
X72870000Y-41855000D01*
X72870000Y-41799308D01*
X75510000Y-41799308D01*
X75510000Y-41875000D01*
X75915000Y-41875000D01*
X75915000Y-41440000D01*
X75869311Y-41440000D01*
X75777982Y-41454465D01*
X75667906Y-41510552D01*
X75667901Y-41510555D01*
X75580555Y-41597901D01*
X75580551Y-41597906D01*
X75524463Y-41707984D01*
X75510000Y-41799308D01*
X72870000Y-41799308D01*
X72870000Y-41105373D01*
X72869999Y-41105371D01*
X72855496Y-41032459D01*
X72855494Y-41032455D01*
X72800239Y-40949760D01*
X72717544Y-40894505D01*
X72717540Y-40894503D01*
X72644627Y-40880000D01*
X71895000Y-40880000D01*
X71895000Y-41495855D01*
X71835826Y-41480000D01*
X71704174Y-41480000D01*
X71645000Y-41495855D01*
X71645000Y-40880000D01*
X70895373Y-40880000D01*
X70822459Y-40894503D01*
X70822455Y-40894505D01*
X70739760Y-40949760D01*
X70684505Y-41032455D01*
X70684503Y-41032459D01*
X70670000Y-41105371D01*
X70369133Y-41105371D01*
X70427505Y-40964449D01*
X70436338Y-40947115D01*
X70460869Y-40907085D01*
X70524485Y-40803271D01*
X70535920Y-40787533D01*
X70543019Y-40779221D01*
X70645492Y-40659239D01*
X70659239Y-40645492D01*
X70787535Y-40535917D01*
X70803274Y-40524484D01*
X70947118Y-40436336D01*
X70964449Y-40427505D01*
X71120327Y-40362938D01*
X71138812Y-40356932D01*
X71302873Y-40317544D01*
X71322078Y-40314502D01*
X71495146Y-40300881D01*
X71504875Y-40300500D01*
X71547595Y-40300500D01*
X94452405Y-40300500D01*
X94495125Y-40300500D01*
X94504853Y-40300881D01*
G37*
%TD.AperFunction*%
%TA.AperFunction,Conductor*%
G36*
X88987425Y-68725632D02*
G01*
X89030617Y-68780553D01*
X89039500Y-68826641D01*
X89039500Y-69209894D01*
X89039501Y-69209900D01*
X89046028Y-69259487D01*
X89046029Y-69259489D01*
X89046029Y-69259490D01*
X89096776Y-69368316D01*
X89113181Y-69384721D01*
X89127884Y-69411648D01*
X89144477Y-69437467D01*
X89145368Y-69443667D01*
X89146666Y-69446044D01*
X89149500Y-69472402D01*
X89149500Y-69575728D01*
X89129815Y-69642767D01*
X89081796Y-69686212D01*
X89011659Y-69721949D01*
X89011652Y-69721954D01*
X88921954Y-69811652D01*
X88921951Y-69811657D01*
X88921950Y-69811658D01*
X88903444Y-69847978D01*
X88860737Y-69931795D01*
X88812762Y-69982591D01*
X88750252Y-69999500D01*
X88219705Y-69999500D01*
X88190264Y-69990855D01*
X88160278Y-69984332D01*
X88155262Y-69980577D01*
X88152666Y-69979815D01*
X88132024Y-69963181D01*
X88078144Y-69909301D01*
X88044659Y-69847978D01*
X88049643Y-69778286D01*
X88091515Y-69722353D01*
X88109531Y-69711135D01*
X88152091Y-69689449D01*
X88152098Y-69689444D01*
X88239444Y-69602098D01*
X88239448Y-69602093D01*
X88295536Y-69492015D01*
X88310000Y-69400691D01*
X88310000Y-69355000D01*
X87874000Y-69355000D01*
X87865314Y-69352449D01*
X87856353Y-69353738D01*
X87832312Y-69342759D01*
X87806961Y-69335315D01*
X87801033Y-69328474D01*
X87792797Y-69324713D01*
X87778507Y-69302478D01*
X87761206Y-69282511D01*
X87758918Y-69271996D01*
X87755023Y-69265935D01*
X87750000Y-69231000D01*
X87750000Y-69229000D01*
X87769685Y-69161961D01*
X87822489Y-69116206D01*
X87874000Y-69105000D01*
X88309999Y-69105000D01*
X88309999Y-69059310D01*
X88295534Y-68967981D01*
X88269415Y-68916720D01*
X88256518Y-68848051D01*
X88282793Y-68783310D01*
X88339899Y-68743053D01*
X88409705Y-68740060D01*
X88418522Y-68742959D01*
X88423674Y-68744339D01*
X88423677Y-68744341D01*
X88550971Y-68778449D01*
X88550973Y-68778449D01*
X88682753Y-68778449D01*
X88682755Y-68778449D01*
X88810049Y-68744341D01*
X88853499Y-68719254D01*
X88921398Y-68702781D01*
X88987425Y-68725632D01*
G37*
%TD.AperFunction*%
%TA.AperFunction,Conductor*%
G36*
X91392017Y-66875185D02*
G01*
X91412659Y-66891819D01*
X91801381Y-67280541D01*
X91834866Y-67341864D01*
X91829882Y-67411556D01*
X91788010Y-67467489D01*
X91722546Y-67491906D01*
X91713700Y-67492222D01*
X91094036Y-67492222D01*
X91026997Y-67472537D01*
X90981242Y-67419733D01*
X90970036Y-67368222D01*
X90970036Y-67333385D01*
X90564036Y-67333385D01*
X90555350Y-67330834D01*
X90546389Y-67332123D01*
X90522348Y-67321144D01*
X90496997Y-67313700D01*
X90491069Y-67306859D01*
X90482833Y-67303098D01*
X90468543Y-67280863D01*
X90451242Y-67260896D01*
X90448954Y-67250381D01*
X90445059Y-67244320D01*
X90440036Y-67209385D01*
X90440036Y-67207385D01*
X90459721Y-67140346D01*
X90512525Y-67094591D01*
X90564036Y-67083385D01*
X90970035Y-67083385D01*
X90970035Y-67007689D01*
X90968642Y-66998892D01*
X90971038Y-66980355D01*
X90968378Y-66961853D01*
X90975425Y-66946421D01*
X90977600Y-66929599D01*
X90989638Y-66915299D01*
X90997403Y-66898297D01*
X91011672Y-66889126D01*
X91022598Y-66876149D01*
X91040457Y-66870628D01*
X91056181Y-66860523D01*
X91087894Y-66855963D01*
X91089351Y-66855513D01*
X91091116Y-66855500D01*
X91324978Y-66855500D01*
X91392017Y-66875185D01*
G37*
%TD.AperFunction*%
%TA.AperFunction,Conductor*%
G36*
X76005703Y-65181741D02*
G01*
X76012181Y-65187773D01*
X76381919Y-65557511D01*
X76437868Y-65613460D01*
X76437870Y-65613461D01*
X76437874Y-65613464D01*
X76506383Y-65653017D01*
X76506390Y-65653021D01*
X76582817Y-65673500D01*
X76616000Y-65673500D01*
X76683039Y-65693185D01*
X76728794Y-65745989D01*
X76740000Y-65797500D01*
X76740000Y-65875000D01*
X77146000Y-65875000D01*
X77154685Y-65877550D01*
X77163647Y-65876262D01*
X77187687Y-65887240D01*
X77213039Y-65894685D01*
X77218966Y-65901525D01*
X77227203Y-65905287D01*
X77241492Y-65927521D01*
X77258794Y-65947489D01*
X77261081Y-65958003D01*
X77264977Y-65964065D01*
X77270000Y-65999000D01*
X77270000Y-66000000D01*
X77271000Y-66000000D01*
X77338039Y-66019685D01*
X77383794Y-66072489D01*
X77395000Y-66124000D01*
X77395000Y-66559999D01*
X77440694Y-66559999D01*
X77475288Y-66554520D01*
X77544582Y-66563475D01*
X77598034Y-66608471D01*
X77618673Y-66675223D01*
X77614461Y-66709084D01*
X77582499Y-66828370D01*
X77582499Y-66960154D01*
X77587912Y-66980355D01*
X77603537Y-67038669D01*
X77601874Y-67108519D01*
X77562711Y-67166381D01*
X77498483Y-67193885D01*
X77483762Y-67194762D01*
X76975561Y-67194762D01*
X76908522Y-67175077D01*
X76887880Y-67158443D01*
X75930126Y-66200689D01*
X76740001Y-66200689D01*
X76754465Y-66292017D01*
X76810552Y-66402093D01*
X76810555Y-66402098D01*
X76897901Y-66489444D01*
X76897906Y-66489448D01*
X77007984Y-66545536D01*
X77007983Y-66545536D01*
X77099304Y-66559999D01*
X77144999Y-66559999D01*
X77145000Y-66559998D01*
X77145000Y-66125000D01*
X76740001Y-66125000D01*
X76740001Y-66200689D01*
X75930126Y-66200689D01*
X75836819Y-66107382D01*
X75803334Y-66046059D01*
X75800500Y-66019701D01*
X75800500Y-65275454D01*
X75820185Y-65208415D01*
X75872989Y-65162660D01*
X75942147Y-65152716D01*
X76005703Y-65181741D01*
G37*
%TD.AperFunction*%
%TA.AperFunction,Conductor*%
G36*
X88040634Y-63615185D02*
G01*
X88086389Y-63667989D01*
X88096333Y-63737147D01*
X88067308Y-63800703D01*
X88061276Y-63807181D01*
X88010555Y-63857901D01*
X88010551Y-63857906D01*
X87954463Y-63967984D01*
X87940000Y-64059308D01*
X87940000Y-64105000D01*
X88376000Y-64105000D01*
X88384685Y-64107550D01*
X88393647Y-64106262D01*
X88417687Y-64117240D01*
X88443039Y-64124685D01*
X88448966Y-64131525D01*
X88457203Y-64135287D01*
X88471492Y-64157521D01*
X88488794Y-64177489D01*
X88491081Y-64188003D01*
X88494977Y-64194065D01*
X88500000Y-64229000D01*
X88500000Y-64230000D01*
X88501000Y-64230000D01*
X88568039Y-64249685D01*
X88613794Y-64302489D01*
X88625000Y-64354000D01*
X88625000Y-64759999D01*
X88700689Y-64759999D01*
X88792019Y-64745534D01*
X88847465Y-64717283D01*
X88916135Y-64704386D01*
X88980875Y-64730662D01*
X89021133Y-64787768D01*
X89027051Y-64814512D01*
X89031082Y-64852007D01*
X89078813Y-64979981D01*
X89078815Y-64979984D01*
X89165985Y-65096429D01*
X89164799Y-65097316D01*
X89193644Y-65150142D01*
X89188660Y-65219834D01*
X89146788Y-65275767D01*
X89081324Y-65300184D01*
X89072478Y-65300500D01*
X88620826Y-65300500D01*
X88553787Y-65280815D01*
X88533145Y-65264181D01*
X88240644Y-64971680D01*
X88207159Y-64910357D01*
X88212143Y-64840665D01*
X88254015Y-64784732D01*
X88319479Y-64760315D01*
X88328324Y-64759999D01*
X88374999Y-64759998D01*
X88375000Y-64759998D01*
X88375000Y-64355000D01*
X87940001Y-64355000D01*
X87940001Y-64371675D01*
X87920316Y-64438714D01*
X87867512Y-64484469D01*
X87798354Y-64494413D01*
X87734798Y-64465388D01*
X87728320Y-64459356D01*
X87535407Y-64266444D01*
X87535406Y-64266443D01*
X87434148Y-64224500D01*
X86874000Y-64224500D01*
X86865314Y-64221949D01*
X86856353Y-64223238D01*
X86832312Y-64212259D01*
X86806961Y-64204815D01*
X86801033Y-64197974D01*
X86792797Y-64194213D01*
X86778507Y-64171978D01*
X86761206Y-64152011D01*
X86758918Y-64141496D01*
X86755023Y-64135435D01*
X86750000Y-64100500D01*
X86750000Y-64075500D01*
X86769685Y-64008461D01*
X86822489Y-63962706D01*
X86874000Y-63951500D01*
X87186851Y-63951500D01*
X87186853Y-63951500D01*
X87269639Y-63929318D01*
X87343862Y-63886465D01*
X87423508Y-63806819D01*
X87484831Y-63773334D01*
X87511189Y-63770500D01*
X87565890Y-63770500D01*
X87565892Y-63770500D01*
X87693186Y-63736392D01*
X87807314Y-63670500D01*
X87845995Y-63631819D01*
X87850698Y-63629250D01*
X87853653Y-63624778D01*
X87881041Y-63612682D01*
X87907318Y-63598334D01*
X87915528Y-63597451D01*
X87917567Y-63596551D01*
X87920145Y-63596954D01*
X87933676Y-63595500D01*
X87973595Y-63595500D01*
X88040634Y-63615185D01*
G37*
%TD.AperFunction*%
%TA.AperFunction,Conductor*%
G36*
X91943057Y-62755605D02*
G01*
X91972977Y-62818744D01*
X91974500Y-62838122D01*
X91974500Y-63725661D01*
X91954815Y-63792700D01*
X91938181Y-63813342D01*
X90603919Y-65147603D01*
X90542596Y-65181088D01*
X90472904Y-65176104D01*
X90416971Y-65134232D01*
X90392554Y-65068768D01*
X90407406Y-65000495D01*
X90416977Y-64985603D01*
X90421186Y-64979981D01*
X90468916Y-64852010D01*
X90474999Y-64795428D01*
X90475000Y-64795427D01*
X90475000Y-64650000D01*
X89874000Y-64650000D01*
X89865314Y-64647449D01*
X89856353Y-64648738D01*
X89832312Y-64637759D01*
X89806961Y-64630315D01*
X89801033Y-64623474D01*
X89792797Y-64619713D01*
X89778507Y-64597478D01*
X89761206Y-64577511D01*
X89758918Y-64566996D01*
X89755023Y-64560935D01*
X89750000Y-64526000D01*
X89750000Y-64524000D01*
X89769685Y-64456961D01*
X89822489Y-64411206D01*
X89874000Y-64400000D01*
X90474999Y-64400000D01*
X90474999Y-64254566D01*
X90474998Y-64254560D01*
X90468918Y-64197992D01*
X90421186Y-64070018D01*
X90421184Y-64070015D01*
X90339329Y-63960670D01*
X90229984Y-63878815D01*
X90229982Y-63878814D01*
X90132428Y-63842428D01*
X90076495Y-63800556D01*
X90052078Y-63735092D01*
X90066930Y-63666819D01*
X90116335Y-63617414D01*
X90127280Y-63612696D01*
X90133121Y-63609719D01*
X90133126Y-63609719D01*
X90253220Y-63548528D01*
X90348528Y-63453220D01*
X90391845Y-63368204D01*
X90439820Y-63317409D01*
X90502330Y-63300500D01*
X90840351Y-63300500D01*
X90840353Y-63300500D01*
X90923139Y-63278318D01*
X90997362Y-63235465D01*
X91466008Y-62766819D01*
X91527331Y-62733334D01*
X91553689Y-62730500D01*
X91743022Y-62730500D01*
X91743028Y-62730500D01*
X91810670Y-62720645D01*
X91810672Y-62720643D01*
X91813889Y-62719650D01*
X91817882Y-62719593D01*
X91820200Y-62719256D01*
X91820244Y-62719560D01*
X91883752Y-62718664D01*
X91943057Y-62755605D01*
G37*
%TD.AperFunction*%
%TA.AperFunction,Conductor*%
G36*
X77922539Y-42120185D02*
G01*
X77968294Y-42172989D01*
X77979500Y-42224500D01*
X77979500Y-42268993D01*
X77979500Y-42268995D01*
X77979499Y-42268995D01*
X78006418Y-42404322D01*
X78006421Y-42404332D01*
X78059221Y-42531804D01*
X78059228Y-42531817D01*
X78135885Y-42646541D01*
X78135888Y-42646545D01*
X78233455Y-42744112D01*
X78233458Y-42744114D01*
X78324391Y-42804874D01*
X78369196Y-42858484D01*
X78379500Y-42907975D01*
X78379500Y-44722024D01*
X78359815Y-44789063D01*
X78324391Y-44825126D01*
X78233458Y-44885885D01*
X78233454Y-44885888D01*
X78135888Y-44983454D01*
X78135885Y-44983458D01*
X78059228Y-45098182D01*
X78059221Y-45098195D01*
X78006421Y-45225667D01*
X78006418Y-45225677D01*
X77979500Y-45361004D01*
X77979500Y-45361007D01*
X77979500Y-46598993D01*
X77979500Y-46598995D01*
X77979499Y-46598995D01*
X78006418Y-46734322D01*
X78006421Y-46734332D01*
X78059221Y-46861804D01*
X78059228Y-46861817D01*
X78135885Y-46976541D01*
X78135888Y-46976545D01*
X78233454Y-47074111D01*
X78233458Y-47074114D01*
X78348182Y-47150771D01*
X78348195Y-47150778D01*
X78412337Y-47177346D01*
X78475672Y-47203580D01*
X78475676Y-47203580D01*
X78475677Y-47203581D01*
X78611004Y-47230500D01*
X78611007Y-47230500D01*
X78748995Y-47230500D01*
X78877405Y-47204957D01*
X78884328Y-47203580D01*
X79011811Y-47150775D01*
X79011816Y-47150771D01*
X79011819Y-47150770D01*
X79101888Y-47090587D01*
X79168565Y-47069708D01*
X79235946Y-47088192D01*
X79281265Y-47137393D01*
X79322360Y-47218045D01*
X79322363Y-47218050D01*
X79411949Y-47307636D01*
X79411953Y-47307639D01*
X79524855Y-47365166D01*
X79618514Y-47379999D01*
X79674999Y-47379998D01*
X79675000Y-47379998D01*
X79675000Y-46679000D01*
X79677550Y-46670314D01*
X79676262Y-46661353D01*
X79687240Y-46637312D01*
X79694685Y-46611961D01*
X79701525Y-46606033D01*
X79705287Y-46597797D01*
X79727521Y-46583507D01*
X79747489Y-46566206D01*
X79758003Y-46563918D01*
X79764065Y-46560023D01*
X79799000Y-46555000D01*
X79801000Y-46555000D01*
X79868039Y-46574685D01*
X79913794Y-46627489D01*
X79925000Y-46679000D01*
X79925000Y-47379999D01*
X79981479Y-47379999D01*
X80075149Y-47365164D01*
X80084434Y-47362148D01*
X80085127Y-47364282D01*
X80106040Y-47361275D01*
X80137865Y-47355296D01*
X80140418Y-47356332D01*
X80143147Y-47355940D01*
X80172601Y-47369391D01*
X80202607Y-47381567D01*
X80204195Y-47383819D01*
X80206703Y-47384965D01*
X80224206Y-47412201D01*
X80242869Y-47438670D01*
X80243443Y-47442134D01*
X80244477Y-47443743D01*
X80249500Y-47478678D01*
X80249500Y-47650038D01*
X80229815Y-47717077D01*
X80223878Y-47725522D01*
X80222764Y-47726972D01*
X80156871Y-47841101D01*
X80131667Y-47935167D01*
X80122763Y-47968397D01*
X80122763Y-48100181D01*
X80127501Y-48117864D01*
X80156871Y-48227476D01*
X80187822Y-48281083D01*
X80222763Y-48341603D01*
X80315949Y-48434789D01*
X80430077Y-48500681D01*
X80557371Y-48534789D01*
X80557373Y-48534789D01*
X80689153Y-48534789D01*
X80689155Y-48534789D01*
X80816449Y-48500681D01*
X80846570Y-48483290D01*
X80914467Y-48466817D01*
X80980495Y-48489668D01*
X81006487Y-48514596D01*
X81015050Y-48525617D01*
X81035935Y-48570404D01*
X81098330Y-48632799D01*
X81103083Y-48638916D01*
X81113154Y-48664505D01*
X81126332Y-48688639D01*
X81125766Y-48696551D01*
X81128671Y-48703932D01*
X81123309Y-48730901D01*
X81121348Y-48758331D01*
X81116293Y-48766196D01*
X81115048Y-48772460D01*
X81106720Y-48781092D01*
X81092848Y-48802678D01*
X80997335Y-48898191D01*
X80940903Y-49013625D01*
X80930000Y-49088464D01*
X80930000Y-49135000D01*
X81376000Y-49135000D01*
X81384685Y-49137550D01*
X81393647Y-49136262D01*
X81417687Y-49147240D01*
X81443039Y-49154685D01*
X81448966Y-49161525D01*
X81457203Y-49165287D01*
X81471492Y-49187521D01*
X81488794Y-49207489D01*
X81491081Y-49218003D01*
X81494977Y-49224065D01*
X81500000Y-49259000D01*
X81500000Y-49261000D01*
X81480315Y-49328039D01*
X81427511Y-49373794D01*
X81376000Y-49385000D01*
X80930001Y-49385000D01*
X80918153Y-49396847D01*
X80910316Y-49423539D01*
X80857512Y-49469294D01*
X80806001Y-49480500D01*
X80033622Y-49480500D01*
X79966583Y-49460815D01*
X79920828Y-49408011D01*
X79911149Y-49375898D01*
X79909720Y-49366878D01*
X79909719Y-49366876D01*
X79909719Y-49366874D01*
X79848528Y-49246780D01*
X79848526Y-49246778D01*
X79848523Y-49246774D01*
X79753225Y-49151476D01*
X79753221Y-49151473D01*
X79753220Y-49151472D01*
X79633126Y-49090281D01*
X79633124Y-49090280D01*
X79633121Y-49090279D01*
X79533493Y-49074500D01*
X79533488Y-49074500D01*
X79146544Y-49074500D01*
X79079505Y-49054815D01*
X79058863Y-49038181D01*
X78714213Y-48693531D01*
X78714208Y-48693527D01*
X78634288Y-48647386D01*
X78629162Y-48646012D01*
X78629161Y-48646012D01*
X78552869Y-48625570D01*
X78545144Y-48623500D01*
X76812144Y-48623500D01*
X76719856Y-48623500D01*
X76630712Y-48647386D01*
X76630709Y-48647387D01*
X76550791Y-48693527D01*
X76550786Y-48693531D01*
X76511137Y-48733181D01*
X76449814Y-48766666D01*
X76423456Y-48769500D01*
X76275683Y-48769500D01*
X76226828Y-48775931D01*
X76119595Y-48825935D01*
X76035935Y-48909595D01*
X75985931Y-49016828D01*
X75979500Y-49065683D01*
X75979500Y-49414316D01*
X75985931Y-49463171D01*
X76035935Y-49570404D01*
X76127267Y-49661736D01*
X76124443Y-49664559D01*
X76155183Y-49703042D01*
X76162352Y-49772542D01*
X76130808Y-49834886D01*
X76127101Y-49838098D01*
X76127267Y-49838264D01*
X76035935Y-49929595D01*
X75985931Y-50036828D01*
X75979500Y-50085683D01*
X75979500Y-50434316D01*
X75985931Y-50483171D01*
X75985932Y-50483173D01*
X76035935Y-50590404D01*
X76119596Y-50674065D01*
X76226827Y-50724068D01*
X76259589Y-50728381D01*
X76323486Y-50756646D01*
X76361958Y-50814970D01*
X76362791Y-50884834D01*
X76354807Y-50905780D01*
X76309426Y-50998608D01*
X76299500Y-51066739D01*
X76299500Y-52074110D01*
X76279815Y-52141149D01*
X76263181Y-52161791D01*
X75237541Y-53187430D01*
X75237535Y-53187438D01*
X75197982Y-53255947D01*
X75197979Y-53255952D01*
X75189946Y-53285932D01*
X75177500Y-53332381D01*
X75177500Y-59117505D01*
X75190678Y-59166684D01*
X75197979Y-59193933D01*
X75197980Y-59193934D01*
X75216204Y-59225499D01*
X75237540Y-59262454D01*
X75237542Y-59262456D01*
X76087362Y-60112276D01*
X76120847Y-60173599D01*
X76115863Y-60243291D01*
X76100000Y-60267973D01*
X76100000Y-63224999D01*
X76245433Y-63224999D01*
X76245439Y-63224998D01*
X76302005Y-63218918D01*
X76429986Y-63171183D01*
X76432659Y-63169724D01*
X76435633Y-63169076D01*
X76438293Y-63168085D01*
X76438435Y-63168467D01*
X76500932Y-63154872D01*
X76566397Y-63179289D01*
X76579767Y-63190875D01*
X77876711Y-64487819D01*
X77910196Y-64549142D01*
X77905212Y-64618834D01*
X77863340Y-64674767D01*
X77797876Y-64699184D01*
X77789030Y-64699500D01*
X76850890Y-64699500D01*
X76783851Y-64679815D01*
X76763209Y-64663181D01*
X75525914Y-63425886D01*
X75492429Y-63364563D01*
X75497413Y-63294871D01*
X75539285Y-63238938D01*
X75604749Y-63214521D01*
X75642107Y-63217527D01*
X75647996Y-63218918D01*
X75704555Y-63224999D01*
X75849999Y-63224999D01*
X75850000Y-63224998D01*
X75850000Y-62625000D01*
X75275001Y-62625000D01*
X75275001Y-62795439D01*
X75281081Y-62852005D01*
X75282472Y-62857889D01*
X75278732Y-62927658D01*
X75237865Y-62984330D01*
X75172847Y-63009912D01*
X75104320Y-62996280D01*
X75074114Y-62974086D01*
X74640177Y-62540149D01*
X74606692Y-62478826D01*
X74603858Y-62452468D01*
X74603858Y-62204571D01*
X75275000Y-62204571D01*
X75275000Y-62375000D01*
X75850000Y-62375000D01*
X75850000Y-61125000D01*
X75275001Y-61125000D01*
X75275001Y-61295439D01*
X75281081Y-61352007D01*
X75328813Y-61479981D01*
X75328815Y-61479984D01*
X75410670Y-61589329D01*
X75492695Y-61650733D01*
X75534566Y-61706667D01*
X75539550Y-61776359D01*
X75506065Y-61837682D01*
X75492695Y-61849267D01*
X75410670Y-61910670D01*
X75328815Y-62020015D01*
X75328814Y-62020016D01*
X75281083Y-62147989D01*
X75275000Y-62204571D01*
X74603858Y-62204571D01*
X74603858Y-60704571D01*
X75275000Y-60704571D01*
X75275000Y-60875000D01*
X75850000Y-60875000D01*
X75850000Y-60275000D01*
X75704566Y-60275000D01*
X75704559Y-60275001D01*
X75647992Y-60281081D01*
X75520018Y-60328813D01*
X75520015Y-60328815D01*
X75410670Y-60410670D01*
X75328815Y-60520015D01*
X75328814Y-60520016D01*
X75281083Y-60647989D01*
X75275000Y-60704571D01*
X74603858Y-60704571D01*
X74603858Y-48095117D01*
X74623543Y-48028078D01*
X74640177Y-48007436D01*
X75627929Y-47019684D01*
X75689252Y-46986199D01*
X75758944Y-46991183D01*
X75803291Y-47019684D01*
X75886652Y-47103045D01*
X75886654Y-47103046D01*
X75886658Y-47103050D01*
X75999694Y-47160645D01*
X75999698Y-47160647D01*
X76093475Y-47175499D01*
X76093481Y-47175500D01*
X76556518Y-47175499D01*
X76650304Y-47160646D01*
X76763342Y-47103050D01*
X76853050Y-47013342D01*
X76910646Y-46900304D01*
X76910646Y-46900302D01*
X76910647Y-46900301D01*
X76925499Y-46806524D01*
X76925500Y-46806519D01*
X76925499Y-46193482D01*
X76910646Y-46099696D01*
X76853050Y-45986658D01*
X76853046Y-45986654D01*
X76853045Y-45986652D01*
X76763347Y-45896954D01*
X76763343Y-45896951D01*
X76763342Y-45896950D01*
X76739856Y-45884983D01*
X76689062Y-45837011D01*
X76672267Y-45769190D01*
X76694804Y-45703055D01*
X76749519Y-45659603D01*
X76796153Y-45650500D01*
X76984768Y-45650500D01*
X76998101Y-45649249D01*
X77014774Y-45647686D01*
X77014778Y-45647684D01*
X77014781Y-45647684D01*
X77085845Y-45622816D01*
X77141179Y-45603455D01*
X77248930Y-45523930D01*
X77328455Y-45416179D01*
X77363547Y-45315892D01*
X77372684Y-45289781D01*
X77372684Y-45289778D01*
X77372686Y-45289774D01*
X77375500Y-45259764D01*
X77375500Y-44240236D01*
X77372686Y-44210226D01*
X77372684Y-44210222D01*
X77372684Y-44210218D01*
X77328455Y-44083821D01*
X77328454Y-44083819D01*
X77248929Y-43976069D01*
X77242476Y-43971306D01*
X77200226Y-43915659D01*
X77194769Y-43846002D01*
X77227836Y-43784453D01*
X77263703Y-43759157D01*
X77360404Y-43714065D01*
X77444065Y-43630404D01*
X77494068Y-43523173D01*
X77500500Y-43474316D01*
X77500500Y-43025684D01*
X77494068Y-42976827D01*
X77444065Y-42869596D01*
X77366819Y-42792350D01*
X77352115Y-42765422D01*
X77335523Y-42739604D01*
X77334631Y-42733403D01*
X77333334Y-42731027D01*
X77330500Y-42704669D01*
X77330500Y-42512402D01*
X77350185Y-42445363D01*
X77366819Y-42424721D01*
X77389447Y-42402093D01*
X77423224Y-42368316D01*
X77473972Y-42259487D01*
X77480500Y-42209901D01*
X77480500Y-42209900D01*
X77480709Y-42208315D01*
X77508975Y-42144419D01*
X77567299Y-42105947D01*
X77603648Y-42100500D01*
X77855500Y-42100500D01*
X77922539Y-42120185D01*
G37*
%TD.AperFunction*%
%TA.AperFunction,Conductor*%
G36*
X75983703Y-57400485D02*
G01*
X75990181Y-57406517D01*
X76114134Y-57530470D01*
X76194058Y-57576614D01*
X76283202Y-57600500D01*
X76651000Y-57600500D01*
X76718039Y-57620185D01*
X76763794Y-57672989D01*
X76775000Y-57724500D01*
X76775000Y-57875000D01*
X77351000Y-57875000D01*
X77359685Y-57877550D01*
X77368647Y-57876262D01*
X77392687Y-57887240D01*
X77418039Y-57894685D01*
X77423966Y-57901525D01*
X77432203Y-57905287D01*
X77446492Y-57927521D01*
X77463794Y-57947489D01*
X77466081Y-57958003D01*
X77469977Y-57964065D01*
X77475000Y-57999000D01*
X77475000Y-58001000D01*
X77455315Y-58068039D01*
X77402511Y-58113794D01*
X77351000Y-58125000D01*
X76775001Y-58125000D01*
X76775001Y-58295439D01*
X76781081Y-58352007D01*
X76828813Y-58479981D01*
X76828815Y-58479984D01*
X76910670Y-58589329D01*
X77027116Y-58676500D01*
X77026118Y-58677832D01*
X77035534Y-58681590D01*
X77050091Y-58701987D01*
X77067813Y-58719707D01*
X77070039Y-58729938D01*
X77076122Y-58738461D01*
X77077340Y-58763489D01*
X77082670Y-58787979D01*
X77079010Y-58797791D01*
X77079520Y-58808248D01*
X77067014Y-58829961D01*
X77058257Y-58853445D01*
X77048949Y-58861326D01*
X77044649Y-58868794D01*
X77016831Y-58888525D01*
X77015921Y-58889297D01*
X77015580Y-58889473D01*
X76994249Y-58900342D01*
X76993924Y-58900666D01*
X76985155Y-58905199D01*
X76959684Y-58910135D01*
X76935251Y-58918843D01*
X76925945Y-58916675D01*
X76916562Y-58918494D01*
X76892466Y-58908876D01*
X76867203Y-58902992D01*
X76855572Y-58894151D01*
X76851670Y-58892594D01*
X76849472Y-58889515D01*
X76840538Y-58882724D01*
X76807316Y-58849502D01*
X76807314Y-58849500D01*
X76717752Y-58797791D01*
X76693187Y-58783608D01*
X76606829Y-58760469D01*
X76565892Y-58749500D01*
X76434108Y-58749500D01*
X76306812Y-58783608D01*
X76192686Y-58849500D01*
X76192683Y-58849502D01*
X76099502Y-58942683D01*
X76099500Y-58942686D01*
X76058857Y-59013081D01*
X76040761Y-59030334D01*
X76025780Y-59050347D01*
X76015912Y-59054027D01*
X76008289Y-59061296D01*
X75983740Y-59066026D01*
X75960316Y-59074764D01*
X75950023Y-59072524D01*
X75939682Y-59074518D01*
X75916472Y-59065226D01*
X75892043Y-59059912D01*
X75879220Y-59050312D01*
X75874817Y-59048550D01*
X75863789Y-59038761D01*
X75814819Y-58989791D01*
X75781334Y-58928468D01*
X75778500Y-58902110D01*
X75778500Y-57494198D01*
X75798185Y-57427159D01*
X75850989Y-57381404D01*
X75920147Y-57371460D01*
X75983703Y-57400485D01*
G37*
%TD.AperFunction*%
%TA.AperFunction,Conductor*%
G36*
X89802608Y-47915079D02*
G01*
X90812181Y-48924652D01*
X90845666Y-48985975D01*
X90848500Y-49012333D01*
X90848500Y-49425166D01*
X90828815Y-49492205D01*
X90812181Y-49512847D01*
X89086185Y-51238842D01*
X89082555Y-51242328D01*
X89072429Y-51251662D01*
X89050138Y-51264534D01*
X88951727Y-51362944D01*
X88949857Y-51364669D01*
X88920707Y-51379082D01*
X88892164Y-51394668D01*
X88889563Y-51394482D01*
X88887226Y-51395638D01*
X88854907Y-51392003D01*
X88822472Y-51389684D01*
X88819967Y-51388074D01*
X88817794Y-51387830D01*
X88811064Y-51382352D01*
X88778125Y-51361183D01*
X88744508Y-51327566D01*
X88644626Y-51280990D01*
X88644627Y-51280990D01*
X88599123Y-51275000D01*
X88312500Y-51275000D01*
X88312500Y-51526000D01*
X88309949Y-51534685D01*
X88311238Y-51543647D01*
X88300259Y-51567687D01*
X88292815Y-51593039D01*
X88285974Y-51598966D01*
X88282213Y-51607203D01*
X88259978Y-51621492D01*
X88240011Y-51638794D01*
X88229496Y-51641081D01*
X88223435Y-51644977D01*
X88188500Y-51650000D01*
X88187500Y-51650000D01*
X88187500Y-51651000D01*
X88167815Y-51718039D01*
X88115011Y-51763794D01*
X88063500Y-51775000D01*
X87789895Y-51775000D01*
X87722856Y-51755315D01*
X87677101Y-51702511D01*
X87667157Y-51633353D01*
X87696182Y-51569797D01*
X87721001Y-51547900D01*
X87723994Y-51545900D01*
X87790671Y-51525020D01*
X87792888Y-51525000D01*
X88062500Y-51525000D01*
X88062500Y-51275000D01*
X87949499Y-51275000D01*
X87882460Y-51255315D01*
X87836705Y-51202511D01*
X87825499Y-51151003D01*
X87825499Y-50650832D01*
X87845184Y-50583794D01*
X87861818Y-50563152D01*
X88088152Y-50336819D01*
X88149475Y-50303334D01*
X88175833Y-50300500D01*
X88218960Y-50300500D01*
X88218962Y-50300500D01*
X88295389Y-50280021D01*
X88363911Y-50240460D01*
X88419860Y-50184511D01*
X88990460Y-49613911D01*
X89013458Y-49574077D01*
X89030021Y-49545389D01*
X89050500Y-49468962D01*
X89050500Y-48024500D01*
X89070185Y-47957461D01*
X89122989Y-47911706D01*
X89174500Y-47900500D01*
X89609768Y-47900500D01*
X89639767Y-47897687D01*
X89639768Y-47897686D01*
X89639774Y-47897686D01*
X89673972Y-47885718D01*
X89743750Y-47882156D01*
X89802608Y-47915079D01*
G37*
%TD.AperFunction*%
%TA.AperFunction,Conductor*%
G36*
X77793039Y-49769685D02*
G01*
X77838794Y-49822489D01*
X77850000Y-49874000D01*
X77850000Y-50474999D01*
X77881465Y-50506464D01*
X77885286Y-50508385D01*
X77920838Y-50568533D01*
X77918228Y-50638354D01*
X77888320Y-50686680D01*
X77875000Y-50700000D01*
X77875000Y-51488500D01*
X77855315Y-51555539D01*
X77802511Y-51601294D01*
X77751000Y-51612500D01*
X77749000Y-51612500D01*
X77681961Y-51592815D01*
X77636206Y-51540011D01*
X77625000Y-51488500D01*
X77625000Y-50700000D01*
X77593529Y-50668530D01*
X77589715Y-50666613D01*
X77577405Y-50645787D01*
X77561568Y-50627510D01*
X77559949Y-50616255D01*
X77554163Y-50606465D01*
X77555066Y-50582294D01*
X77551624Y-50558352D01*
X77556348Y-50548007D01*
X77556773Y-50536644D01*
X77570600Y-50516799D01*
X77580649Y-50494796D01*
X77586681Y-50488318D01*
X77600000Y-50474999D01*
X77600000Y-49874000D01*
X77619685Y-49806961D01*
X77672489Y-49761206D01*
X77724000Y-49750000D01*
X77726000Y-49750000D01*
X77793039Y-49769685D01*
G37*
%TD.AperFunction*%
%TD*%
M02*
