M48
; DRILL file {KiCad 9.0.6} date 2026-03-10T21:41:45+0100
; FORMAT={-:-/ absolute / metric / decimal}
; #@! TF.CreationDate,2026-03-10T21:41:45+01:00
; #@! TF.GenerationSoftware,Kicad,Pcbnew,9.0.6
; #@! TF.FileFunction,Plated,1,2,PTH
FMAT,2
METRIC
; #@! TA.AperFunction,Plated,PTH,ViaDrill
T1C0.300
; #@! TA.AperFunction,Plated,PTH,ComponentDrill
T2C0.300
; #@! TA.AperFunction,Plated,PTH,ComponentDrill
T3C0.600
; #@! TA.AperFunction,Plated,PTH,ComponentDrill
T4C1.000
%
G90
G05
T1
X70.75Y-76.5
X73.25Y-70.75
X73.437Y-52.275
X73.5Y-47.25
X73.5Y-65.5
X74.0Y-76.5
X75.0Y-42.0
X75.0Y-43.25
X75.025Y-61.0
X75.025Y-62.5
X75.5Y-52.5
X76.49Y-69.0
X76.5Y-47.75
X76.5Y-56.5
X76.5Y-58.0
X76.5Y-59.25
X76.5Y-66.0
X76.75Y-76.5
X77.049Y-66.894
X77.5Y-50.574
X77.75Y-54.25
X77.807Y-69.816
X78.0Y-74.5
X78.083Y-66.894
X78.25Y-55.5
X78.34Y-61.906
X78.716Y-63.158
X78.716Y-64.052
X79.471Y-55.0
X79.5Y-48.0
X79.75Y-76.5
X80.0Y-40.75
X80.429Y-56.742
X80.5Y-51.5
X80.623Y-48.034
X81.0Y-73.5
X81.358Y-43.043
X81.856Y-61.5
X82.137Y-51.699
X82.149Y-47.6
X82.185Y-53.75
X82.321Y-49.163
X82.5Y-70.75
X82.5Y-72.5
X82.5Y-74.0
X82.5Y-75.25
X82.5Y-76.5
X82.606Y-61.5
X82.75Y-58.75
X83.226Y-49.174
X83.25Y-55.0
X83.252Y-47.61
X83.356Y-61.5
X84.0Y-52.8
X84.25Y-56.0
X84.308Y-51.146
X84.5Y-40.75
X84.774Y-76.589
X85.0Y-45.25
X85.0Y-57.5
X85.0Y-74.75
X85.015Y-72.875
X85.25Y-47.75
X85.765Y-73.75
X86.25Y-48.0
X86.265Y-72.5
X86.5Y-55.5
X86.886Y-76.645
X87.25Y-57.0
X87.25Y-59.25
X87.25Y-73.098
X87.5Y-63.27
X87.5Y-74.75
X88.0Y-48.0
X88.25Y-54.0
X88.25Y-71.75
X88.617Y-68.278
X88.623Y-69.236
X88.694Y-65.0
X88.75Y-51.0
X89.0Y-52.652
X89.25Y-60.0
X89.25Y-76.0
X89.5Y-73.906
X89.75Y-49.0
X90.0Y-55.25
X90.25Y-45.882
X90.827Y-64.5
X91.25Y-40.75
X91.25Y-68.5
X91.288Y-67.192
X91.5Y-70.25
X91.75Y-76.5
X92.0Y-57.75
X92.75Y-52.75
X93.25Y-45.75
X95.0Y-76.5
T2
X90.5Y-76.75
T4
X71.77Y-41.98
X71.77Y-44.52
X71.77Y-47.06
X71.77Y-49.6
X71.77Y-52.14
X71.77Y-54.68
X71.77Y-57.22
X71.77Y-59.76
X71.77Y-62.3
X71.77Y-64.84
X71.77Y-67.38
X71.77Y-69.92
X71.77Y-72.46
X71.77Y-75.0
X94.23Y-41.98
X94.23Y-44.52
X94.23Y-47.06
X94.23Y-49.6
X94.23Y-52.14
X94.23Y-54.68
X94.23Y-57.22
X94.23Y-59.76
X94.23Y-62.3
X94.23Y-64.84
X94.23Y-67.38
X94.23Y-69.92
X94.23Y-72.46
X94.23Y-75.0
T3
G00X78.68Y-42.2
M15
G01X78.68Y-41.4
M16
G05
G00X78.68Y-46.53
M15
G01X78.68Y-45.43
M16
G05
G00X87.32Y-42.2
M15
G01X87.32Y-41.4
M16
G05
G00X87.32Y-46.53
M15
G01X87.32Y-45.43
M16
G05
M30
